<svg height="511pt" viewBox="-29 1 511 511.999" width="511pt" xmlns="http://www.w3.org/2000/svg"><path d="m179.460938 481.710938c-2.140626 0-4.3125-.417969-6.410157-1.300782-28.246093-11.886718-43.78125-27.753906-46.183593-47.164062-1.6875-13.648438 2.789062-34.792969 33.703124-58.019532 7.304688-5.492187 17.671876-4.015624 23.160157 3.285157 5.488281 7.304687 4.019531 17.671875-3.285157 23.160156-16.292968 12.242187-21.398437 22.238281-20.746093 27.515625.792969 6.414062 10.582031 14.164062 26.183593 20.730469 8.417969 3.542969 12.375 13.242187 8.832032 21.660156-2.664063 6.328125-8.796875 10.132813-15.253906 10.132813zm0 0" fill="#efd176"/><path d="m239.136719 504.5c-.015625 0-.027344 0-.039063 0-9.136718-.019531-16.523437-7.441406-16.503906-16.578125.0625-30.160156 6.984375-74.296875 26.210938-107.71875 4.550781-7.921875 14.664062-10.648437 22.585937-6.09375 7.917969 4.554687 10.644531 14.667969 6.089844 22.585937-16.007813 27.832032-21.753907 66.578126-21.804688 91.296876-.019531 9.125-7.421875 16.507812-16.539062 16.507812zm0 0" fill="#efd176"/><path d="m385.757812 399.300781c-6.628906 0-12.886718-4.015625-15.425781-10.570312-17.574219-45.359375-43.714843-68.9375-71.21875-91.015625-7.125-5.722656-8.261719-16.132813-2.542969-23.253906 5.71875-7.125 16.128907-8.265626 23.253907-2.546876 29.914062 24.015626 60.832031 51.894532 81.355469 104.863282 3.300781 8.519531-.929688 18.101562-9.449219 21.402344-1.964844.761718-3.984375 1.121093-5.972657 1.121093zm0 0" fill="#efd176"/><path d="m76.566406 327.046875c-4.5625 0-9.097656-.511719-13.546875-1.5625-36.023437-8.5-49.671875-46.269531-54.601562-68.027344-2.019531-8.910156 3.566406-17.769531 12.476562-19.789062 8.90625-2.015625 17.769531 3.566406 19.785157 12.476562 5.570312 24.578125 16.203124 39.902344 29.9375 43.140625 12.847656 3.035156 28.851562-4.40625 40.765624-18.953125 5.789063-7.066406 16.210938-8.105469 23.28125-2.3125 7.066407 5.789063 8.101563 16.210938 2.3125 23.277344-16.648437 20.320313-38.855468 31.75-60.410156 31.75zm0 0" fill="#efd176"/><path d="m171.347656 74.148438c23.273438 23.273437 27.261719 59.503906 27.660156 78.101562.144532 6.757812-5.378906 12.28125-12.136718 12.136719-18.597656-.398438-54.828125-4.386719-78.101563-27.660157-23.273437-23.273437-27.261719-59.507812-27.660156-78.101562-.144531-6.757812 5.382813-12.28125 12.136719-12.136719 18.597656.398438 54.828125 4.386719 78.101562 27.660157zm0 0" fill="#8ee2cf"/><path d="m154.015625 126.894531c-1.917969 0-3.839844-.734375-5.304687-2.199219l-27.914063-27.910156c-2.925781-2.929687-2.925781-7.679687 0-10.609375 2.929687-2.929687 7.679687-2.929687 10.609375 0l27.910156 27.914063c2.929688 2.929687 2.929688 7.679687 0 10.605468-1.460937 1.464844-3.382812 2.199219-5.300781 2.199219zm0 0" fill="#6fce91"/><path d="m262.300781 74.148438c-23.273437 23.273437-27.261719 59.503906-27.660156 78.101562-.144531 6.757812 5.378906 12.28125 12.136719 12.136719 18.597656-.398438 54.828125-4.386719 78.101562-27.660157 23.273438-23.273437 27.261719-59.507812 27.660156-78.101562.144532-6.757812-5.378906-12.28125-12.136718-12.136719-18.59375.398438-54.828125 4.386719-78.101563 27.660157zm0 0" fill="#8ee2cf"/><path d="m279.632812 126.894531c-1.917968 0-3.835937-.734375-5.300781-2.199219-2.929687-2.925781-2.929687-7.675781 0-10.605468l27.910157-27.910156c2.929687-2.929688 7.679687-2.929688 10.605468 0 2.929688 2.925781 2.929688 7.675781 0 10.605468l-27.910156 27.914063c-1.464844 1.460937-3.382812 2.195312-5.304688 2.195312zm0 0" fill="#6fce91"/><path d="m261.078125 85.945312c0 32.914063-22.804687 61.355469-35.671875 74.785157-4.675781 4.878906-12.488281 4.878906-17.164062 0-12.867188-13.429688-35.667969-41.871094-35.667969-74.785157 0-32.914062 22.800781-61.355468 35.667969-74.785156 4.675781-4.878906 12.488281-4.878906 17.164062 0 12.867188 13.429688 35.671875 41.871094 35.671875 74.785156zm0 0" fill="#8ee2cf"/><path d="m216.824219 113.183594c-4.140625 0-7.5-3.359375-7.5-7.5v-39.476563c0-4.140625 3.359375-7.5 7.5-7.5 4.144531 0 7.5 3.359375 7.5 7.5v39.472657c0 4.144531-3.355469 7.503906-7.5 7.503906zm0 0" fill="#6fce91"/><path d="m216.824219 133.828125c68.277343 0 117.085937 53.773437 123.625 135.203125 6.804687 84.703125-25.054688 147.890625-123.625 147.890625-98.566407 0-130.429688-63.183594-123.625-147.890625 6.542969-81.429688 55.347656-135.203125 123.625-135.203125zm0 0" fill="#f7ef87"/><g fill="#efd176"><path d="m176.011719 140.925781c-46.359375 17.113281-77.664063 64.050781-82.8125 128.105469-6.785157 84.46875 24.890625 147.53125 122.8125 147.878906-118.859375-72.71875-86.984375-203.925781-40-275.984375zm0 0"/><path d="m228.828125 238.242188c-1.917969 0-3.839844-.730469-5.304687-2.195313l-6.699219-6.703125-6.699219 6.703125c-2.929688 2.929687-7.679688 2.925781-10.605469 0-2.929687-2.929687-2.929687-7.679687 0-10.609375l12.003907-12c1.40625-1.410156 3.3125-2.199219 5.304687-2.199219 1.988281 0 3.894531.789063 5.300781 2.199219l12.003906 12c2.929688 2.929688 2.929688 7.679688 0 10.609375-1.464843 1.460937-3.386718 2.195313-5.304687 2.195313zm0 0"/><path d="m297.457031 238.242188c-1.921875 0-3.839843-.730469-5.304687-2.195313l-6.699219-6.703125-6.699219 6.703125c-2.933594 2.925781-7.679687 2.929687-10.609375 0-2.929687-2.929687-2.929687-7.679687 0-10.609375l12.003907-12c1.40625-1.410156 3.3125-2.199219 5.304687-2.199219 1.988281 0 3.894531.789063 5.300781 2.199219l12.003906 12c2.929688 2.929688 2.929688 7.679688 0 10.609375-1.464843 1.460937-3.382812 2.195313-5.300781 2.195313zm0 0"/><path d="m160.203125 238.242188c-1.917969 0-3.839844-.730469-5.304687-2.195313l-6.699219-6.703125-6.703125 6.703125c-2.929688 2.929687-7.675782 2.925781-10.605469 0-2.929687-2.929687-2.929687-7.679687 0-10.609375l12.003906-12c2.929688-2.929688 7.679688-2.929688 10.605469 0l12.003906 12c2.929688 2.929688 2.929688 7.679688 0 10.609375-1.460937 1.460937-3.382812 2.195313-5.300781 2.195313zm0 0"/><path d="m263.140625 378.929688c-1.917969 0-3.839844-.730469-5.304687-2.195313l-6.699219-6.703125-6.699219 6.703125c-2.929688 2.929687-7.679688 2.925781-10.605469 0-2.929687-2.929687-2.929687-7.679687 0-10.605469l12.003907-12.007812c1.40625-1.40625 3.3125-2.195313 5.304687-2.195313 1.988281 0 3.894531.789063 5.300781 2.195313l12.003906 12.007812c2.929688 2.925782 2.929688 7.675782 0 10.605469-1.464843 1.460937-3.386718 2.195313-5.304687 2.195313zm0 0"/><path d="m194.515625 378.929688c-1.917969 0-3.839844-.730469-5.304687-2.195313l-6.699219-6.703125-6.703125 6.703125c-2.925782 2.929687-7.675782 2.925781-10.605469 0-2.929687-2.929687-2.929687-7.679687.003906-10.605469l12.003907-12.007812c2.925781-2.925782 7.675781-2.925782 10.601562 0l12.003906 12.007812c2.933594 2.925782 2.933594 7.675782.003906 10.605469-1.464843 1.460937-3.386718 2.195313-5.304687 2.195313zm0 0"/></g><path d="m166.621094 315.570312c0-12.910156-13.140625-23.375-29.355469-23.375-16.210937 0-29.351563 10.464844-29.351563 23.375 0 12.914063 13.140626 23.378907 29.351563 23.378907 16.214844 0 29.355469-10.464844 29.355469-23.378907zm0 0" fill="#eda1ab"/><path d="m325.738281 315.570312c0-12.910156-13.144531-23.375-29.355469-23.375-16.210937 0-29.355468 10.464844-29.355468 23.375 0 12.914063 13.144531 23.378907 29.355468 23.378907 16.210938 0 29.355469-10.464844 29.355469-23.378907zm0 0" fill="#eda1ab"/><path d="m154.375 299.753906c-4.140625 0-7.5-3.359375-7.5-7.5v-10.367187c0-4.144531 3.359375-7.5 7.5-7.5 4.144531 0 7.5 3.355469 7.5 7.5v10.367187c0 4.140625-3.355469 7.5-7.5 7.5zm0 0" fill="#4e5660"/><path d="m279.273438 299.753906c-4.140626 0-7.5-3.359375-7.5-7.5v-10.367187c0-4.144531 3.359374-7.5 7.5-7.5 4.144531 0 7.5 3.355469 7.5 7.5v10.367187c0 4.140625-3.355469 7.5-7.5 7.5zm0 0" fill="#4e5660"/><path d="m162.769531 260.597656h-26.757812c-11.242188 0-19.621094 10.367188-17.265625 21.359375l1.480468 6.910157c2.492188 11.617187 12.757813 19.914062 24.640626 19.914062h9.046874c11.882813 0 22.148438-8.296875 24.636719-19.914062l1.484375-6.910157c2.355469-10.992187-6.023437-21.359375-17.265625-21.359375zm0 0" fill="#4e5660"/><path d="m270.878906 260.597656h26.761719c11.242187 0 19.621094 10.367188 17.261719 21.359375l-1.480469 6.910157c-2.492187 11.617187-12.757813 19.914062-24.636719 19.914062h-9.050781c-11.878906 0-22.144531-8.296875-24.636719-19.914062l-1.480468-6.910157c-2.359376-10.992187 6.019531-21.359375 17.261718-21.359375zm0 0" fill="#4e5660"/><path d="m330.039062 266.105469-14.363281 4.207031c-9.175781 2.6875-17.699219-5.835938-15.007812-15.011719l4.203125-14.359375c.652344-2.222656.652344-4.582031 0-6.800781l-4.203125-14.363281c-2.691407-9.175782 5.832031-17.699219 15.007812-15.007813l14.363281 4.203125c2.21875.652344 4.578126.652344 6.800782 0l14.359375-4.203125c9.175781-2.691406 17.699219 5.832031 15.011719 15.007813l-4.207032 14.363281c-.652344 2.21875-.652344 4.578125 0 6.800781l4.207032 14.359375c2.6875 9.175781-5.835938 17.699219-15.011719 15.011719l-14.359375-4.207031c-2.222656-.652344-4.582032-.652344-6.800782 0zm0 0" fill="#a3defe"/><path d="m12.714844 172.230469-4.148438-14.164063c-2.648437-9.050781 5.753906-17.453125 14.804688-14.800781l14.160156 4.148437c2.191406.640626 4.515625.640626 6.707031 0l14.160157-4.148437c9.050781-2.652344 17.453124 5.75 14.804687 14.800781l-4.148437 14.164063c-.640626 2.1875-.640626 4.515625 0 6.707031l4.148437 14.160156c2.648437 9.050782-5.753906 17.453125-14.804687 14.800782l-14.160157-4.144532c-2.191406-.644531-4.515625-.644531-6.707031 0l-14.160156 4.144532c-9.050782 2.652343-17.453125-5.75-14.804688-14.800782l4.148438-14.160156c.640625-2.191406.640625-4.519531 0-6.707031zm0 0" fill="#7acefa"/><path d="m389.054688 157.753906-11.570313-6.328125c-7.394531-4.042969-7.394531-14.664062 0-18.707031l11.570313-6.328125c1.789062-.980469 3.261718-2.449219 4.238281-4.238281l6.328125-11.570313c4.046875-7.394531 14.664062-7.394531 18.710937 0l6.328125 11.570313c.976563 1.789062 2.449219 3.257812 4.238282 4.238281l11.570312 6.328125c7.394531 4.042969 7.394531 14.664062 0 18.707031l-11.570312 6.328125c-1.789063.980469-3.261719 2.449219-4.238282 4.238282l-6.328125 11.570312c-4.042969 7.394531-14.664062 7.394531-18.710937 0l-6.328125-11.570312c-.976563-1.789063-2.449219-3.257813-4.238281-4.238282zm0 0" fill="#8eafe2"/><path d="m1.371094 190.988281c-1.996094 6.820313-.117188 14.175781 4.90625 19.203125 5.023437 5.023438 12.382812 6.902344 19.203125 4.90625l14.160156-4.148437c.8125-.238281 1.675781-.238281 2.488281 0l14.164063 4.148437c1.800781.527344 3.636719.785156 5.460937.785156 5.082032 0 10.042969-1.996093 13.738282-5.691406 5.023437-5.027344 6.90625-12.382812 4.90625-19.203125l-4.144532-14.160156c-.238281-.816406-.238281-1.675781 0-2.492187l4.144532-14.160157c2-6.820312.117187-14.175781-4.90625-19.199219-5.023438-5.027343-12.382813-6.90625-19.199219-4.910156l-14.160157 4.148438c-.816406.238281-1.679687.238281-2.492187 0l-14.160156-4.148438c-6.824219-1.996094-14.179688-.117187-19.203125 4.910156-5.023438 5.023438-6.902344 12.378907-4.90625 19.199219l4.148437 14.164063c.238281.8125.234375 1.675781 0 2.488281zm18.542968-20.867187-4.148437-14.160156c-.667969-2.277344.5625-3.820313 1.121094-4.378907.554687-.558593 2.105469-1.789062 4.375-1.121093l14.164062 4.148437c3.574219 1.046875 7.347657 1.046875 10.921875 0l14.160156-4.148437c2.277344-.664063 3.820313.5625 4.378907 1.121093.558593.558594 1.785156 2.101563 1.121093 4.378907l-4.148437 14.15625c-1.046875 3.574218-1.046875 7.355468 0 10.925781l4.148437 14.160156c.664063 2.277344-.5625 3.820313-1.121093 4.378906-.558594.558594-2.105469 1.785157-4.378907 1.121094l-14.160156-4.148437c-1.789062-.523438-3.625-.785157-5.460937-.785157-1.839844 0-3.675781.261719-5.460938.785157l-14.164062 4.148437c-2.269531.664063-3.816407-.5625-4.375-1.117187-.558594-.5625-1.789063-2.105469-1.121094-4.378907l4.148437-14.164062c1.046876-3.574219 1.046876-7.347657 0-10.921875zm328.894532 116.714844c-.042969-3.117188-.144532-6.285157-.304688-9.5l.585938.171874c6.878906 2.015626 14.300781.121094 19.367187-4.949218 5.066407-5.070313 6.964844-12.488282 4.949219-19.367188l-4.203125-14.359375c-.25-.84375-.25-1.738281 0-2.585937l4.203125-14.359375c2.015625-6.875.117188-14.296875-4.949219-19.363281-5.066406-5.070313-12.488281-6.964844-19.367187-4.953126l-14.359375 4.207032c-.84375.246094-1.738281.246094-2.582031 0l-1.296876-.378906c-7.523437-15.960938-17.152343-29.640626-28.515624-40.777344 10.933593-4.789063 20.269531-11.011719 27.847656-18.589844 24.960937-24.960938 29.417968-62.871094 29.855468-83.246094.113282-5.332031-1.902343-10.34375-5.675781-14.121094-3.773437-3.773437-8.753906-5.796874-14.117187-5.671874-18.300782.390624-50.734375 4.035156-75.234375 22.851562-7.140625-24.558594-23.433594-44.648438-34.1875-55.871094-3.691407-3.851562-8.660157-5.972656-13.996094-5.972656-.003906 0-.003906 0-.003906 0-5.335938 0-10.308594 2.121094-13.996094 5.972656-10.753906 11.222656-27.050781 31.3125-34.1875 55.871094-24.503906-18.816406-56.933594-22.460938-75.230469-22.851562-5.339844-.125-10.347656 1.898437-14.125 5.671874-3.773437 3.777344-5.789062 8.792969-5.671875 14.121094.085938 4.082032.320313 8.226563.703125 12.3125.382813 4.125 4.027344 7.15625 8.160156 6.773438 4.125-.382813 7.15625-4.039063 6.773438-8.164063-.347656-3.730469-.5625-7.511719-.644531-11.242187-.035157-1.625.792969-2.699219 1.285156-3.191406.496094-.496094 1.605469-1.34375 3.195313-1.285157 41.273437.878907 62.84375 15.648438 72.3125 24.832031-.207032 2.347657-.324219 4.722657-.324219 7.125 0 15.117188 4.332031 30.667969 12.859375 46.339844-12.097656 3.90625-23.378906 9.703125-33.664063 17.316406-12.289062-4.320312-22.441406-10.421874-30.199219-18.175781-7.519531-7.523437-13.511718-17.3125-17.800781-29.101562-1.417969-3.890625-5.722656-5.902344-9.613281-4.480469-3.894531 1.417969-5.898438 5.71875-4.484375 9.613281 5.046875 13.859375 12.210937 25.492188 21.292969 34.574219 7.585937 7.585938 16.9375 13.8125 27.886718 18.601562-1.710937 1.679688-3.390624 3.410157-5.03125 5.207032-23.210937 25.4375-37.25 60.910156-40.597656 102.589844-.453125 5.644531-.726562 11.140624-.84375 16.5-4.507812 1.566406-8.78125 1.941406-12.539062 1.054687-10.640625-2.507813-19.511719-16.175781-24.34375-37.496094-2.929688-12.929687-15.835938-21.0625-28.761719-18.136719-6.261719 1.421876-11.597656 5.195313-15.019531 10.625-3.425782 5.433594-4.53125 11.875-3.113282 18.136719 12.382813 54.660157 43.027344 69.621094 60.195313 73.671875 4.957031 1.167969 10.09375 1.761719 15.269531 1.761719 4.199219 0 8.445313-.394531 12.6875-1.164063 4.960938 21.875 14.074219 40.070313 27.300782 54.402344 3.5625 3.859375 7.414062 7.417969 11.542968 10.671875-8.878906 14.507813-9.726562 27.199219-8.671875 35.707031 2.753907 22.269532 19.816407 40.15625 50.71875 53.160157 2.976563 1.25 6.109375 1.886719 9.316407 1.886719 9.703124 0 18.40625-5.78125 22.167968-14.722657 5.140625-12.21875-.617187-26.34375-12.835937-31.484375-17.113281-7.199218-21.433594-13.464844-21.648438-14.710937-.042969-.832031.882813-4.011719 5.015625-8.929688 13.4375 3.363281 28.339844 5.054688 44.667969 5.054688 2.230469 0 4.429687-.039063 6.613281-.101563-5.296875 20.535156-8.304687 43.164063-8.347656 63.589844-.027344 13.253906 10.734375 24.0625 24.042969 24.09375 4.808593 0 9.453125-1.417969 13.429687-4.101562 3.433594-2.3125 4.339844-6.976563 2.023438-10.410157-2.3125-3.433593-6.976563-4.339843-10.410156-2.023437-1.488282 1.003906-3.234376 1.53125-5.0625 1.53125-4.984376-.007813-9.035157-4.074219-9.023438-9.058594.042969-20.835938 3.367188-44.121094 9.164062-64.683594 6.953126-.75 13.59375-1.859375 19.917969-3.332031-6.585937 19.90625-9.152343 39.214844-10.136719 50.171875-.371093 4.125 2.671876 7.769531 6.800782 8.140625.226562.023437.453125.03125.679687.03125 3.835938 0 7.109375-2.929687 7.460938-6.828125 1.089843-12.152344 4.25-35.277344 13.214843-57.023438 15.824219-6.105468 29.164063-14.992187 39.90625-26.632812 10.019532-10.855469 17.683594-23.933594 22.964844-39.144531 9.449219 12.804687 17.121094 26.917969 23.273438 42.800781 3.558594 9.1875 12.570312 15.363281 22.421875 15.363281 2.96875 0 5.890625-.546875 8.679687-1.628906 12.363282-4.789063 18.523438-18.742187 13.734375-31.105469-9.054687-23.359375-23.980469-54.25-59.367187-87.230468zm-284.066406 31.351562c-32.058594-7.566406-44.46875-42.335938-49.011719-62.386719-.53125-2.355469-.117188-4.777343 1.171875-6.820312 1.289062-2.042969 3.292968-3.464844 5.648437-3.996094 4.867188-1.101563 9.714844 1.957031 10.816407 6.820313 6.234374 27.523437 18.851562 44.847656 35.527343 48.78125 5.101563 1.203124 10.558594 1.152343 16.128907-.109376.273437 6.269532.796874 12.3125 1.582031 18.136719-7.460938 1.355469-14.878907 1.222657-21.863281-.425781zm203.835937-232.242188c0-2.398437-.121094-4.769531-.328125-7.113281 21.28125-20.699219 54.367188-24.460937 72.3125-24.847656h.101562c1.566407 0 2.605469.800781 3.09375 1.285156.492188.496094 1.320313 1.570313 1.285157 3.195313-.390625 18.125-4.210938 51.707031-25.464844 72.960937-7.75 7.75-17.890625 13.84375-30.164063 18.164063-10.242187-7.5625-21.550781-13.359375-33.710937-17.28125 8.535156-15.679688 12.875-31.238282 12.875-46.363282zm-54.921875-69.597656c1.125-1.171875 2.46875-1.347656 3.167969-1.347656s2.042969.175781 3.167969 1.347656c29.222656 30.5 33.585937 56.695313 33.585937 69.597656 0 13.628907-4.363281 27.921876-12.945313 42.542969-7.671874-1.421875-15.621093-2.160156-23.808593-2.160156-8.179688 0-16.128907.730469-23.8125 2.152344-8.578125-14.617188-12.9375-28.90625-12.9375-42.535157 0-12.902343 4.363281-39.097656 33.582031-69.597656zm-30.683594 440.480469c4.597656 1.9375 6.761719 7.246094 4.828125 11.84375-1.414062 3.363281-4.691406 5.539063-8.339843 5.539063-1.199219 0-2.378907-.238282-3.5-.714844-25.589844-10.765625-39.605469-24.617188-41.652344-41.171875-1.027344-8.3125 1.070312-16.855469 6.230468-25.464844 5.144532 2.960937 10.632813 5.546875 16.453126 7.761719-3.679688 5.585937-5.308594 10.835937-4.734376 15.484375 1.488282 12.03125 17.527344 21.175781 30.714844 26.722656zm146.78125-126.691406c-.171875.492187-.289062 1.003906-.355468 1.519531-4.453126 18.566406-12.230469 33.933594-23.324219 45.957031-19.476563 21.105469-49.503907 31.804688-89.25 31.804688-39.742188 0-69.769531-10.699219-89.246094-31.804688-12.640625-13.695312-20.980469-31.734375-24.988281-53.902343-.039063-.496094-.128906-.996094-.273438-1.488282-1.675781-9.835937-2.507812-20.480468-2.503906-31.898437.015625-.234375.015625-.46875.003906-.707031.023438-6.417969.304688-13.074219.859375-19.984376 3.082031-38.328124 15.78125-70.726562 36.726563-93.683593 3.980468-4.359375 8.214844-8.320313 12.675781-11.878907.023437-.015624.046875-.039062.070313-.054687 12.15625-9.679687 26.019531-16.363281 41.164062-19.851563.023438-.007812.046875-.011718.070312-.019531 8.132813-1.867187 16.636719-2.8125 25.441407-2.8125 40.089843 0 73.867187 20.019531 94.664062 55.472657-4.84375.191406-9.53125 2.179687-13.070312 5.71875-5.066407 5.066406-6.960938 12.488281-4.949219 19.367187l4.207031 14.355469c.246094.847656.246094 1.742187 0 2.585937l-4.175781 14.265625h-22.621094c-5.8125 0-11.328125 1.976563-15.75 5.542969-9.742187-1.246094-22.46875-2.488281-38.304687-2.488281-15.832031 0-28.558594 1.242187-38.304688 2.488281-4.421875-3.5625-9.9375-5.542969-15.75-5.542969h-26.761719c-7.632812 0-14.765624 3.40625-19.5625 9.34375-4.800781 5.9375-6.632812 13.625-5.03125 21.085938l1.480469 6.914062c3.210938 14.972656 16.65625 25.839844 31.972657 25.839844h9.046874c15.3125 0 28.761719-10.867188 31.972657-25.839844l1.480469-6.914062c.777343-3.628906.738281-7.308594-.054688-10.816406 8.148438-.859376 17.972656-1.5625 29.511719-1.5625 11.542969 0 21.367187.699218 29.511719 1.5625-.789063 3.507812-.832032 7.1875-.050782 10.816406l1.480469 6.914062c3.210937 14.972656 16.65625 25.839844 31.972656 25.839844h9.046875c15.316406 0 28.761719-10.867188 31.972656-25.84375l1.480469-6.90625c.53125-2.488281.671875-4.992188.457031-7.460938l9.453126-2.765624c.351562-.105469.71875-.15625 1.082031-.171876.386719 5.707032.585937 11.246094.605469 16.609376-.015626.265624-.011719.535156.003906.800781-.007813 14.46875-1.371094 27.679687-4.085938 39.59375zm-21.96875-52.382813c.039063.871094-.027344 1.753906-.214844 2.628906l-1.480468 6.914063c-1.738282 8.101563-9.015625 13.984375-17.304688 13.984375h-9.050781c-8.289063 0-15.566406-5.882812-17.304687-13.984375l-1.480469-6.914063c-.632813-2.953124.074219-5.992187 1.929687-8.367187.335938-.320313.648438-.667969.925782-1.042969 1.882812-1.839844 4.402343-2.875 7.074218-2.875h24.207032c.882812 1.613282 1.992187 3.121094 3.332031 4.460938 2.625 2.621094 5.882812 4.375 9.367187 5.195312zm-135.082031 2.628906-1.484375 6.910157c-1.738281 8.105469-9.015625 13.988281-17.304688 13.988281h-9.046874c-8.289063 0-15.566407-5.882812-17.308594-13.984375l-1.480469-6.914063c-.644531-3.015624.097656-6.117187 2.03125-8.515624 1.941406-2.394532 4.816406-3.769532 7.898437-3.769532h26.761719c2.683594 0 5.207031 1.042969 7.097657 2.890625.269531.367188.566406.703125.894531 1.011719 1.863281 2.378906 2.574219 5.421875 1.941406 8.382812zm166.242187-21.476562c-1.800781-.527344-3.652343-.792969-5.507812-.792969-1.851562 0-3.707031.265625-5.507812.792969l-14.359376 4.207031c-.289062.082031-.5625.136719-.828124.167969-.019532 0-.039063.003906-.058594.003906-1.878906.195313-3.15625-.832031-3.660156-1.335937-.578126-.578125-1.851563-2.179688-1.160157-4.542969l4.207031-14.359375c1.054688-3.601563 1.054688-7.410156 0-11.015625l-4.207031-14.359375c-.691406-2.363281.582031-3.964844 1.160157-4.542969.582031-.582031 2.183593-1.855468 4.542968-1.164062l14.359375 4.207031c3.605469 1.054687 7.410157 1.054687 11.019531 0l14.359376-4.207031c2.363281-.691406 3.964843.582031 4.542968 1.164062.582032.578125 1.855469 2.179688 1.164063 4.542969l-4.207031 14.359375c-1.054688 3.605469-1.054688 7.414062 0 11.015625l4.207031 14.359375c.691406 2.363281-.582031 3.964844-1.164063 4.542969-.578125.582031-2.179687 1.855469-4.542968 1.164062zm50.078126 132.277344c-1.054688.410156-2.152344.617187-3.265626.617187-3.703124 0-7.09375-2.320312-8.433593-5.777343-8.128907-20.980469-18.726563-39.136719-32.328125-55.382813 1.539062-7.402344 2.613281-15.222656 3.226562-23.441406 15.6875 16.152343 32.902344 38.578125 45.960938 72.289062 1.804687 4.648438-.511719 9.898438-5.160156 11.695313zm55.042968-265.042969-11.570312-6.328125c-.53125-.292969-.96875-.726562-1.257813-1.257812l-6.328125-11.570313c-3.183594-5.828125-9.292968-9.449219-15.933594-9.449219-6.640624 0-12.746093 3.621094-15.933593 9.449219l-6.328125 11.570313c-.289063.53125-.726563.964843-1.257813 1.257812l-11.570312 6.328125c-5.824219 3.183594-9.445313 9.289063-9.445313 15.933594 0 6.640625 3.621094 12.746093 9.445313 15.933593l11.570312 6.328126c.535157.292968.96875.726562 1.257813 1.257812l6.328125 11.570312c3.183593 5.824219 9.292969 9.445313 15.933593 9.445313 6.644532 0 12.75-3.621094 15.933594-9.445313l6.328125-11.570312c.289063-.53125.726563-.964844 1.257813-1.257812l11.570312-6.328126c5.824219-3.183593 9.445313-9.289062 9.445313-15.933593 0-6.640625-3.621094-12.75-9.445313-15.933594zm-7.199218 18.707031-11.570313 6.328125c-3.050781 1.671875-5.546875 4.167969-7.21875 7.21875l-6.328125 11.570313c-.78125 1.433594-2.074219 1.644531-2.773438 1.644531-.699218 0-1.992187-.210937-2.773437-1.644531l-6.328125-11.570313c-1.667969-3.050781-4.164062-5.546875-7.214844-7.214843-.003906-.003907-.003906-.003907-.003906-.003907l-11.570312-6.328125c-1.429688-.78125-1.644532-2.074218-1.644532-2.773437s.214844-1.992188 1.644532-2.773438l11.574218-6.328125c3.050782-1.671875 5.546875-4.167968 7.214844-7.21875l6.328125-11.570312c.78125-1.429688 2.074219-1.644532 2.773437-1.644532.699219 0 1.992188.214844 2.773438 1.644532l6.328125 11.570312c1.671875 3.054688 4.167969 5.550782 7.21875 7.21875l11.570313 6.328125c1.433593.785157 1.644531 2.074219 1.644531 2.773438s-.214844 1.992187-1.644531 2.773437zm-198.652344 142.210938c-3.125-2.722656-7.859375-2.398438-10.582032.726562-2.726562 3.132813-6.667968 4.929688-10.808593 4.929688s-8.082031-1.796875-10.8125-4.929688c-2.71875-3.125-7.457031-3.449218-10.582031-.726562-3.121094 2.722656-3.445313 7.460937-.722657 10.582031 5.578125 6.398437 13.640625 10.070313 22.117188 10.070313 8.476562 0 16.539062-3.671876 22.117187-10.070313 2.722656-3.125 2.398438-7.863281-.726562-10.582031zm0 0"/></svg>