<svg height="512pt" viewBox="0 0 512.00152 512" width="512pt" xmlns="http://www.w3.org/2000/svg"><path d="m60.253906 223.320312c-12.316406.363282-18.839844 11.371094-30.953125 15.117188-3.671875 1.136719-5.003906 5.675781-2.511719 8.597656 13.265626 15.566406 24.09375 19.0625 34.09375 19.0625 12.679688 0 22.785157-11.03125 21.238282-24.019531-1.292969-10.878906-10.914063-19.082031-21.867188-18.757813zm0 0" fill="#6fce91"/><path d="m90.21875 192.664062c-8.964844-8.449218-21.363281-5.277343-32.578125-11.195312-3.398437-1.789062-7.546875.476562-7.855469 4.304688-1.625 20.386718 3.554688 30.515624 10.628906 37.585937 8.964844 8.96875 23.914063 8.3125 32.003907-1.96875 6.777343-8.609375 5.777343-21.210937-2.199219-28.726563zm0 0" fill="#6fce91"/><path d="m147.894531 504.5c-2.085937 0-4.203125-.398438-6.25-1.234375-8.457031-3.453125-12.511719-13.109375-9.058593-21.566406 16.578124-40.597657 13.480468-75.304688 7.242187-81.757813-6.351563-6.566406-6.175781-17.039062.394531-23.386718 6.566406-6.351563 17.039063-6.171876 23.390625.394531 12.589844 13.023437 14.71875 34.9375 14.289063 51.027343-.558594 20.886719-5.777344 44.40625-14.6875 66.230469-2.621094 6.410157-8.800782 10.292969-15.320313 10.292969zm0 0" fill="#efd176"/><path d="m377.613281 345.261719c-1.289062 0-2.597656-.152344-3.90625-.46875-36.253906-8.773438-61.5625-21.535157-93.386719-47.082031-7.121093-5.71875-8.261718-16.128907-2.542968-23.253907 5.722656-7.125 16.132812-8.261719 23.253906-2.542969 27.980469 22.460938 49.035156 33.121094 80.457031 40.722657 8.878907 2.148437 14.335938 11.089843 12.1875 19.96875-1.832031 7.570312-8.605469 12.65625-16.0625 12.65625zm0 0" fill="#efd176"/><path d="m286.113281 421.800781-18.867187-18.871093c-7.632813-7.632813-7.632813-20.007813 0-27.636719l167.523437-167.527344c4.523438-4.523437 10.03125-7.9375 16.09375-9.976563l37.460938-12.589843c9.601562-3.226563 18.75 5.921875 15.523437 15.523437l-12.59375 37.457032c-2.035156 6.066406-5.449218 11.574218-9.972656 16.09375l-167.527344 167.527343c-7.632812 7.632813-20.007812 7.632813-27.640625 0zm0 0" fill="#8eafe2"/><path d="m351.136719 291.398438-83.890625 83.890624c-7.632813 7.632813-7.632813 20.007813 0 27.640626l18.867187 18.871093c7.636719 7.632813 20.007813 7.632813 27.640625 0l47.023438-47.023437c-10.925782-21.480469-14.492188-51.863282-9.640625-83.378906zm0 0" fill="#6a96d7"/><path d="m491.253906 238.179688 12.59375-37.457032c3.226563-9.601562-5.921875-18.75-15.523437-15.523437l-37.460938 12.589843c-4.6875 1.578126-9.039062 3.984376-12.863281 7.082032 4.375 10.792968 10.664062 18.867187 18.984375 27.1875 8.324219 8.320312 16.398437 14.613281 27.191406 18.988281 3.097657-3.828125 5.503907-8.175781 7.078125-12.867187zm0 0" fill="#fcf2d0"/><path d="m488.324219 185.199219-19.386719 6.515625c3.574219 5.511718 7.859375 10.460937 12.894531 15.496094 5.035157 5.035156 9.988281 9.320312 15.496094 12.898437l6.519531-19.386719c3.226563-9.601562-5.921875-18.75-15.523437-15.523437zm0 0" fill="#4e5660"/><path d="m281.78125 360.753906-14.535156 14.535156c-7.636719 7.632813-7.636719 20.007813 0 27.640626l18.867187 18.871093c7.636719 7.632813 20.007813 7.632813 27.640625 0l14.539063-14.539062zm0 0" fill="#e26e7e"/><path d="m306.742188 335.785156 46.511718 46.511719-24.964844 24.960937-46.507812-46.507812zm0 0" fill="#efd176"/><path d="m380.355469 316.191406c-1.917969 0-3.839844-.734375-5.304688-2.195312-2.929687-2.929688-2.929687-7.679688 0-10.609375l18.136719-18.132813c2.929688-2.929687 7.675781-2.929687 10.605469 0 2.929687 2.929688 2.929687 7.675782 0 10.605469l-18.136719 18.132813c-1.460938 1.464843-3.382812 2.199218-5.300781 2.199218zm0 0" fill="#f7ef87"/><path d="m258.644531 493.296875c-2.5 0-5.03125-.566406-7.414062-1.765625-8.164063-4.101562-11.457031-14.042969-7.355469-22.207031 12.429688-24.734375 8.644531-57.074219-7.785156-66.546875-7.914063-4.5625-10.632813-14.679688-6.070313-22.59375 4.5625-7.914063 14.675781-10.632813 22.589844-6.070313 32 18.445313 41.539063 68.851563 20.828125 110.066407-2.90625 5.777343-8.738281 9.117187-14.792969 9.117187zm0 0" fill="#efd176"/><path d="m25.9375 397.507812c-7.640625 0-14.503906-5.320312-16.164062-13.09375-6.484376-30.414062 1.066406-59.757812 21.269531-82.621093 19.960937-22.589844 49.699219-35.722657 75.78125-33.457031 9.101562.789062 15.835937 8.808593 15.046875 17.910156-.792969 9.101562-8.800782 15.859375-17.910156 15.046875-18.066407-1.5625-37.617188 10.515625-48.125 22.40625-9.253907 10.472656-19.144532 28.3125-13.707032 53.816406 1.90625 8.933594-3.792968 17.722656-12.726562 19.628906-1.164063.246094-2.324219.363281-3.464844.363281zm0 0" fill="#efd176"/><path d="m152.558594 74.148438c23.273437 23.273437 27.261718 59.503906 27.660156 78.101562.144531 6.757812-5.378906 12.28125-12.136719 12.136719-18.597656-.398438-54.828125-4.386719-78.101562-27.660157-23.273438-23.273437-27.261719-59.503906-27.660157-78.101562-.144531-6.753906 5.382813-12.28125 12.136719-12.136719 18.597657.398438 54.828125 4.386719 78.101563 27.660157zm0 0" fill="#8ee2cf"/><path d="m135.226562 126.894531c-1.917968 0-3.839843-.734375-5.304687-2.195312l-27.910156-27.914063c-2.929688-2.929687-2.929688-7.675781 0-10.605468 2.925781-2.929688 7.675781-2.929688 10.605469 0l27.910156 27.910156c2.929687 2.929687 2.929687 7.679687 0 10.609375-1.460938 1.460937-3.382813 2.195312-5.300782 2.195312zm0 0" fill="#6fce91"/><path d="m243.507812 74.148438c-23.269531 23.273437-27.257812 59.503906-27.65625 78.101562-.144531 6.757812 5.378907 12.28125 12.136719 12.136719 18.59375-.398438 54.828125-4.386719 78.101563-27.660157 23.273437-23.273437 27.261718-59.503906 27.65625-78.101562.148437-6.753906-5.378906-12.28125-12.136719-12.136719-18.59375.398438-54.824219 4.386719-78.101563 27.660157zm0 0" fill="#8ee2cf"/><path d="m260.84375 126.894531c-1.917969 0-3.839844-.734375-5.304688-2.195312-2.929687-2.929688-2.929687-7.679688 0-10.609375l27.914063-27.910156c2.929687-2.929688 7.675781-2.929688 10.605469 0 2.929687 2.929687 2.929687 7.675781 0 10.605468l-27.910156 27.914063c-1.464844 1.460937-3.386719 2.195312-5.304688 2.195312zm0 0" fill="#6fce91"/><path d="m242.285156 85.945312c0 32.914063-22.800781 61.355469-35.667968 74.785157-4.675782 4.878906-12.488282 4.878906-17.164063 0-12.867187-13.429688-35.667969-41.871094-35.667969-74.785157 0-32.914062 22.800782-61.355468 35.667969-74.785156 4.675781-4.878906 12.488281-4.878906 17.164063 0 12.867187 13.429688 35.667968 41.871094 35.667968 74.785156zm0 0" fill="#8ee2cf"/><path d="m198.035156 113.183594c-4.140625 0-7.5-3.359375-7.5-7.5v-39.476563c0-4.140625 3.359375-7.5 7.5-7.5s7.5 3.359375 7.5 7.5v39.476563c0 4.140625-3.359375 7.5-7.5 7.5zm0 0" fill="#6fce91"/><path d="m198.035156 133.828125c68.273438 0 117.082032 53.773437 123.621094 135.203125 6.804688 84.703125-25.054688 147.882812-123.621094 147.882812s-130.429687-63.179687-123.625-147.882812c6.542969-81.429688 55.347656-135.203125 123.625-135.203125zm0 0" fill="#f7ef87"/><g fill="#efd176"><path d="m157.21875 140.925781c-46.355469 17.113281-77.660156 64.046875-82.808594 128.105469-6.785156 84.464844 24.886719 147.527344 122.808594 147.875-118.851562-72.71875-86.980469-203.921875-40-275.980469zm0 0"/><path d="m210.039062 245.039062c-1.921874 0-3.839843-.734374-5.304687-2.199218l-6.699219-6.699219-6.699218 6.699219c-2.929688 2.929687-7.679688 2.929687-10.609376 0-2.929687-2.929688-2.929687-7.675782 0-10.605469l12.003907-12.003906c2.929687-2.925781 7.679687-2.925781 10.605469 0l12.003906 12.003906c2.929687 2.929687 2.929687 7.679687 0 10.605469-1.464844 1.464844-3.382813 2.199218-5.300782 2.199218zm0 0"/><path d="m278.664062 245.039062c-1.917968 0-3.839843-.734374-5.304687-2.199218l-6.699219-6.699219-6.699218 6.699219c-2.929688 2.929687-7.679688 2.929687-10.605469 0-2.929688-2.929688-2.929688-7.675782 0-10.605469l12-12.003906c2.929687-2.925781 7.679687-2.925781 10.609375 0l12.003906 12.003906c2.925781 2.929687 2.925781 7.679687 0 10.605469-1.464844 1.464844-3.386719 2.199218-5.304688 2.199218zm0 0"/><path d="m141.410156 245.039062c-1.917968 0-3.835937-.734374-5.300781-2.199218l-6.699219-6.699219-6.699218 6.699219c-2.929688 2.929687-7.679688 2.929687-10.609376 0-2.925781-2.929688-2.925781-7.675782 0-10.605469l12.003907-12.003906c2.929687-2.925781 7.679687-2.925781 10.605469 0l12.003906 12.003906c2.929687 2.929687 2.929687 7.679687 0 10.605469-1.464844 1.464844-3.382813 2.199218-5.304688 2.199218zm0 0"/></g><path d="m79.957031 255.589844h236.15625c5.105469 0 8.957031-4.640625 8.023438-9.664063-1.796875-9.625-4.222657-18.824219-7.261719-27.542969-1.550781-4.457031-5.71875-7.46875-10.433594-7.46875h-216.8125c-4.71875 0-8.882812 3.011719-10.433594 7.46875-3.039062 8.71875-5.464843 17.917969-7.261718 27.542969-.9375 5.023438 2.917968 9.664063 8.023437 9.664063zm0 0" fill="#8ee2cf"/><path d="m275.160156 255.589844h40.953125c5.105469 0 8.957031-4.640625 8.023438-9.660156-1.035157-5.535157-2.300781-10.90625-3.742188-16.148438-19.648437-2.71875-37.554687 7.484375-45.234375 25.808594zm0 0" fill="#6fce91"/><path d="m165.21875 255.589844c-.394531-13.1875-4.1875-21.695313-26.402344-22.335938-21.503906-.625-28.003906 12.117188-33.28125 22.335938zm0 0" fill="#6fce91"/><path d="m227.539062 237.539062c14.152344.363282 37.214844-9.695312 45.085938-26.621093h-66.214844c-.820312 17.332031 8.144532 26.289062 21.128906 26.621093zm0 0" fill="#6fce91"/><path d="m244.351562 378.925781c-1.921874 0-3.839843-.730469-5.304687-2.195312l-6.699219-6.699219-6.699218 6.699219c-2.929688 2.929687-7.679688 2.929687-10.605469 0-2.929688-2.929688-2.929688-7.679688 0-10.605469l12-12.003906c1.40625-1.410156 3.316406-2.199219 5.304687-2.199219 1.988282 0 3.898438.789063 5.300782 2.199219l12.003906 12.003906c2.929687 2.925781 2.929687 7.675781 0 10.605469-1.464844 1.464843-3.382813 2.195312-5.300782 2.195312zm0 0" fill="#efd176"/><path d="m175.726562 378.925781c-1.921874 0-3.839843-.730469-5.304687-2.195312l-6.699219-6.699219-6.699218 6.699219c-2.929688 2.929687-7.679688 2.929687-10.609376 0-2.929687-2.929688-2.929687-7.679688 0-10.605469l12.003907-12.003906c1.40625-1.410156 3.316406-2.199219 5.304687-2.199219 1.988282 0 3.894532.789063 5.300782 2.199219l12.003906 12.003906c2.929687 2.925781 2.929687 7.675781 0 10.605469-1.464844 1.464843-3.382813 2.195312-5.300782 2.195312zm0 0" fill="#efd176"/><path d="m147.832031 315.570312c0-12.910156-13.140625-23.375-29.355469-23.375-16.210937 0-29.351562 10.464844-29.351562 23.375 0 12.910157 13.140625 23.375 29.351562 23.375 16.214844 0 29.355469-10.464843 29.355469-23.375zm0 0" fill="#eda1ab"/><path d="m306.945312 315.570312c0-12.910156-13.144531-23.375-29.355468-23.375-16.210938 0-29.355469 10.464844-29.355469 23.375 0 12.910157 13.144531 23.375 29.355469 23.375 16.210937 0 29.355468-10.464843 29.355468-23.375zm0 0" fill="#eda1ab"/><path d="m221.703125 297.609375c0-14.628906-10.597656-16-23.667969-16-13.070312 0-23.667968 1.371094-23.667968 16 0 14.625 10.597656 26.484375 23.667968 26.484375 13.070313 0 23.667969-11.859375 23.667969-26.484375zm0 0" fill="#4e5660"/><path d="m143.980469 170.402344h-26.757813c-11.242187 0-19.621094 10.367187-17.265625 21.355468l1.480469 6.914063c2.492188 11.617187 12.757812 19.914063 24.640625 19.914063h9.046875c11.878906 0 22.148438-8.296876 24.636719-19.914063l1.484375-6.914063c2.355468-10.988281-6.023438-21.355468-17.265625-21.355468zm0 0" fill="#4e5660"/><path d="m252.089844 170.402344h26.757812c11.242188 0 19.621094 10.367187 17.265625 21.355468l-1.484375 6.914063c-2.488281 11.617187-12.753906 19.914063-24.636718 19.914063h-9.046876c-11.882812 0-22.148437-8.296876-24.640624-19.914063l-1.480469-6.914063c-2.355469-10.988281 6.023437-21.355468 17.265625-21.355468zm0 0" fill="#4e5660"/><path d="m394.0625 358.335938c-6.609375 0-12.855469-3.992188-15.40625-10.519532-.457031-1.160156-.832031-2.199218-1.1875-3.179687-.515625-1.414063-.851562-2.347657-1.328125-3.328125-3.960937-8.234375-.503906-18.117188 7.726563-22.082032 8.230468-3.960937 18.117187-.503906 22.082031 7.726563 1.195312 2.484375 1.949219 4.566406 2.617187 6.40625.269532.742187.550782 1.527344.898438 2.40625 3.328125 8.507813-.871094 18.101563-9.378906 21.429687-1.980469.773438-4.015626 1.140626-6.023438 1.140626zm0 0" fill="#efd176"/><path d="m135.585938 268.660156c-11.839844 0-21.472657 9.632813-21.472657 21.472656 0 4.144532 3.359375 7.5 7.5 7.5 4.144531 0 7.5-3.355468 7.5-7.5 0-3.570312 2.902344-6.472656 6.472657-6.472656 3.570312 0 6.472656 2.902344 6.472656 6.472656 0 4.144532 3.355468 7.5 7.5 7.5 4.140625 0 7.5-3.355468 7.5-7.5 0-11.839843-9.632813-21.472656-21.472656-21.472656zm269.632812-88.480468c5.035156 0 10.292969-.878907 15.652344-2.660157 24.523437-8.167969 42.453125-9.1875 53.292968-3.019531 3.597657 2.046875 8.179688.789062 10.226563-2.8125s.789063-8.179688-2.8125-10.226562c-14.902344-8.476563-36.3125-7.878907-65.445313 1.824218-11.800781 3.929688-21.804687 1.824219-28.933593-6.097656-9.734375-10.8125-11.714844-29.84375-4.710938-45.253906 1.710938-3.769532.042969-8.21875-3.726562-9.933594-3.769531-1.710938-8.21875-.042969-9.929688 3.726562-9.511719 20.921876-6.542969 46.210938 7.21875 61.496094 7.679688 8.535156 17.863281 12.960938 29.167969 12.957032zm100.980469 2.667968c-5.339844-5.339844-13.105469-7.160156-20.265625-4.757812l-37.457032 12.589844c-5.480468 1.84375-10.632812 4.6875-15.136718 8.320312-.082032.066406-.164063.132812-.242188.203125-1.261718 1.027344-2.480468 2.109375-3.628906 3.257813l-87.816406 87.8125c-3.890625-2.03125-7.765625-4.261719-11.703125-6.730469-.132813-4.917969-.398438-9.953125-.8125-15.113281-.292969-3.613282-.675781-7.238282-1.136719-10.824219.050781-.058594.109375-.109375.15625-.167969 2.988281-3.597656 4.210938-8.292969 3.351562-12.886719-1.855468-9.957031-4.398437-19.59375-7.550781-28.636719-1.761719-5.0625-5.566406-8.996093-10.277343-11.011718-2.875-6.484375-6.136719-12.683594-9.71875-18.5-.332032-5.121094-2.230469-10.058594-5.546876-14.160156-3.011718-3.726563-6.941406-6.453126-11.339843-7.96875-1.171875-1.242188-2.359375-2.457032-3.566407-3.640626 10.953126-4.789062 20.300782-11.019531 27.886719-18.605468 9.695313-9.691406 17.1875-22.265625 22.269531-37.375 1.324219-3.925782-.789062-8.179688-4.714843-9.5-3.921875-1.320313-8.179688.789062-9.5 4.714844-4.339844 12.894531-10.621094 23.511718-18.664063 31.554687-7.753906 7.757813-17.90625 13.859375-30.195312 18.179687-10.285156-7.613281-21.566406-13.414062-33.664063-17.320312 8.527344-15.667969 12.863281-31.21875 12.863281-46.335938 0-2.402343-.121093-4.777343-.328124-7.128906 9.472656-9.183594 31.042968-23.949218 72.3125-24.828125 1.640624 0 2.699218.789063 3.191406 1.285157.496094.492187 1.320312 1.566406 1.285156 3.191406-.058594 2.773437-.195312 5.597656-.402344 8.390625-.308594 4.128906 2.789063 7.730469 6.921875 8.039062 4.140625.285157 7.726563-2.792969 8.035157-6.921875.230468-3.058594.378906-6.148437.441406-9.1875.117187-5.332031-1.898438-10.34375-5.671875-14.121094-3.773438-3.773437-8.792969-5.773437-14.121094-5.671874-18.296875.386718-50.730469 4.035156-75.234375 22.847656-7.136719-24.558594-23.433594-44.644532-34.183594-55.867188-3.691406-3.851562-8.664062-5.972656-14-5.972656-5.335937 0-10.304687 2.121094-13.996094 5.972656-10.753906 11.222656-27.046874 31.308594-34.1875 55.867188-24.503906-18.8125-56.933593-22.457032-75.230468-22.847656-5.335938-.121094-10.347656 1.898437-14.121094 5.671874-3.773438 3.777344-5.789062 8.789063-5.675781 14.121094.433593 20.375 4.890625 58.28125 29.855469 83.242188 7.585937 7.589844 16.933593 13.816406 27.882812 18.605468-1.207031 1.183594-2.394531 2.398438-3.566406 3.640626-4.394532 1.515624-8.324219 4.242187-11.339844 7.96875-2.945312 3.644531-4.769531 7.949218-5.371094 12.457031-5.996094-4.234375-12.613281-5.367188-18.558594-6.378907-4.527343-.765624-8.800781-1.488281-12.585937-3.484374-3.835937-2.027344-8.402344-1.984376-12.210937.109374-3.796876 2.089844-6.273438 5.914063-6.617188 10.230469-1.121094 14.066407.597656 24.925781 5.480469 33.792969-3.457031 1.695312-6.492188 3.851562-9.339844 5.871094-3.742187 2.660156-7.277344 5.167968-11.367187 6.433594-4.144532 1.28125-7.34375 4.539062-8.554688 8.714843-1.210938 4.164063-.253906 8.617188 2.550781 11.910157 11.035157 12.949218 21.6875 19.691406 33.871094 21.304687-11.039063 6.113281-21.191406 14.183594-29.527344 23.621094-21.816406 24.695312-29.980469 56.355469-22.984375 89.15625 2.347656 11.023437 12.230469 19.027343 23.496094 19.027343 1.679688 0 3.375-.175781 5.027344-.53125 6.28125-1.339843 11.664062-5.042968 15.160156-10.433593 3.492188-5.386719 4.679688-11.8125 3.339844-18.09375-4.789063-22.449219 3.878906-38.105469 11.992187-47.285157 2.003907-2.269531 4.332031-4.476562 6.863281-6.550781 4.171876 26.960938 14.007813 48.941407 29.445313 65.667969 10.53125 11.414062 23.554687 20.183594 38.972656 26.277344 1.398438 10.925781.554688 29.285156-6.027343 50.644531-1.21875 3.957031 1 8.15625 4.960937 9.375.734375.226563 1.476563.335937 2.210937.335937 3.203126 0 6.171876-2.070312 7.164063-5.296874 6.070313-19.703126 7.738281-37.21875 7.148437-50.058594 5.804688 1.503906 11.882813 2.695312 18.242188 3.566406.019531 1.699219.015625 3.414062-.03125 5.148438-.535156 20.003906-5.554688 42.589843-14.136719 63.597656-1.394531 3.417968-4.683593 5.628906-8.375 5.628906-1.167969 0-2.316406-.230469-3.410156-.675781-1.34375-.546875-2.496094-1.375-3.425781-2.457031-2.707032-3.140626-7.441406-3.488282-10.578125-.789063-3.136719 2.707031-3.492188 7.441406-.789063 10.578125 2.460938 2.855469 5.613282 5.121094 9.125 6.554688 2.90625 1.1875 5.960938 1.789062 9.078125 1.789062 9.8125 0 18.554688-5.871094 22.265625-14.957031 9.246094-22.640625 14.65625-47.097657 15.242188-68.867188.035156-1.382812.046875-2.75.042968-4.117187 4.101563.234375 8.296876.355468 12.59375.355468 15.46875 0 29.660157-1.523437 42.539063-4.542968 5.191406 12.636718 4 31.363281-3.398437 46.085937-5.953126 11.84375-1.160157 26.324219 10.6875 32.277344 3.335937 1.675781 7.0625 2.558594 10.78125 2.558594 9.148437 0 17.386718-5.074219 21.492187-13.25 8.460937-16.832031 12.339844-35.738281 11.601563-53.804688 2.660156.84375 5.429687 1.273438 8.195312 1.273438 6.925781 0 13.851562-2.636719 19.125-7.910157l63.949219-63.945312c3.335937 1.71875 7.101562 2.675781 11.058593 2.675781 2.996094 0 5.941407-.554687 8.753907-1.65625 12.34375-4.828125 18.457031-18.800781 13.628906-31.144531-.296875-.757812-.542969-1.4375-.777344-2.082031l-.050781-.148438c-.023438-.058593-.046875-.128906-.070312-.1875l71.035156-71.035156c1.160156-1.160156 2.253906-2.394531 3.289062-3.667969.046875-.054687.09375-.109375.136719-.164062 3.648437-4.515625 6.503906-9.679688 8.355469-15.175782l12.589844-37.460937c2.402343-7.15625.578124-14.921875-4.761719-20.261719zm-176.382813 118.066406c.253906.144532.511719.285157.769532.429688l-.839844.835938c.023437-.421876.050781-.839844.070312-1.265626zm-50.96875-123.011718c3.082032 0 5.960938 1.375 7.898438 3.769531 1.9375 2.398437 2.679687 5.503906 2.03125 8.515625l-1.480469 6.910156c-1.738281 8.105469-9.015625 13.988282-17.304687 13.988282h-9.046876c-8.289062 0-15.566406-5.882813-17.304687-13.988282l-1.480469-6.910156c-.636718-2.957031.074219-6 1.9375-8.382812.324219-.308594.625-.644532.894532-1.007813 1.886718-1.851563 4.417968-2.894531 7.097656-2.894531zm-15.554687-15h-11.203125c-5.8125 0-11.328125 1.976562-15.75 5.539062-9.742188-1.242187-22.46875-2.484375-38.304688-2.484375-15.835937 0-28.5625 1.242188-38.304687 2.484375-4.421875-3.558594-9.9375-5.539062-15.75-5.539062h-11.207031c11.8125-9.082032 25.183593-15.386719 39.746093-18.738282.023438-.007812.050781-.011718.074219-.019531 8.132812-1.867187 16.636719-2.816406 25.441406-2.816406 24.601563 0 46.832032 7.40625 65.257813 21.574219zm-94.769531 19.613281c8.144531-.859375 17.96875-1.5625 29.511718-1.5625 11.542969 0 21.367188.699219 29.511719 1.5625-.792969 3.507813-.832031 7.1875-.054687 10.816406l1.480468 6.910157c.234375 1.082031.523438 2.136718.859375 3.171874h-63.59375c.335938-1.035156.625-2.089843.859375-3.171874l1.480469-6.910157c.777344-3.628906.738281-7.308593-.054687-10.816406zm26.34375-166.164063c1.125-1.175781 2.46875-1.351562 3.167968-1.351562.703125 0 2.042969.175781 3.167969 1.351562 29.21875 30.496094 33.582031 56.691407 33.582031 69.59375 0 13.628907-4.359375 27.917969-12.9375 42.535157-7.679687-1.421875-15.628906-2.152344-23.8125-2.152344-8.179687 0-16.128906.730469-23.8125 2.152344-8.578125-14.617188-12.9375-28.90625-12.9375-42.535157 0-12.902343 4.363282-39.097656 33.582032-69.59375zm-99.582032 115.074219c-21.253906-21.253906-25.078125-54.835937-25.464844-72.960937-.035156-1.625.789063-2.695313 1.285157-3.191406.496093-.492188 1.5625-1.300782 3.191406-1.285157 17.945313.382813 51.03125 4.144531 72.3125 24.84375-.207031 2.34375-.324219 4.714844-.324219 7.113281 0 15.121094 4.332032 30.667969 12.859375 46.339844-12.097656 3.90625-23.378906 9.707032-33.664062 17.316406-12.289063-4.320312-22.441407-10.417968-30.195313-18.175781zm14.035156 50.246094c1.941407-2.394531 4.816407-3.769531 7.902344-3.769531h26.757813c2.667969 0 5.183593 1.035156 7.070312 2.871094.28125.386718.597657.742187.945313 1.0625 1.84375 2.375 2.546875 5.40625 1.914062 8.351562l-1.480468 6.910156c-1.738282 8.105469-9.015626 13.988282-17.304688 13.988282h-9.050781c-8.289063 0-15.5625-5.882813-17.300781-13.988282l-1.484376-6.910156c-.644531-3.011719.097657-6.117188 2.03125-8.515625zm-59.105468 137.058594c-10.394532 11.765625-21.511719 31.789062-15.421875 60.347656.503906 2.363281.058593 4.78125-1.253907 6.804687-1.316406 2.027344-3.339843 3.421876-5.703124 3.925782-.625.132812-1.265626.203125-1.898438.203125-4.230469 0-7.941406-3.011719-8.828125-7.160157-5.976563-28.03125.96875-55.054687 19.558594-76.09375 8.191406-9.273437 18.394531-17.019531 29.4375-22.476562-.171875 7.140625-.050781 14.027344.371093 20.65625-6.132812 3.964844-11.800781 8.746094-16.261718 13.792969zm10.667968-60.128907c-6.710937 0-15.042968-1.738281-26.320312-14.089843 4.941406-2.019531 8.957031-4.871094 12.570312-7.4375 3.9375-2.792969 7.199219-5.09375 10.820313-5.921875 2.574219 1.984375 5.433594 3.5 8.476563 4.507812-.679688 2.933594-1.308594 5.894532-1.867188 8.890625-.816406 4.371094.269531 8.824219 2.949219 12.34375-2.023438 1.105469-4.289063 1.707031-6.628907 1.707031zm11.230469-42.6875c-.597656 1.71875-1.167969 3.460938-1.722656 5.21875-1.726563-.683593-3.308594-1.710937-4.667969-3.066406-.015625-.019531-.03125-.035156-.042968-.050781-.003907 0-.003907 0-.003907-.003906-4.730469-4.746094-9.367187-11.871094-8.609375-28.527344 4.921875 2.066406 9.777344 2.890625 14.148438 3.628906 5.824218.988281 10.421875 1.765625 13.859375 5.007813.117187.113281.230469.234375.34375.351562-1.046875 2.113282-2.058594 4.257813-3.027344 6.433594-4.710937 2.011719-8.515625 5.945312-10.277344 11.007812zm7.542969 32.101563c-.019531-.011719-.039062-.019531-.0625-.035156-.046875-.03125-.097656-.070313-.144531-.128907-.199219-.242187-.15625-.472656-.144531-.546874 1.722656-9.21875 4.066406-18.117188 6.972656-26.453126.507812-1.457031 1.855468-2.4375 3.351562-2.4375h15.492188c5.742187 4.808594 13.101562 7.671876 20.953125 7.671876h9.050781c7.855469 0 15.214844-2.863282 20.957031-7.671876h83.90625c5.742188 4.808594 13.101563 7.671876 20.953125 7.671876h9.050782c7.855468 0 15.214843-2.863282 20.957031-7.671876h15.488281c1.5 0 2.84375.980469 3.351562 2.4375 2.90625 8.332032 5.25 17.234376 6.972657 26.453126.011719.074218.054687.304687-.144531.546874-.046876.058594-.097657.101563-.144532.132813-.015625.007813-.03125.015625-.042968.023437-.140626.078126-.265626.082032-.316407.082032h-236.15625c-.050781 0-.167969-.003906-.300781-.074219zm187.078125 232.796875c-1.542969 3.074219-4.644531 4.984375-8.089844 4.984375-1.414062 0-2.773437-.324219-4.046875-.964844-4.457031-2.238281-6.257812-7.6875-4.019531-12.140625 9.054687-18.019531 10.546875-40.460937 4.4375-57.027344 5.824219-2.058593 11.328125-4.472656 16.503906-7.25 1.375 3.496094 2.488281 7.140626 3.332031 10.902344.019532.09375.046876.183594.066407.273438 4.304687 19.480468 1.542969 41.871094-8.183594 61.222656zm-68.699219-71.398438c-39.746094 0-69.769531-10.699218-89.25-31.804687-15.339844-16.625-24.351562-39.648437-26.960937-68.691406 0-.441407-.042969-.886719-.121094-1.328125-.96875-11.695313-.910156-24.355469.183594-37.960938.175781-2.179687.386719-4.363281.632812-6.539062h231.03125c.242188 2.175781.457031 4.359375.628907 6.539062.496093 6.160156.777343 12.125.847656 17.894532-.003906.152343-.003906.300781.003906.453124.121094 11.667969-.625 22.535157-2.226562 32.582032-.132813.488281-.210938.988281-.238282 1.488281-1.136718 6.691406-2.664062 13.007813-4.574218 18.953125-.175782.410156-.308594.835938-.40625 1.265625-4.628907 13.886719-11.402344 25.691406-20.304688 35.339844-19.476562 21.109375-49.503906 31.808593-89.246094 31.808593zm110.417969 7.082032c-4.699219 4.699218-12.339844 4.695312-17.035156 0l-2.4375-2.4375c-1.171875-4.765625-2.707031-9.378906-4.601563-13.78125 5.019532-3.722656 9.648438-7.867188 13.875-12.441406l19.429688 19.429687zm19.839844-19.835938-20.648438-20.648437c3.898438-5.714844 7.289063-11.894531 10.171875-18.539063l24.832032 24.828125zm74.050781-51.246094c-.96875 2.210938-2.742188 3.914063-4.992188 4.792969-1.058593.417969-2.167968.628907-3.289062.628907-3.75 0-7.054688-2.257813-8.421875-5.753907-.429687-1.097656-.785156-2.078125-1.125-3-.546875-1.507812-.976563-2.699219-1.617187-4.027343-2.164063-4.492188-.269532-9.910157 4.222656-12.070313 1.261718-.609375 2.59375-.894531 3.910156-.894531 3.367188 0 6.605469 1.886718 8.160156 5.117187 1.035156 2.144531 1.691406 3.953125 2.328125 5.710938l.054688.148437c.269531.75.558593 1.546875.90625 2.429688.878906 2.246094.828125 4.707031-.136719 6.917968zm5.585938-28.394531c-7.027344-6.921875-17.929688-9.070312-27.316407-4.550781-5.785156 2.785156-10.140625 7.660156-12.257812 13.722656-2.121094 6.058594-1.753907 12.585938 1.027343 18.367188.300782.621094.546876 1.292968 1.035157 2.640625.375 1.03125.773437 2.125 1.253906 3.347656.253906.648437.535156 1.277344.839844 1.894531l-19.257813 19.253906-29.832031-29.832031c1.464844-5.054687 2.691406-10.328125 3.671875-15.8125l108.679688-108.683593c3.898437 6.722656 8.976562 13.0625 15.90625 19.996093 6.933593 6.933594 13.273437 12.007813 19.996093 15.90625zm76.214843-81.226562c-.671875 2.003906-1.550781 3.945312-2.589843 5.792969-6.484376-3.375-12.382813-7.949219-19.265626-14.832032-6.882812-6.878906-11.453124-12.78125-14.828124-19.265625 1.847656-1.039062 3.785156-1.914062 5.792968-2.589843l12.773438-4.292969c2.914062 3.863281 6.332031 7.738281 10.5 11.910156 4.175781 4.171875 8.050781 7.589844 11.910156 10.5zm12.59375-37.460938-3.203125 9.53125c-2.058594-1.765625-4.171875-3.726562-6.398437-5.953125-2.230469-2.230468-4.191407-4.339844-5.953125-6.398437l9.527344-3.203125c2.523437-.847656 4.253906.519531 4.878906 1.148437.628906.621094 1.996094 2.355469 1.148437 4.875zm-236.257812 70.328125c-11.839844 0-21.46875 9.632813-21.46875 21.472656 0 4.144532 3.355469 7.5 7.5 7.5 4.140625 0 7.5-3.355468 7.5-7.5 0-3.570312 2.902343-6.472656 6.46875-6.472656 3.570312 0 6.476562 2.902344 6.476562 6.472656 0 4.144532 3.355469 7.5 7.5 7.5 4.140625 0 7.5-3.355468 7.5-7.5 0-11.839843-9.636719-21.472656-21.476562-21.472656zm-42.320313 8.773438c-5.441406-2.761719-11.980468-3.324219-20.125-3.324219-8.144531 0-14.683594.566406-20.128906 3.324219-5.035156 2.554687-11.039062 8.128906-11.039062 20.175781 0 18.738281 13.980468 33.984375 31.167968 33.984375 17.183594 0 31.164063-15.246094 31.164063-33.984375.003906-12.046875-6-17.621094-11.039063-20.175781zm-20.125 39.160156c-8.914062 0-16.167968-8.519531-16.167968-18.984375 0-5.894531.65625-8.5 16.167968-8.5 15.511719 0 16.167969 2.605469 16.167969 8.5 0 10.46875-7.253906 18.984375-16.167969 18.984375zm0 0"/></svg>