<svg height="512pt" viewBox="-24 0 512 512.001" width="512pt" xmlns="http://www.w3.org/2000/svg"><path d="m160.519531 504.5c-6.632812 0-12.894531-4.019531-15.429687-10.578125-19.394532-50.144531-7.980469-97.90625 6.324218-115.804687 5.703126-7.136719 16.113282-8.296876 23.25-2.59375 7.136719 5.703124 8.296876 16.113281 2.59375 23.246093-6.644531 8.316407-16.457031 44.066407-1.3125 83.214844 3.292969 8.523437-.941406 18.101563-9.460937 21.398437-1.960937.757813-3.980469 1.117188-5.964844 1.117188zm0 0" fill="#efd176"/><path d="m260.804688 504.5c-1.121094 0-2.257813-.113281-3.398438-.355469-8.945312-1.867187-14.675781-10.628906-12.808594-19.574219 5.785156-27.691406-1.445312-81.46875-3.8125-92.714843-1.882812-8.9375 3.832032-17.710938 12.773438-19.597657 8.933594-1.878906 17.710937 3.835938 19.597656 12.773438 2.03125 9.644531 11.367188 70.199219 3.824219 106.304688-1.628907 7.804687-8.507813 13.164062-16.175781 13.164062zm0 0" fill="#efd176"/><path d="m356.074219 351.222656c-25.246094 0-48.726563-11.191406-63.132813-22.753906-7.125-5.71875-8.261718-16.128906-2.542968-23.253906s16.128906-8.265625 23.253906-2.542969c13.230468 10.621094 35.226562 19.054687 54.539062 13.9375 15.90625-4.210937 28.265625-17.210937 36.742188-38.636719 3.359375-8.5 12.972656-12.660156 21.464844-9.300781 8.496093 3.359375 12.65625 12.972656 9.296874 21.464844-15.632812 39.53125-40.734374 53.605469-59.039062 58.453125-6.890625 1.824218-13.800781 2.632812-20.582031 2.632812zm0 0" fill="#efd176"/><path d="m101.738281 332.113281c-2 0-4.035156-.363281-6.011719-1.136719-48.835937-19.0625-77.636718-62.925781-88.046874-134.089843-1.320313-9.039063 4.933593-17.4375 13.972656-18.761719 9.050781-1.316406 17.4375 4.933594 18.761718 13.972656 8.65625 59.167969 30.058594 93.503906 67.34375 108.0625 8.511719 3.324219 12.714844 12.914063 9.394532 21.425782-2.550782 6.53125-8.800782 10.527343-15.414063 10.527343zm0 0" fill="#efd176"/><path d="m165.179688 74.144531c23.269531 23.273438 27.257812 59.507813 27.65625 78.101563.144531 6.757812-5.378907 12.285156-12.136719 12.140625-18.59375-.398438-54.828125-4.386719-78.101563-27.660157-23.273437-23.273437-27.261718-59.507812-27.65625-78.101562-.144531-6.757812 5.378906-12.28125 12.136719-12.136719 18.59375.398438 54.828125 4.382813 78.101563 27.65625zm0 0" fill="#8ee2cf"/><path d="m147.84375 126.894531c-1.917969 0-3.839844-.734375-5.304688-2.199219l-27.910156-27.910156c-2.929687-2.929687-2.929687-7.679687 0-10.605468 2.929688-2.929688 7.675782-2.929688 10.605469 0l27.914063 27.910156c2.925781 2.929687 2.925781 7.679687 0 10.605468-1.464844 1.464844-3.386719 2.199219-5.304688 2.199219zm0 0" fill="#6fce91"/><path d="m256.128906 74.144531c-23.273437 23.273438-27.261718 59.507813-27.660156 78.101563-.144531 6.757812 5.382812 12.285156 12.136719 12.140625 18.597656-.398438 54.828125-4.386719 78.101562-27.660157 23.273438-23.273437 27.261719-59.507812 27.660157-78.101562.144531-6.757812-5.378907-12.28125-12.136719-12.136719-18.597657.398438-54.828125 4.382813-78.101563 27.65625zm0 0" fill="#8ee2cf"/><path d="m273.460938 126.894531c-1.917969 0-3.839844-.734375-5.304688-2.199219-2.925781-2.929687-2.925781-7.675781.003906-10.605468l27.910156-27.910156c2.929688-2.929688 7.679688-2.929688 10.609376 0 2.929687 2.929687 2.929687 7.675781 0 10.605468l-27.914063 27.914063c-1.464844 1.460937-3.386719 2.195312-5.304687 2.195312zm0 0" fill="#6fce91"/><path d="m254.902344 85.945312c0 32.910157-22.800782 61.351563-35.667969 74.78125-4.675781 4.882813-12.488281 4.882813-17.164063 0-12.867187-13.429687-35.667968-41.867187-35.667968-74.78125 0-32.914062 22.800781-61.355468 35.667968-74.785156 4.675782-4.878906 12.488282-4.878906 17.164063 0 12.871094 13.429688 35.667969 41.871094 35.667969 74.785156zm0 0" fill="#8ee2cf"/><path d="m210.652344 113.179688c-4.140625 0-7.5-3.355469-7.5-7.5v-39.472657c0-4.144531 3.359375-7.5 7.5-7.5 4.144531 0 7.5 3.355469 7.5 7.5v39.472657c0 4.144531-3.355469 7.5-7.5 7.5zm0 0" fill="#6fce91"/><path d="m210.652344 133.828125c68.277344 0 117.082031 53.773437 123.625 135.203125 6.804687 84.703125-25.054688 147.882812-123.625 147.882812-98.566406 0-130.429688-63.179687-123.621094-147.882812 6.539062-81.429688 55.347656-135.203125 123.621094-135.203125zm0 0" fill="#f7ef87"/><g fill="#efd176"><path d="m169.839844 140.925781c-46.359375 17.113281-77.664063 64.046875-82.8125 128.101563-6.785156 84.46875 24.886718 147.53125 122.8125 147.878906-118.855469-72.71875-86.984375-203.921875-40-275.980469zm0 0"/><path d="m198.648438 238.238281c-1.917969 0-3.835938-.730469-5.300782-2.195312-2.929687-2.929688-2.929687-7.675781 0-10.605469l12.003906-12.003906c1.40625-1.40625 3.3125-2.195313 5.300782-2.195313 1.992187 0 3.898437.789063 5.304687 2.195313l12.003907 12.003906c2.929687 2.929688 2.929687 7.679688 0 10.605469-2.929688 2.929687-7.679688 2.929687-10.605469 0l-6.699219-6.699219-6.703125 6.699219c-1.464844 1.464843-3.382813 2.195312-5.304687 2.195312zm0 0"/><path d="m291.285156 238.238281c-1.921875 0-3.839844-.730469-5.304687-2.195312l-6.699219-6.699219-6.699219 6.699219c-2.929687 2.929687-7.679687 2.929687-10.605469 0-2.933593-2.929688-2.933593-7.675781-.003906-10.605469l12.003906-12.003906c1.40625-1.40625 3.3125-2.195313 5.304688-2.195313 1.988281 0 3.898438.789063 5.304688 2.195313l12.003906 12.003906c2.929687 2.929688 2.929687 7.675781 0 10.605469-1.46875 1.464843-3.386719 2.195312-5.304688 2.195312zm0 0"/><path d="m130.023438 238.238281c-1.917969 0-3.839844-.730469-5.304688-2.195312-2.929688-2.929688-2.929688-7.675781 0-10.605469l12.003906-12.003906c1.40625-1.40625 3.316406-2.195313 5.304688-2.195313 1.988281 0 3.898437.789063 5.304687 2.195313l12.003907 12.003906c2.929687 2.929688 2.929687 7.679688-.003907 10.605469-2.925781 2.929687-7.675781 2.929687-10.605469 0l-6.699218-6.699219-6.699219 6.699219c-1.464844 1.464843-3.386719 2.195312-5.304687 2.195312zm0 0"/><path d="m256.96875 378.925781c-1.917969 0-3.839844-.730469-5.304688-2.195312l-6.699218-6.699219-6.699219 6.699219c-2.929687 2.929687-7.679687 2.929687-10.605469 0-2.929687-2.929688-2.929687-7.675781 0-10.605469l12.003906-12.003906c1.40625-1.40625 3.3125-2.199219 5.300782-2.199219 1.992187 0 3.898437.792969 5.304687 2.195313l12.003907 12.003906c2.929687 2.933594 2.929687 7.679687 0 10.609375-1.464844 1.464843-3.382813 2.195312-5.304688 2.195312zm0 0"/><path d="m188.34375 378.925781c-1.917969 0-3.839844-.730469-5.304688-2.195312l-6.699218-6.699219-6.699219 6.699219c-2.929687 2.929687-7.679687 2.929687-10.605469 0-2.929687-2.929688-2.929687-7.675781 0-10.605469l12-12.003906c1.40625-1.40625 3.316406-2.199219 5.304688-2.199219 1.992187 0 3.898437.792969 5.304687 2.195313l12.003907 12.003906c2.929687 2.933594 2.929687 7.679687 0 10.609375-1.464844 1.464843-3.386719 2.195312-5.304688 2.195312zm0 0"/></g><path d="m160.453125 315.570312c0-12.910156-13.144531-23.375-29.355469-23.375-16.214844 0-29.355468 10.464844-29.355468 23.375 0 12.910157 13.140624 23.375 29.355468 23.375 16.210938 0 29.355469-10.464843 29.355469-23.375zm0 0" fill="#eda1ab"/><path d="m319.566406 315.570312c0-12.910156-13.144531-23.375-29.355468-23.375-16.214844 0-29.355469 10.464844-29.355469 23.375 0 12.910157 13.140625 23.375 29.355469 23.375 16.210937 0 29.355468-10.464843 29.355468-23.375zm0 0" fill="#eda1ab"/><path d="m230.984375 300.210938c0-13.691407-9.101563-24.792969-20.332031-24.792969-11.226563 0-20.332032 11.101562-20.332032 24.792969 0 13.691406 9.105469 24.792968 20.332032 24.792968 11.230468 0 20.332031-11.101562 20.332031-24.792968zm0 0" fill="#4e5660"/><path d="m449.898438 152.726562c0-22.664062-19.078126-40.875-42.050782-39.445312-19.914062 1.238281-36.023437 17.617188-36.953125 37.546875-.511719 10.882813 3.386719 20.851563 10.058594 28.277344 6.171875 6.871093 9.753906 15.667969 9.753906 24.902343v4.589844h39.332031v-4.582031c0-9 3.164063-17.8125 9.289063-24.402344 6.554687-7.050781 10.570313-16.5 10.570313-26.886719zm0 0" fill="#f7ef87"/><path d="m399.949219 178.324219c-3.035157 0-5.890625-1.855469-7.019531-4.863281l-2.289063-6.097657c-1.457031-3.878906.507813-8.203125 4.382813-9.65625 3.882812-1.457031 8.203124.507813 9.660156 4.382813l2.289062 6.097656c1.453125 3.878906-.511718 8.203125-4.386718 9.660156-.871094.324219-1.761719.476563-2.636719.476563zm0 0" fill="#efd176"/><path d="m420.796875 178.324219c-.878906 0-1.769531-.152344-2.636719-.476563-3.878906-1.457031-5.839844-5.78125-4.386718-9.660156l2.289062-6.097656c1.457031-3.875 5.777344-5.839844 9.660156-4.382813 3.875 1.453125 5.839844 5.777344 4.382813 9.65625l-2.289063 6.097657c-1.128906 3.007812-3.984375 4.863281-7.019531 4.863281zm0 0" fill="#efd176"/><path d="m431.578125 216.242188c0 21.964843-12.605469 31.484374-21.207031 31.484374-8.597656 0-21.203125-9.519531-21.203125-31.484374zm0 0" fill="#4e5660"/><path d="m432.882812 226.136719h-45.019531c-3.308593 0-5.992187-2.683594-5.992187-5.992188v-16.636719c0-3.308593 2.683594-5.992187 5.992187-5.992187h45.019531c3.308594 0 5.992188 2.683594 5.992188 5.992187v16.636719c0 3.308594-2.683594 5.992188-5.992188 5.992188zm0 0" fill="#c6c6c6"/><path d="m438.875 220.144531v-12.613281c-7.210938 3.246094-17.261719 6.011719-28.503906 6.011719-11.238282 0-21.289063-2.765625-28.5-6.011719v12.613281c0 3.308594 2.683594 5.992188 5.992187 5.992188h45.019531c3.308594 0 5.992188-2.683594 5.992188-5.992188zm0 0" fill="#9aa3b1"/><path d="m462.613281 100.484375c-2.929687-2.929687-7.675781-2.929687-10.605469 0l-7.003906 7.003906c-2.929687 2.929688-2.929687 7.675781 0 10.605469 1.464844 1.464844 3.386719 2.195312 5.304688 2.195312 1.917968 0 3.839844-.730468 5.304687-2.195312l7.003907-7.003906c2.925781-2.929688 2.925781-7.675782-.003907-10.605469zm-97.476562 17.609375c1.464843 1.464844 3.382812 2.195312 5.304687 2.195312 1.917969 0 3.835938-.730468 5.300782-2.195312 2.929687-2.929688 2.929687-7.675781 0-10.605469l-7.003907-7.003906c-2.929687-2.929687-7.675781-2.929687-10.605469 0-2.929687 2.929687-2.929687 7.675781 0 10.605469zm45.234375-14.34375c4.144531 0 7.5-3.355469 7.5-7.5v-9.902344c0-4.144531-3.355469-7.5-7.5-7.5-4.140625 0-7.5 3.355469-7.5 7.5v9.902344c0 4.144531 3.359375 7.5 7.5 7.5zm-199.71875 164.167969c-15.34375 0-27.832032 14.484375-27.832032 32.292969 0 17.804687 12.488282 32.292968 27.832032 32.292968 15.347656 0 27.832031-14.488281 27.832031-32.292968 0-17.808594-12.484375-32.292969-27.832031-32.292969zm0 49.585937c-6.953125 0-12.832032-7.921875-12.832032-17.292968 0-9.375 5.878907-17.292969 12.832032-17.292969 6.957031 0 12.832031 7.917969 12.832031 17.292969 0 9.371093-5.875 17.292968-12.832031 17.292968zm62.449218-43.121094c-4.144531 0-7.5 3.359376-7.5 7.5v10.367188c0 4.144531 3.355469 7.5 7.5 7.5 4.144532 0 7.5-3.355469 7.5-7.5v-10.367188c0-4.140624-3.359374-7.5-7.5-7.5zm156.058594-12.683593c-5.972656-2.363281-12.507812-2.257813-18.402344.292969-5.890624 2.554687-10.4375 7.25-12.800781 13.222656-7.546875 19.085937-18.210937 30.574218-31.6875 34.144531-8.683593 2.300781-17.386719 1.203125-24.332031-.6875 1.023438-12.480469.96875-25.898437-.183594-40.242187-3.347656-41.679688-17.386718-77.152344-40.597656-102.589844-1.636719-1.796875-3.316406-3.527344-5.027344-5.207032 10.949219-4.789062 20.300782-11.015624 27.886719-18.601562 24.960937-24.960938 29.417969-62.871094 29.851563-83.246094.113281-5.332031-1.902344-10.347656-5.675782-14.121094-3.773437-3.773437-8.804687-5.800781-14.117187-5.675781-18.300781.394531-50.734375 4.039063-75.234375 22.851563-7.136719-24.558594-23.433594-44.648438-34.1875-55.867188-3.691406-3.851562-8.660156-5.972656-14-5.972656-5.335938 0-10.304688 2.121094-13.996094 5.972656-10.75 11.21875-27.046875 31.308594-34.1875 55.867188-24.503906-18.8125-56.933594-22.457032-75.230469-22.851563-5.300781-.121093-10.347656 1.902344-14.121093 5.675781-3.773438 3.773438-5.789063 8.789063-5.675782 14.121094.078125 3.5625.265625 7.167969.5625 10.722656.347656 4.128907 3.992188 7.191407 8.101563 6.847657 4.125-.34375 7.191406-3.96875 6.847656-8.097657-.269531-3.246093-.445313-6.542968-.515625-9.792968-.035156-1.625.792969-2.699219 1.285156-3.191406.496094-.496094 1.578125-1.277344 3.191406-1.285157 41.277344.878907 62.84375 15.644531 72.316407 24.832031-.210938 2.347657-.328125 4.722657-.328125 7.125 0 15.117188 4.332031 30.667969 12.859375 46.339844-12.097657 3.902344-23.378907 9.703125-33.664063 17.316406-12.289062-4.320312-22.441406-10.421874-30.195312-18.175781-7.761719-7.761719-13.886719-17.925781-18.203125-30.214843-1.375-3.910157-5.660157-5.964844-9.5625-4.589844-3.910157 1.371094-5.964844 5.652344-4.589844 9.5625 5.066406 14.425781 12.386719 26.488281 21.746094 35.847656 7.585937 7.585938 16.9375 13.816406 27.886719 18.605469-1.710938 1.675781-3.390626 3.40625-5.027344 5.203125-23.210938 25.4375-37.25 60.914062-40.597656 102.589844-.089844 1.09375-.160157 2.175781-.238282 3.257812-15.804687-17.695312-26.15625-44.269531-31.484375-80.671875-1.917969-13.105469-14.144531-22.21875-27.269531-20.308594-13.117188 1.917969-22.226562 14.152344-20.308594 27.269531 10.128906 69.226563 37.261719 113.644532 82.878906 135.660157 4.976563 21.761719 14.070313 39.871093 27.246094 54.148437 6.148438 6.660156 13.152344 12.417969 20.980469 17.273438-4.226563 17.140625-8.800781 51.414062 6.734375 91.570312 3.554688 9.195313 12.566406 15.371094 22.425781 15.371094 2.96875 0 5.886719-.546875 8.667969-1.621094 5.992188-2.316406 10.71875-6.828125 13.316406-12.699218 2.597656-5.875 2.75-12.40625.433594-18.398438-9.457031-24.445312-7.953125-46.054688-5.953125-57.601562 10.445313 1.816406 21.667969 2.738281 33.667969 2.738281 9.394531 0 18.3125-.566407 26.757812-1.679688 1.589844 16.339844 3.359375 43.46875-.15625 60.300781-2.710937 12.976563 5.640625 25.738282 18.609375 28.449219 1.625.339844 3.289063.511719 4.941407.511719 8.363281 0 16.246093-4.453125 20.570312-11.621094 2.140625-3.546875 1-8.15625-2.546875-10.296875s-8.160156-1-10.296875 2.546875c-1.949219 3.230469-5.855469 4.964844-9.59375 4.175782-4.882812-1.019532-8.023438-5.816407-7-10.699219 3.925781-18.804688 2.179688-47.1875.285156-66 6.183594-1.40625 12.058594-3.160157 17.636719-5.25 1.378906 12.683593 2.800781 30.394531 2.464844 47.339843-.082031 4.144532 3.207031 7.566407 7.347656 7.648438.054687.003906.105469.003906.152344.003906 4.074219 0 7.414062-3.261718 7.496093-7.351562.402344-20.027344-1.539062-40.929688-3.105468-54.128906 10.179687-5.472657 19.09375-12.335938 26.707031-20.585938 8.472656-9.183594 15.261719-19.949219 20.351563-32.257812 8.328124 2.117187 16.640624 3.199218 24.796874 3.199218 7.707032 0 15.277344-.96875 22.503907-2.882812 19.972656-5.289063 47.308593-20.5 64.09375-62.941406 4.878906-12.328126-1.183594-26.324219-13.507813-31.199219zm-414.058594-65.894531c-.722656-4.9375 2.703126-9.535157 7.628907-10.257813 4.933593-.71875 9.539062 2.710937 10.261719 7.636719 6.828124 46.675781 21.78125 78.980468 45.652343 98.605468.046875 8.03125.492188 15.71875 1.328125 23.066407-35.007812-21.28125-56.289062-60.394531-64.871094-119.050781zm247.304688-109.859376c0-2.398437-.121094-4.769531-.328125-7.113281 21.28125-20.699219 54.367187-24.460937 72.3125-24.847656 1.605469.007813 2.695313.792969 3.191406 1.285156.496094.496094 1.320313 1.570313 1.285157 3.195313-.386719 18.125-4.210938 51.707031-25.460938 72.957031-7.757812 7.757813-17.910156 13.859375-30.199219 18.179687-10.285156-7.613281-21.566406-13.414062-33.664062-17.320312 8.527343-15.667969 12.863281-31.21875 12.863281-46.335938zm-54.917969-69.597656c1.125-1.171875 2.464844-1.347656 3.164063-1.347656.703125 0 2.042968.175781 3.167968 1.347656 29.222657 30.5 33.585938 56.695313 33.585938 69.597656 0 13.628907-4.359375 27.917969-12.941406 42.535157-7.679688-1.421875-15.628906-2.152344-23.8125-2.152344-8.179688 0-16.128906.730469-23.8125 2.152344-8.578125-14.617188-12.9375-28.90625-12.9375-42.535157 0-12.902343 4.363281-39.097656 33.585937-69.597656zm-38.703125 475.261719c-.976562 2.210937-2.753906 3.90625-5.007812 4.777344-1.050782.40625-2.148438.613281-3.257813.613281-3.707031 0-7.097656-2.324219-8.4375-5.785156-13.054687-33.75-10.457031-62.699219-6.992187-78.949219 5.429687 2.394531 11.167968 4.441406 17.226562 6.128906-2.542968 13.832031-4.199218 38.289063 6.632813 66.296875.871093 2.253906.816406 4.710938-.164063 6.917969zm157.71875-179.074219c-.078125.402344-.125.800782-.136718 1.199219-1.253907 10.710937-3.421876 20.5625-6.5 29.527344-.125.269531-.238282.546875-.332032.839843-.046875.148438-.082031.296876-.121094.441407-4.59375 12.902343-11.097656 23.949219-19.511718 33.066406-19.476563 21.105469-49.503906 31.804687-89.25 31.804687-39.742188 0-69.769532-10.699218-89.246094-31.804687-11.882812-12.875-19.960938-29.585937-24.21875-49.957031-.054688-.492188-.15625-.976563-.304688-1.449219-3.277343-16.519531-4.078124-35.402344-2.378906-56.574219 3.082032-38.328125 15.78125-70.726562 36.726563-93.683594 3.980469-4.359374 8.214843-8.320312 12.679687-11.882812.019532-.011719.035156-.027344.050782-.039062 18.703124-14.898438 41.449218-22.695313 66.691406-22.695313 25.242187 0 47.992187 7.796875 66.695312 22.695313.015625.011718.03125.027343.050782.039062 4.460937 3.5625 8.699218 7.523438 12.675781 11.882812 20.949219 22.957032 33.648437 55.355469 36.730469 93.683594 1.246093 15.546875 1.140624 29.855469-.300782 42.90625zm102.21875-25.152344c-14.484375 36.617188-37.351562 49.554688-53.984375 53.957032-12.039062 3.1875-25.203125 3.136718-38.53125-.046875 1.601563-5.605469 2.894531-11.480469 3.902344-17.609375 8.597656 2.078125 19.15625 3.050781 30 .175781 18.335937-4.855469 32.398437-19.367187 41.796875-43.132813.890625-2.246093 2.597656-4.011718 4.816406-4.96875 2.214844-.960937 4.671875-1 6.917969-.109374 4.636719 1.832031 6.914063 7.09375 5.082031 11.734374zm-280.519531-13c-4.140625 0-7.5 3.359376-7.5 7.5v10.367188c0 4.144531 3.359375 7.5 7.5 7.5 4.144531 0 7.5-3.355469 7.5-7.5v-10.367188c0-4.140624-3.355469-7.5-7.5-7.5zm309.195313-121.65625c0-12.925781-5.40625-25.417968-14.828126-34.273437-9.554687-8.976563-22.066406-13.476563-35.1875-12.65625-23.558593 1.464844-42.878906 21.089844-43.980468 44.683594-.582032 12.449219 3.667968 24.394531 11.972656 33.640625 2.183594 2.429687 3.933594 5.148437 5.230469 8.03125-3.742188 2.402344-6.234375 6.589844-6.234375 11.359375v16.632812c0 6.199219 4.203125 11.417969 9.902344 12.996094 5.105468 15.128906 16.644531 22.089844 26.097656 22.089844s20.992187-6.960938 26.097656-22.089844c5.699219-1.578125 9.902344-6.796875 9.902344-12.996094v-16.632812c0-4.816407-2.542969-9.039063-6.347656-11.425781 1.203124-2.730469 2.804687-5.222657 4.796874-7.363282 8.109376-8.726562 12.578126-20.085937 12.578126-31.996094zm-47.027344 87.5c-2.136719 0-6.183594-1.769531-9.332032-6.589843h18.664063c-3.144531 4.820312-7.191406 6.589843-9.332031 6.589843zm21.003906-21.589843h-42.003906v-13.621094h.703125c.007812 0 .015625.003906.023437.003906.007813 0 .015625-.003906.023438-.003906h41.253906zm2.460938-44.128907c-4.097657 4.40625-7.171876 9.6875-9.078126 15.507813h-28.878906c-1.964844-5.808594-5.132812-11.230469-9.34375-15.917969-5.652344-6.292968-8.546875-14.433594-8.148437-22.917968.75-16.058594 13.894531-29.417969 29.925781-30.414063 8.96875-.558594 17.480469 2.503906 23.984375 8.617187 6.515625 6.121094 10.101563 14.410157 10.101563 23.34375 0 8.105469-3.042969 15.84375-8.5625 21.78125zm0 0"/></svg>