<svg height="512pt" viewBox="-32 0 512 512.0017" width="512pt" xmlns="http://www.w3.org/2000/svg"><path d="m345.097656 327.113281c-19.527344 0-39.804687-5.136719-57.886718-15.0625-8.566407-4.703125-11.699219-15.457031-7-24.023437 4.703124-8.566406 15.460937-11.699219 24.023437-7 7.3125 4.011718 33.292969 16.4375 60.632813 7.816406 17.882812-5.636719 32.324218-19.390625 42.921874-40.878906 4.320313-8.761719 14.933594-12.363282 23.691407-8.042969 8.765625 4.324219 12.367187 14.929687 8.042969 23.695313-14.820313 30.050781-36.957032 50.445312-64.019532 58.976562-9.609375 3.03125-19.898437 4.519531-30.40625 4.519531zm0 0" fill="#efd176"/><path d="m105.691406 86.355469c28.839844 20.191406 39.769532 57.617187 43.644532 77.132812 1.40625 7.089844-3.386719 13.9375-10.53125 15.039063-19.664063 3.035156-58.570313 5.566406-87.410157-14.628906-28.839843-20.191407-39.769531-57.621094-43.640625-77.132813-1.410156-7.09375 3.382813-13.9375 10.527344-15.039063 19.664062-3.035156 58.570312-5.566406 87.410156 14.628907zm0 0" fill="#8ee2cf"/><path d="m95.832031 144.738281c-1.488281 0-2.988281-.441406-4.296875-1.359375l-34.585937-24.21875c-3.394531-2.375-4.21875-7.050781-1.84375-10.445312 2.375-3.394532 7.054687-4.214844 10.445312-1.839844l34.589844 24.21875c3.390625 2.375 4.214844 7.050781 1.839844 10.445312-1.457031 2.082032-3.785157 3.199219-6.148438 3.199219zm0 0" fill="#6fce91"/><path d="m201.5 69.460938c-20.195312 28.839843-17.664062 67.746093-14.628906 87.410156 1.101562 7.144531 7.949218 11.9375 15.039062 10.53125 19.515625-3.875 56.941406-14.804688 77.136719-43.644532 20.191406-28.839843 17.664063-67.746093 14.628906-87.410156-1.105469-7.144531-7.949219-11.9375-15.042969-10.53125-19.511718 3.875-56.941406 14.804688-77.132812 43.644532zm0 0" fill="#8ee2cf"/><path d="m228.15625 121.402344c-1.484375 0-2.984375-.4375-4.292969-1.355469-3.394531-2.375-4.21875-7.050781-1.84375-10.445313l24.21875-34.585937c2.375-3.394531 7.054688-4.21875 10.445313-1.84375 3.394531 2.375 4.21875 7.054687 1.84375 10.445313l-24.21875 34.589843c-1.460938 2.082031-3.789063 3.195313-6.152344 3.195313zm0 0" fill="#6fce91"/><path d="m202.402344 82.117188c6.113281 34.667968-12.621094 68.863281-23.683594 85.402343-4.019531 6.007813-12.25 7.457031-18.082031 3.1875-16.046875-11.757812-45.347657-37.480469-51.464844-72.152343-6.113281-34.671876 12.625-68.867188 23.683594-85.402344 4.019531-6.007813 12.25-7.460938 18.082031-3.1875 16.050781 11.753906 45.351562 37.480468 51.464844 72.152344zm0 0" fill="#8ee2cf"/><path d="m159.445312 118.628906c-3.570312 0-6.738281-2.5625-7.378906-6.199218l-7.332031-41.582032c-.71875-4.078125 2.003906-7.96875 6.085937-8.6875 4.082032-.71875 7.96875 2.003906 8.6875 6.082032l7.332032 41.582031c.71875 4.078125-2.003906 7.96875-6.082032 8.6875-.441406.078125-.878906.117187-1.3125.117187zm0 0" fill="#6fce91"/><path d="m164.683594 140.777344c71.921875-12.683594 133.320312 34.894531 155.335937 119.457031 22.902344 87.964844 1.074219 160.4375-102.753906 178.746094-103.832031 18.308593-149.132813-42.332031-157.695313-132.820313-8.234374-86.992187 33.191407-152.703125 105.113282-165.382812zm0 0" fill="#f7ef87"/><g fill="#efd176"><path d="m123.003906 155.832031c-45.652344 26.640625-69.914062 81.894531-63.433594 150.328125 8.539063 90.238282 53.617188 150.785156 156.835938 132.964844-138.714844-54.527344-129.507812-198.65625-93.402344-283.292969zm0 0"/><path d="m171.292969 259.753906c-1.484375 0-2.984375-.441406-4.292969-1.359375-3.394531-2.375-4.21875-7.050781-1.84375-10.441406l10.414062-14.875c2.375-3.394531 7.054688-4.21875 10.445313-1.84375l14.875 10.417969c3.394531 2.375 4.21875 7.050781 1.839844 10.441406-2.375 3.394531-7.050781 4.21875-10.441407 1.84375l-8.730468-6.113281-6.113282 8.730469c-1.460937 2.082031-3.789062 3.199218-6.152343 3.199218zm0 0"/><path d="m243.585938 247.007812c-1.488282 0-2.988282-.441406-4.296876-1.359374-3.390624-2.375-4.21875-7.050782-1.839843-10.445313l10.414062-14.871094c2.375-3.394531 7.050781-4.21875 10.445313-1.84375l14.871094 10.414063c3.394531 2.378906 4.21875 7.054687 1.84375 10.445312-2.378907 3.394532-7.054688 4.21875-10.445313 1.84375l-8.730469-6.113281-6.113281 8.730469c-1.457031 2.082031-3.785156 3.199218-6.148437 3.199218zm0 0"/><path d="m99.003906 272.5c-1.488281 0-2.988281-.4375-4.296875-1.355469-3.390625-2.375-4.21875-7.054687-1.839843-10.445312l10.414062-14.875c2.375-3.390625 7.050781-4.21875 10.445312-1.839844l14.871094 10.414063c3.394532 2.375 4.21875 7.050781 1.84375 10.445312s-7.050781 4.214844-10.445312 1.839844l-8.730469-6.113282-6.113281 8.730469c-1.457032 2.085938-3.785156 3.199219-6.148438 3.199219zm0 0"/><path d="m232.308594 394.417969c-1.488282 0-2.988282-.441407-4.296875-1.355469-3.390625-2.378906-4.214844-7.054688-1.839844-10.445312l10.414063-14.875c2.375-3.394532 7.054687-4.21875 10.445312-1.839844l14.875 10.414062c3.390625 2.375 4.21875 7.050782 1.839844 10.445313-2.375 3.394531-7.050782 4.214843-10.445313 1.839843l-8.730469-6.113281-6.113281 8.730469c-1.457031 2.085938-3.785156 3.199219-6.148437 3.199219zm0 0"/><path d="m160.019531 407.167969c-1.488281 0-2.988281-.441407-4.296875-1.359375-3.390625-2.375-4.21875-7.054688-1.839844-10.445313l10.414063-14.875c2.375-3.390625 7.050781-4.214843 10.445313-1.839843l14.871093 10.414062c3.394531 2.375 4.21875 7.054688 1.84375 10.445312-2.378906 3.390626-7.054687 4.214844-10.445312 1.839844l-8.730469-6.113281-6.113281 8.730469c-1.460938 2.085937-3.785157 3.203125-6.148438 3.203125zm0 0"/></g><path d="m142.945312 326.851562c-2.394531-13.597656-18.183593-22.183593-35.261718-19.171874-17.078125 3.011718-28.980469 16.476562-26.582032 30.074218 2.398438 13.601563 18.1875 22.183594 35.261719 19.175782 17.078125-3.011719 28.980469-16.476563 26.582031-30.078126zm0 0" fill="#eda1ab"/><path d="m248.746094 308.183594c2.398437 13.601562 18.183594 22.183594 35.261718 19.175781 17.078126-3.011719 28.980469-16.476563 26.582032-30.078125-2.394532-13.597656-18.183594-22.183594-35.261719-19.171875-17.078125 3.007813-28.980469 16.476563-26.582031 30.074219zm0 0" fill="#eda1ab"/><path d="m114.535156 189.34375-28.1875 4.96875c-11.84375 2.085938-18.746094 14.5625-14.21875 25.707031l2.84375 7.003907c4.78125 11.773437 17.136719 18.609374 29.652344 16.402343l9.53125-1.683593c12.515625-2.207032 21.789062-12.855469 22.253906-25.554688l.277344-7.554688c.441406-12.015624-10.3125-21.378906-22.152344-19.289062zm0 0" fill="#4e5660"/><path d="m228.417969 169.261719 28.1875-4.96875c11.839843-2.089844 22.59375 7.273437 22.152343 19.289062l-.277343 7.558594c-.464844 12.699219-9.738281 23.347656-22.253907 25.554687l-9.53125 1.679688c-12.515624 2.207031-24.871093-4.628906-29.652343-16.402344l-2.84375-7.003906c-4.527344-11.140625 2.375-23.621094 14.21875-25.707031zm0 0" fill="#4e5660"/><path d="m150.464844 436.472656c-1.523438 0-3.070313-.199218-4.613282-.613281-55.617187-14.972656-70.546874-37.527344-91.351562-85.417969-3.894531-8.960937.214844-19.386718 9.175781-23.277344 8.960938-3.894531 19.386719.214844 23.277344 9.175782 17.191406 39.5625 25.3125 53.828125 68.097656 65.347656 9.4375 2.539062 15.027344 12.25 12.484375 21.683594-2.125 7.898437-9.269531 13.101562-17.070312 13.101562zm0 0" fill="#f7ef87"/><path d="m402.542969 504.5h-340.457031c-8.636719 0-15.640626-7.003906-15.640626-15.640625v-25.414063c0-8.640624 7.003907-15.640624 15.640626-15.640624h340.457031c8.636719 0 15.640625 7 15.640625 15.640624v25.414063c0 8.636719-7.003906 15.640625-15.640625 15.640625zm0 0" fill="#e1b89a"/><path d="m62.085938 447.804688c-8.636719 0-15.640626 7-15.640626 15.640624v25.414063c0 8.636719 7.003907 15.640625 15.640626 15.640625h155.09375c-16.785157-11.539062-22.859376-40.925781-13.050782-56.695312zm0 0" fill="#d2996f"/><path d="m335.152344 323.402344h-136.417969c-7.660156 0-13.871094 6.207031-13.871094 13.867187v83.371094h164.15625v-83.371094c0-7.660156-6.210937-13.867187-13.867187-13.867187zm0 0" fill="#c6c6c6"/><path d="m339.171875 447.804688h-154.308594v-27.164063h164.15625v17.316406c0 5.4375-4.410156 9.847657-9.847656 9.847657zm0 0" fill="#9aa3b1"/><path d="m128.589844 447.804688h56.273437v-27.164063h-56.273437c-5.4375 0-9.847656 4.410156-9.847656 9.847656v7.46875c0 5.4375 4.410156 9.847657 9.847656 9.847657zm0 0" fill="#c6c6c6"/><path d="m284.933594 372.019531c0 9.9375-8.054688 17.992188-17.992188 17.992188s-17.992187-8.054688-17.992187-17.992188 8.054687-17.992187 17.992187-17.992187 17.992188 8.054687 17.992188 17.992187zm0 0" fill="#fff"/><path d="m446.253906 266.933594c6.144532-12.457032 1.007813-27.59375-11.453125-33.738282-12.460937-6.144531-27.59375-1.003906-33.738281 11.453126-9.65625 19.582031-22.59375 32.046874-38.449219 37.042968-9.277343 2.925782-19.347656 3.417969-30 1.476563-1.351562-8.050781-3.125-16.332031-5.335937-24.824219-8.371094-32.160156-22.789063-60.304688-41.726563-81.585938-1.253906-5.289062-4.125-10.097656-8.339843-13.765624-3.820313-3.328126-8.421876-5.433594-13.285157-6.183594-1.703125-1.269532-3.425781-2.496094-5.167969-3.675782 10.890626-7.136718 19.75-15.535156 26.429688-25.074218 21.554688-30.777344 19.214844-71.386719 15.898438-92.855469-.847657-5.492187-3.824219-10.277344-8.382813-13.472656-4.5625-3.1875-10.074219-4.347657-15.527344-3.269531-19.285156 3.828124-53.03125 13.769531-75.246093 38.445312-11.976563-24.792969-33.070313-43.113281-46.5625-52.992188-4.484376-3.289062-9.972657-4.566406-15.453126-3.597656-5.480468.964844-10.199218 4.042969-13.292968 8.664063-9.296875 13.902343-22.851563 38.332031-25.628906 65.722656-29.3125-15.589844-64.421876-13.390625-83.851563-10.390625-5.496094.847656-10.28125 3.824219-13.472656 8.382812-3.191407 4.558594-4.355469 10.074219-3.273438 15.527344 1.972657 9.929688 5.832031 24.941406 13.042969 40.082032 1.289062 2.695312 3.976562 4.273437 6.777344 4.273437 1.082031 0 2.179687-.234375 3.21875-.730469 3.738281-1.78125 5.328125-6.257812 3.546875-9.996094-6.546875-13.738281-10.070313-27.457031-11.875-36.546874-.277344-1.40625.023437-2.828126.847656-4.003907.824219-1.179687 2.054687-1.945312 3.472656-2.164062 44.078125-6.804688 69.714844 4.988281 81.367188 12.953125.21875 2.578125.535156 5.167968.992187 7.765625 2.824219 16.011719 10.371094 31.675781 22.441406 46.683593-12.273437 6.414063-23.289062 14.757813-32.859374 24.890626-13.941407-2.265626-25.933594-6.851563-35.671876-13.671876-3.535156-2.476562-6.9375-5.363281-10.113281-8.582031-2.910156-2.949219-7.65625-2.984375-10.605469-.074219-2.949218 2.90625-2.980468 7.65625-.074218 10.605469 3.8125 3.863281 7.914062 7.34375 12.1875 10.335938 9.539062 6.679687 20.742187 11.539062 33.414062 14.523437-1.234375 1.703125-2.433594 3.441406-3.597656 5.21875-4.316406 2.367188-7.921875 5.921875-10.371094 10.355469-2.703125 4.886719-3.757812 10.390625-3.128906 15.789063-10.515625 26.472656-14.4375 57.851562-11.304688 90.9375.558594 5.925781 1.289063 11.769531 2.167969 17.445312-8.121093 7.011719-11.148437 18.765625-6.652343 29.117188 15.609374 35.925781 28.75 61.179687 63.625 77.964843v6.5625c0 .796875.074218 1.578125.175781 2.347657h-49.332031c-12.757813 0-23.140626 10.378906-23.140626 23.140624v25.417969c0 12.757813 10.382813 23.136719 23.140626 23.136719h294.046874c4.140626 0 7.5-3.355469 7.5-7.5 0-4.140625-3.359374-7.5-7.5-7.5h-294.046874c-4.488282 0-8.140626-3.648438-8.140626-8.136719v-25.417969c0-4.488281 3.652344-8.140624 8.140626-8.140624h340.457031c4.488281 0 8.140625 3.652343 8.140625 8.140624v25.414063c0 4.488281-3.652344 8.140625-8.140625 8.140625h-11.070313c-4.140625 0-7.5 3.359375-7.5 7.5 0 4.144531 3.359375 7.5 7.5 7.5h11.070313c12.761719 0 23.140625-10.378906 23.140625-23.140625v-25.414063c0-12.761718-10.378906-23.140624-23.140625-23.140624h-46.203125c.105468-.769532.179687-1.550782.179687-2.351563v-100.683594c0-1.09375-.109375-2.15625-.269531-3.207031 7.445312-.71875 14.648438-2.148438 21.511719-4.3125 29.058593-9.160156 52.742187-30.882812 68.492187-62.816406zm-186.351562-95.429688c2.722656 0 5.363281.976563 7.460937 2.800782 2.601563 2.269531 4.023438 5.550781 3.898438 9.003906l-.277344 7.554687c-.332031 9.105469-7.089844 16.863281-16.0625 18.445313l-9.53125 1.679687c-8.96875 1.582031-17.972656-3.394531-21.398437-11.835937l-2.847657-7.007813c-1.273437-3.140625-1.082031-6.640625.507813-9.628906.304687-.398437.566406-.828125.785156-1.28125 1.726562-2.417969 4.316406-4.0625 7.28125-4.585937l28.1875-4.972657c.667969-.117187 1.332031-.171875 1.996094-.171875zm-50.113282-90.691406c-.457031-2.59375-1.042968-5.132812-1.722656-7.625 18.644532-26.054688 53.070313-36.253906 72.027344-40.015625 1.40625-.273437 2.828125.023437 4.003906.847656 1.175782.824219 1.945313 2.058594 2.164063 3.472657 2.972656 19.242187 5.183593 55.480468-13.359375 81.964843-6.820313 9.742188-16.519532 18.152344-28.847656 25.050781-12.457032-6.246093-25.660157-10.320312-39.386719-12.152343 6.207031-18.226563 7.941406-35.527344 5.121093-51.542969zm-93.230468 16.4375c-.542969-3.085938-.867188-6.171875-1.007813-9.25 0-.117188-.003906-.234375-.011719-.351562-1.164062-28.503907 13.816407-55.773438 23.550782-70.328126.796875-1.191406 2.015625-1.984374 3.429687-2.234374 1.414063-.242188 2.832031.082031 3.984375.929687 14.125 10.347656 37.527344 30.84375 46.183594 58.023437.03125.117188.070312.234376.113281.347657.917969 2.933593 1.667969 5.945312 2.214844 9.03125 2.566406 14.546875.574219 30.617187-5.882813 47.828125-8.441406-.09375-17.042968.609375-25.753906 2.144531-8.710937 1.535156-17.03125 3.816406-24.933594 6.796875-11.957031-13.96875-19.320312-28.390625-21.886718-42.9375zm-16.597656 87.023438c16.972656-19.058594 39.476562-31.429688 66.023437-36.113282 9.328125-1.640625 18.507813-2.222656 27.46875-1.761718h.035156c16.488281.851562 32.230469 5.246093 46.757813 13.046874.011718.007813.023437.011719.035156.019532.042969.023437.085938.042968.125.066406l-13.292969 2.34375c-6.074219 1.070312-11.46875 4.183594-15.398437 8.757812-10.507813.496094-24.199219 1.539063-40.976563 4.5-16.773437 2.957032-29.996093 6.65625-40.039062 9.785157-5.257813-2.953125-11.390625-4.035157-17.46875-2.960938h.003906l-13.296875 2.34375c.007812-.007812.015625-.019531.023438-.027343zm-20.300782 23.128906c1.671875-3.023438 4.582032-5.105469 7.988282-5.703125l28.1875-4.972657c.664062-.117187 1.332031-.171874 1.996093-.171874 2.3125 0 4.5625.710937 6.472657 2.039062.324218.308594.679687.582031 1.054687.828125 2.558594 2.265625 3.957031 5.515625 3.832031 8.9375l-.277344 7.554687c-.335937 9.105469-7.089843 16.863282-16.0625 18.445313l-9.53125 1.679687c-8.972656 1.585938-17.972656-3.394531-21.402343-11.835937l-2.84375-7.007813c-1.300781-3.199218-1.085938-6.773437.585937-9.792968zm-18.28125 140.050781c-2.09375-4.816406-.15625-10.386719 4.3125-12.925781.109375-.050782.210938-.101563.316406-.160156.214844-.113282.429688-.226563.65625-.324219 2.5-1.085938 5.269532-1.136719 7.800782-.136719 2.535156 1 4.527344 2.925781 5.609375 5.421875 17.480469 40.230469 26.433593 57.058594 73.027343 69.601563 2.492188.667968 4.523438 2.203124 5.847657 4.207031h-30.359375c-4.425782 0-8.460938 1.683593-11.527344 4.425781-27.382812-13.335938-39.277344-32.34375-55.683594-70.109375zm115.984375 92.851563h-48.773437c-1.292969 0-2.347656-1.054688-2.347656-2.351563v-7.464844c0-1.296875 1.054687-2.351562 2.347656-2.351562h48.773437zm0-103.035157v75.867188h-2.367187c-2.003906-8.886719-8.726563-16.195313-17.996094-18.691407-39.707031-10.6875-46.328125-22.335937-63.167969-61.09375-2.679687-6.171874-7.605469-10.929687-13.863281-13.398437-3.691406-1.453125-7.582031-2.003906-11.417969-1.667969-.589843-4.203125-1.105469-8.488281-1.515625-12.832031-2.304687-24.355469-.53125-47.601563 5.09375-68.289063 6.46875 8.8125 16.886719 14.164063 27.894532 14.164063 1.953124 0 3.929687-.167969 5.902343-.515625l9.53125-1.683594c15.890625-2.800781 27.855469-16.539062 28.445313-32.664062l.277344-7.554688c.152343-4.09375-.640626-8.082031-2.257813-11.707031 8.542969-2.472656 18.964844-5.105469 31.421875-7.300781 12.457031-2.195313 23.152344-3.285156 32.023438-3.886719-.277344 3.960937.339843 7.976563 1.878906 11.773437l2.847656 7.003907c5.316406 13.09375 18.203125 21.484375 31.996094 21.484375 1.957031 0 3.933594-.171875 5.90625-.519532l9.53125-1.679687c13.078125-2.304687 23.488281-12.019531 27.097656-24.375 12.359375 17.511719 21.972656 38.75 28.136719 62.417969 5.019531 19.277344 7.691406 37.328125 7.972656 53.777344h-122c-11.785156.003906-21.371094 9.589843-21.371094 21.371093zm164.15625 100.6875c0 1.292969-1.054687 2.347657-2.347656 2.347657-.007813 0-.015625 0-.019531 0h-146.789063v-12.164063h149.15625zm0-24.820312h-149.15625v-75.867188c0-3.511719 2.855469-6.367187 6.371094-6.367187h136.417969c3.507812 0 6.367187 2.855468 6.367187 6.367187zm5.597657-93.558594c-3.261719-2.214844-7.171876-3.53125-11.375-3.648437-.089844-5.597657-.441407-11.363282-1.039063-17.269532 11.339844 1.4375 22.207031.558594 32.417969-2.660156 19.914062-6.277344 35.859375-21.320312 47.394531-44.714844 2.484375-5.042968 8.609375-7.121094 13.652344-4.636718 5.039062 2.488281 7.117187 8.609374 4.632812 13.652343-13.894531 28.175781-34.484375 47.242188-59.546875 55.140625-8.183594 2.578125-16.96875 3.957032-26.136718 4.136719zm-97.203126-36.917969c.640626 3.636719 3.804688 6.199219 7.375 6.199219.433594 0 .871094-.039063 1.3125-.117187 4.078126-.71875 6.804688-4.609376 6.082032-8.6875l-1.925782-10.917969c-.71875-4.078125-4.605468-6.804688-8.6875-6.085938-4.078124.71875-6.804687 4.609375-6.082031 8.691407zm-34.546874 11.59375c2.136718-3.546875.996093-8.15625-2.554688-10.296875-3.546875-2.136719-8.15625-.992187-10.292969 2.554688-2.371093 3.933593-6.316406 6.648437-10.828125 7.445312-4.511718.792969-9.148437-.40625-12.722656-3.292969-3.222656-2.601562-7.945312-2.101562-10.546875 1.121094s-2.101563 7.945313 1.121094 10.546875c5.542969 4.476563 12.398437 6.863281 19.402343 6.863281 1.78125 0 3.570313-.152343 5.351563-.46875 8.78125-1.546874 16.460937-6.820312 21.070313-14.472656zm-84.175782-1.917968c-.71875-4.082032-4.609375-6.808594-8.6875-6.085938-4.078125.71875-6.804687 4.609375-6.085937 8.6875l1.925781 10.921875c.644531 3.640625 3.808594 6.199219 7.378906 6.199219.429688 0 .871094-.039063 1.308594-.117188 4.082031-.71875 6.804688-4.605468 6.085938-8.6875zm0 0"/></svg>