<svg height="512pt" viewBox="-30 0 512 512.002" width="512pt" xmlns="http://www.w3.org/2000/svg"><path d="m174.273438 504.5c-7.667969 0-14.542969-5.359375-16.175782-13.160156-7.542968-36.105469 1.792969-96.664063 3.824219-106.304688 1.886719-8.941406 10.660156-14.65625 19.597656-12.773437 8.941407 1.882812 14.660157 10.65625 12.777344 19.597656-2.371094 11.242187-9.601563 65.019531-3.816406 92.710937 1.871093 8.945313-3.863281 17.707032-12.804688 19.578126-1.140625.238281-2.28125.351562-3.402343.351562zm0 0" fill="#efd176"/><path d="m274.582031 504.5c-1.125 0-2.261719-.113281-3.402343-.351562-8.941407-1.871094-14.675782-10.632813-12.808594-19.578126 5.785156-27.691406-1.441406-81.46875-3.8125-92.710937-1.882813-8.941406 3.835937-17.714844 12.773437-19.597656 8.933594-1.886719 17.710938 3.832031 19.597657 12.773437 2.03125 9.640625 11.371093 70.199219 3.824218 106.304688-1.628906 7.800781-8.507812 13.160156-16.171875 13.160156zm0 0" fill="#efd176"/><path d="m395.960938 388.15625c-8.425782 0-16.734376-1.515625-24.785157-4.5625-16.609375-6.285156-31.765625-18.722656-45.050781-36.972656-13.074219-17.957032-20.390625-36.167969-23.585938-45.421875-2.984374-8.632813 1.597657-18.050781 10.234376-21.035157 8.632812-2.980468 18.050781 1.597657 21.035156 10.234376 8.640625 25.011718 27.164062 53.960937 49.074218 62.253906 11.664063 4.414062 23.832032 2.882812 37.207032-4.679688 7.953125-4.496094 18.042968-1.695312 22.539062 6.257813 4.5 7.953125 1.699219 18.042969-6.253906 22.539062-13.390625 7.574219-27.046875 11.386719-40.414062 11.386719zm0 0" fill="#efd176"/><path d="m64 374.453125c-17.65625 0-35.546875-6.113281-50.234375-17.738281-7.164063-5.671875-8.375-16.074219-2.703125-23.238282 5.671875-7.160156 16.074219-8.371093 23.238281-2.703124 12.863281 10.183593 29.527344 13.328124 43.496094 8.214843 18.230469-6.675781 31.644531-27.078125 37.773437-57.445312 1.804688-8.953125 10.527344-14.753907 19.484376-12.941407 8.957031 1.804688 14.75 10.53125 12.941406 19.484376-4.367188 21.652343-11.855469 39.753906-22.25 53.804687-9.949219 13.445313-22.253906 22.917969-36.570313 28.164063-8.074219 2.957031-16.597656 4.398437-25.175781 4.398437zm0 0" fill="#efd176"/><path d="m178.953125 74.148438c23.269531 23.273437 27.257813 59.503906 27.65625 78.101562.144531 6.757812-5.378906 12.28125-12.136719 12.136719-18.59375-.398438-54.828125-4.386719-78.101562-27.660157-23.273438-23.273437-27.261719-59.503906-27.660156-78.101562-.144532-6.757812 5.382812-12.28125 12.136718-12.136719 18.597656.398438 54.832032 4.382813 78.105469 27.660157zm0 0" fill="#8ee2cf"/><path d="m161.617188 126.894531c-1.917969 0-3.839844-.734375-5.304688-2.199219l-27.910156-27.910156c-2.929688-2.929687-2.929688-7.679687 0-10.605468 2.929687-2.929688 7.675781-2.929688 10.605468 0l27.914063 27.910156c2.925781 2.929687 2.925781 7.679687 0 10.605468-1.464844 1.464844-3.386719 2.199219-5.304687 2.199219zm0 0" fill="#6fce91"/><path d="m269.902344 74.148438c-23.273438 23.273437-27.261719 59.503906-27.660156 78.101562-.144532 6.757812 5.382812 12.28125 12.136718 12.136719 18.597656-.398438 54.828125-4.386719 78.101563-27.660157 23.273437-23.273437 27.261719-59.503906 27.660156-78.101562.144531-6.757812-5.378906-12.28125-12.136719-12.136719-18.59375.398438-54.828125 4.382813-78.101562 27.660157zm0 0" fill="#8ee2cf"/><path d="m287.238281 126.894531c-1.921875 0-3.839843-.734375-5.304687-2.199219-2.929688-2.929687-2.929688-7.675781 0-10.605468l27.910156-27.910156c2.929688-2.929688 7.679688-2.929688 10.609375 0 2.925781 2.929687 2.925781 7.675781 0 10.605468l-27.914063 27.910156c-1.464843 1.464844-3.382812 2.199219-5.300781 2.199219zm0 0" fill="#6fce91"/><path d="m268.675781 85.945312c0 32.914063-22.800781 61.351563-35.667969 74.78125-4.675781 4.882813-12.488281 4.882813-17.164062 0-12.867188-13.429687-35.667969-41.867187-35.667969-74.78125 0-32.914062 22.800781-61.355468 35.667969-74.785156 4.675781-4.878906 12.488281-4.878906 17.164062 0 12.871094 13.429688 35.667969 41.871094 35.667969 74.785156zm0 0" fill="#8ee2cf"/><path d="m224.425781 113.183594c-4.140625 0-7.5-3.359375-7.5-7.5v-39.476563c0-4.144531 3.359375-7.5 7.5-7.5 4.144531 0 7.5 3.355469 7.5 7.5v39.476563c0 4.140625-3.355469 7.5-7.5 7.5zm0 0" fill="#6fce91"/><path d="m357.0625 286.765625c-10.019531.003906-18.515625-7.699219-19.332031-17.859375-6.210938-77.28125-50.683594-127.21875-113.304688-127.21875-62.621093 0-107.09375 49.9375-113.304687 127.21875-.859375 10.6875-10.21875 18.648438-20.90625 17.796875-10.6875-.859375-18.65625-10.21875-17.796875-20.90625 3.796875-47.257813 19.875-87.660156 46.5-116.835937 27.515625-30.15625 64.003906-46.101563 105.507812-46.101563 41.507813 0 77.992188 15.945313 105.511719 46.101563 26.621094 29.175781 42.699219 69.578124 46.496094 116.835937.859375 10.6875-7.109375 20.046875-17.796875 20.90625-.527344.042969-1.054688.0625-1.574219.0625zm0 0" fill="#8eafe2"/><path d="m190.984375 106.539062c-27.699219 6.3125-52.21875 20.667969-72.066406 42.421876-26.621094 29.175781-42.703125 69.578124-46.496094 116.835937-.804687 9.976563 6.089844 18.792969 15.703125 20.617187l17.851562-5.855468c2.875-3.085938 4.78125-7.121094 5.148438-11.652344 5.246094-65.3125 37.824219-111.089844 85.582031-123.707031-8.765625-9.707031-10.960937-25.308594-5.722656-38.660157zm0 0" fill="#6a96d7"/><path d="m99.28125 316.746094-9.796875-1.300782c-16.839844-2.234374-29.421875-16.597656-29.421875-33.582031v-18.125c0-16.984375 12.582031-31.347656 29.421875-33.582031l9.796875-1.300781c7.898438-1.050781 14.914062 5.09375 14.914062 13.066406v61.761719c0 7.964844-7.015624 14.113281-14.914062 13.0625zm0 0" fill="#4e5660"/><path d="m349.574219 316.746094 9.796875-1.300782c16.839844-2.234374 29.417968-16.597656 29.417968-33.582031v-18.125c0-16.984375-12.578124-31.347656-29.417968-33.582031l-9.796875-1.300781c-7.902344-1.050781-14.917969 5.09375-14.917969 13.066406v61.761719c0 7.964844 7.015625 14.113281 14.917969 13.0625zm0 0" fill="#4e5660"/><path d="m224.425781 133.828125c68.277344 0 117.082031 53.773437 123.625 135.203125 6.804688 84.703125-25.058593 147.886719-123.625 147.886719-98.566406 0-130.429687-63.183594-123.625-147.886719 6.542969-81.429688 55.351563-135.203125 123.625-135.203125zm0 0" fill="#f7ef87"/><g fill="#efd176"><path d="m183.613281 140.925781c-46.359375 17.113281-77.664062 64.046875-82.8125 128.105469-6.785156 84.46875 24.886719 147.527344 122.8125 147.878906-118.855469-72.722656-86.984375-203.925781-40-275.984375zm0 0"/><path d="m236.429688 245.039062c-1.917969 0-3.839844-.734374-5.304688-2.195312l-6.699219-6.703125-6.699219 6.699219c-2.929687 2.929687-7.679687 2.929687-10.605468.003906-2.929688-2.929688-2.929688-7.679688 0-10.609375l12-12.003906c1.40625-1.40625 3.316406-2.195313 5.304687-2.195313s3.898438.789063 5.304688 2.195313l12.003906 12.003906c2.929687 2.929687 2.929687 7.679687 0 10.609375-1.464844 1.460938-3.386719 2.195312-5.304687 2.195312zm0 0"/><path d="m281.050781 245.039062c-1.921875 0-3.839843-.734374-5.304687-2.195312-2.929688-2.933594-2.929688-7.679688 0-10.609375l12.003906-12.003906c1.40625-1.40625 3.3125-2.195313 5.304688-2.195313 1.988281 0 3.894531.789063 5.300781 2.195313l12.003906 12.003906c2.929687 2.929687 2.929687 7.679687 0 10.609375-2.929687 2.925781-7.675781 2.925781-10.605469-.003906l-6.699218-6.699219-6.699219 6.703125c-1.46875 1.460938-3.386719 2.195312-5.304688 2.195312zm0 0"/><path d="m167.804688 245.039062c-1.917969 0-3.839844-.734374-5.304688-2.195312l-6.699219-6.703125-6.699219 6.699219c-2.929687 2.929687-7.679687 2.929687-10.605468.003906-2.929688-2.929688-2.929688-7.679688 0-10.609375l12-12.003906c1.40625-1.40625 3.316406-2.195313 5.304687-2.195313s3.898438.789063 5.304688 2.195313l12.003906 12.003906c2.929687 2.929687 2.929687 7.679687 0 10.609375-1.464844 1.460938-3.386719 2.195312-5.304687 2.195312zm0 0"/><path d="m270.742188 378.929688c-1.917969 0-3.835938-.734376-5.304688-2.199219l-6.699219-6.699219-6.699219 6.699219c-2.929687 2.929687-7.675781 2.929687-10.605468 0-2.929688-2.925781-2.929688-7.675781 0-10.605469l12.003906-12.003906c1.40625-1.40625 3.3125-2.195313 5.304688-2.195313 1.988281 0 3.894531.789063 5.300781 2.195313l12.003906 12.003906c2.929687 2.929688 2.929687 7.679688 0 10.605469-1.464844 1.464843-3.382813 2.199219-5.304687 2.199219zm0 0"/><path d="m178.109375 378.929688c-1.917969 0-3.839844-.734376-5.304687-2.199219-2.925782-2.929688-2.925782-7.675781 0-10.605469l12.003906-12.003906c1.410156-1.40625 3.316406-2.195313 5.304687-2.195313s3.898438.789063 5.304688 2.195313l12.003906 12.003906c2.929687 2.929688 2.929687 7.679688 0 10.605469-2.929687 2.929687-7.679687 2.929687-10.609375 0l-6.699219-6.699219-6.699219 6.699219c-1.464843 1.464843-3.382812 2.199219-5.304687 2.199219zm0 0"/></g><path d="m174.226562 315.570312c0-12.910156-13.144531-23.378906-29.355468-23.378906-16.214844 0-29.355469 10.46875-29.355469 23.378906 0 12.910157 13.140625 23.375 29.355469 23.375 16.210937 0 29.355468-10.464843 29.355468-23.375zm0 0" fill="#eda1ab"/><path d="m333.339844 315.570312c0-12.910156-13.144532-23.378906-29.355469-23.378906-16.214844 0-29.355469 10.46875-29.355469 23.378906 0 12.910157 13.140625 23.375 29.355469 23.375 16.210937 0 29.355469-10.464843 29.355469-23.375zm0 0" fill="#eda1ab"/><path d="m170.371094 170.402344h-26.757813c-11.242187 0-19.621093 10.363281-17.265625 21.355468l1.484375 6.914063c2.488281 11.613281 12.753907 19.914063 24.636719 19.914063h9.046875c11.878906 0 22.148437-8.300782 24.640625-19.914063l1.480469-6.914063c2.355469-10.988281-6.023438-21.355468-17.265625-21.355468zm0 0" fill="#4e5660"/><path d="m278.480469 170.402344h26.761719c11.238281 0 19.621093 10.363281 17.261718 21.355468l-1.480468 6.914063c-2.492188 11.613281-12.757813 19.914063-24.640626 19.914063h-9.046874c-11.878907 0-22.148438-8.300782-24.636719-19.914063l-1.484375-6.914063c-2.355469-10.988281 6.027344-21.355468 17.265625-21.355468zm0 0" fill="#4e5660"/><path d="m414.8125 214.113281c9.875-1.742187 17.878906-9.429687 17.878906-17.171875v-34.363281l10.246094-1.804687c4.953125-.875 8.566406-5.175782 8.566406-10.207032v-2.625c0-2.148437-1.941406-3.777344-4.058594-3.402344l-18.742187 3.304688c-5.003906.882812-8.648437 5.226562-8.648437 10.304688v27.613281c-1.65625-.105469-3.417969-.011719-5.242188.308593-9.871094 1.742188-17.875 9.433594-17.875 17.175782 0 7.742187 8.003906 12.609375 17.875 10.867187zm10.699219 100.355469v12.304688c0 4.144531 3.359375 7.5 7.5 7.5 4.144531 0 7.5-3.355469 7.5-7.5v-12.304688c0-4.144531-3.355469-7.5-7.5-7.5-4.140625 0-7.5 3.355469-7.5 7.5zm-396.871094-146.433594c9.875-1.738281 17.878906-9.429687 17.878906-17.171875v-34.359375l10.242188-1.808594c4.953125-.871093 8.566406-5.175781 8.566406-10.207031v-2.621093c0-2.148438-1.941406-3.777344-4.058594-3.40625l-18.742187 3.304687c-5 .882813-8.644532 5.226563-8.644532 10.304687v27.617188c-1.660156-.109375-3.417968-.011719-5.242187.308594-9.875 1.742187-17.878906 9.429687-17.878906 17.171875 0 7.746093 8.003906 12.609375 17.878906 10.867187zm364.632813 152.394532c-2.929688 2.925781-2.929688 7.675781 0 10.605468l8.703124 8.703125c1.464844 1.464844 3.382813 2.195313 5.304688 2.195313 1.917969 0 3.835938-.730469 5.300781-2.195313 2.929688-2.929687 2.929688-7.675781 0-10.605469l-8.699219-8.703124c-2.929687-2.929688-7.679687-2.929688-10.609374 0zm-147.453126-30.726563c-3.125-2.722656-7.859374-2.394531-10.582031.726563-2.730469 3.132812-6.671875 4.929687-10.8125 4.929687s-8.078125-1.796875-10.808593-4.929687c-2.722657-3.121094-7.460938-3.445313-10.582032-.726563-3.121094 2.722656-3.449218 7.457031-.726562 10.582031 5.578125 6.402344 13.640625 10.074219 22.117187 10.074219 8.476563 0 16.539063-3.671875 22.117188-10.074219 2.722656-3.121094 2.398437-7.859375-.722657-10.582031zm203.339844 60.835937c-3.160156-5.589843-8.3125-9.613281-14.496094-11.332031-6.1875-1.71875-12.675781-.925781-18.265624 2.238281-11.472657 6.484376-21.277344 7.816407-30.859376 4.191407-8.851562-3.351563-18.011718-11.246094-26.359374-22.601563l1.179687-.15625c20.484375-2.71875 35.933594-20.351562 35.933594-41.019531v-18.121094c0-13.878906-6.972657-26.378906-17.753907-33.925781-7.714843-34.054688-22.125-62.890625-42.898437-85.722656.734375-.683594 1.453125-1.367188 2.144531-2.0625 8.953125-8.953125 16.046875-20.386719 21.078125-33.988282 1.4375-3.886718-.546875-8.199218-4.433593-9.636718-3.882813-1.4375-8.199219.546875-9.636719 4.433594-4.273438 11.554687-10.203125 21.175781-17.617188 28.585937-.6875.691406-1.417969 1.371094-2.160156 2.046875-14.996094-13.621094-32.0625-23.714844-50.742187-30.082031 1.257812-5.894531 1.902343-11.738281 1.902343-17.445313 0-2.402344-.117187-4.773437-.324219-7.125 9.46875-9.183594 31.039063-23.949218 72.3125-24.832031 1.609376.015625 2.699219.792969 3.191407 1.285156.496093.496094 1.320312 1.570313 1.285156 3.195313-.078125 3.753906-.296875 7.566406-.648437 11.332031-.386719 4.125 2.644531 7.777344 6.769531 8.164063 4.117187.367187 7.777343-2.644532 8.164062-6.769532.386719-4.121094.625-8.292968.714844-12.410156.113281-5.328125-1.902344-10.34375-5.675781-14.117188-3.773438-3.773437-8.820313-5.773437-14.121094-5.675781-18.296875.390625-50.730469 4.035157-75.234375 22.851563-7.136719-24.558594-23.433594-44.648438-34.183594-55.871094-3.691406-3.847656-8.664062-5.96875-14-5.96875-5.335937 0-10.308593 2.121094-13.996093 5.972656-10.753907 11.222656-27.046876 31.3125-34.1875 55.871094-24.5-18.816406-56.933594-22.460938-75.234376-22.851562-5.28125-.117188-10.34375 1.898437-14.117187 5.671874-3.773437 3.777344-5.789063 8.789063-5.675781 14.121094.433594 20.375 4.890625 58.285156 29.851562 83.246094.695313.691406 1.414063 1.378906 2.148438 2.058594-20.773438 22.835937-35.183594 51.671875-42.898438 85.726562-10.78125 7.542969-17.753906 20.046875-17.753906 33.921875v18.125c0 20.664063 15.449219 38.300781 35.933594 41.019531l.203125.027344c-4.085938 4.21875-8.597657 7.246094-13.480469 9.035156-11.535156 4.230469-25.433594 1.523438-36.265625-7.050781-10.398437-8.226562-25.542969-6.460937-33.773437 3.929688-8.226563 10.394531-6.460938 25.546875 3.933593 33.773437 15.769531 12.480469 35.261719 19.355469 54.886719 19.355469 9.617188 0 18.957031-1.632813 27.753906-4.855469 6.335938-2.320312 12.347656-5.445312 17.984375-9.292968 4.085938 7.324218 8.890625 13.992187 14.417969 19.980468 7.609375 8.246094 16.527344 15.113282 26.703125 20.585938-1.683594 14.207031-3.746094 36.855468-2.996094 58 .144531 4.050781 3.46875 7.234375 7.488281 7.234375.089844 0 .183594-.003907.273438-.003907 4.136719-.148437 7.375-3.625 7.226562-7.761718-.636718-18.003906.878907-37.296875 2.367188-50.984375 5.574219 2.089843 11.453125 3.84375 17.632812 5.25-1.890624 18.816406-3.640624 47.199219.289063 66.003906.492187 2.363281.035156 4.777344-1.285156 6.796875-1.320313 2.023438-3.351563 3.40625-5.722657 3.902344-2.800781.585937-5.757812-.210938-7.894531-2.132813-3.085937-2.773437-7.824219-2.515625-10.59375.5625-2.769531 3.082031-2.515625 7.824219.566407 10.59375 4.425781 3.976563 10.132812 6.171875 16.0625 6.171875 1.652343 0 3.316406-.175781 4.933593-.515625 6.285157-1.3125 11.683594-4.996093 15.199219-10.367187 3.515625-5.375 4.730469-11.796875 3.417969-18.082032-3.519531-16.828124-1.746094-43.957031-.15625-60.300781 8.445312 1.113281 17.363281 1.679688 26.757812 1.679688s18.3125-.566407 26.757813-1.679688c1.589844 16.34375 3.363281 43.472657-.15625 60.300781-2.710938 12.976563 5.640625 25.738282 18.613281 28.449219 1.621094.339844 3.285156.515625 4.9375.515625 11.3125 0 21.199219-8.046875 23.515625-19.128906 5.402344-25.847656 2.566406-62.152344-.097656-84.503906 10.175781-5.476563 19.089844-12.339844 26.703125-20.585938 4.769531-5.171875 9-10.847656 12.699219-17.011718 9.683593 9.007812 20.117187 15.671874 31.121093 19.835937 8.855469 3.351563 18.085938 5.050781 27.441407 5.050781 14.761718 0 29.601562-4.160156 44.101562-12.359375 5.59375-3.160156 9.617188-8.308593 11.335938-14.496093 1.71875-6.191407.921874-12.675782-2.238282-18.265626zm-67.871094-86.800781v18.121094c0 13.175781-9.847656 24.417969-22.90625 26.152344l-2.648437.351562c.996094-12.394531.9375-25.707031-.207031-39.933593-.886719-11.015626-2.570313-21.675782-4.980469-31.882813l7.835937 1.042969c13.0625 1.730468 22.90625 12.972656 22.90625 26.148437zm-160.03125-247.390625c1.125-1.171875 2.46875-1.347656 3.167969-1.347656s2.042969.175781 3.167969 1.347656c29.21875 30.5 33.582031 56.695313 33.582031 69.597656 0 4.339844-.464843 8.800782-1.367187 13.332032-11.320313-2.597656-23.144532-3.917969-35.382813-3.917969s-24.0625 1.320313-35.378906 3.917969c-.90625-4.53125-1.371094-8.992188-1.371094-13.332032 0-12.902343 4.363281-39.097656 33.582031-69.597656zm-125.046874 42.117188c-.035157-1.625.789062-2.699219 1.285156-3.191406.496094-.496094 1.578125-1.316407 3.191406-1.285157 41.28125.878907 62.851562 15.648438 72.316406 24.832031-.210937 2.347657-.328125 4.722657-.328125 7.125 0 5.703126.648438 11.546876 1.902344 17.445313-18.679687 6.363281-35.746094 16.460937-50.738281 30.082031-.746094-.675781-1.476563-1.359375-2.164063-2.046875-9.125-9.125-24.5625-30.734375-25.464843-72.960937zm28.246093 95.550781c26.058594-28.558594 60.628907-43.65625 99.96875-43.65625 39.34375 0 73.910157 15.097656 99.972657 43.65625 16.984374 18.617187 29.367187 41.738281 36.9375 68.855469-.328126-.050782-.648438-.105469-.976563-.152344l-9.800781-1.300781c-1.433594-.191407-2.863282-.214844-4.273438-.109375-4.117187-12.636719-9.457031-24.355469-15.933594-34.875-.324218-5.132813-2.222656-10.082032-5.546874-14.191406-3.011719-3.722657-6.941407-6.453126-11.339844-7.964844-23.410156-24.832032-54.144532-37.949219-89.039063-37.949219s-65.628906 13.117187-89.039062 37.949219c-4.394531 1.515625-8.328125 4.242187-11.339844 7.964844-3.320313 4.113281-5.21875 9.058593-5.542969 14.191406-6.480468 10.523437-11.820312 22.238281-15.933594 34.875-1.410156-.105469-2.839843-.082032-4.277343.113281l-9.796875 1.300781c-.328125.042969-.652344.101563-.976563.152344 7.566407-27.121094 19.953125-50.242188 36.9375-68.859375zm45.914063 8.886719h-11.203125c18.425781-14.171875 40.65625-21.574219 65.257812-21.574219 24.601563 0 46.832031 7.402344 65.257813 21.574219h-11.203125c-5.808594 0-11.328125 1.976562-15.75 5.539062-9.742188-1.246094-22.46875-2.488281-38.304688-2.488281-15.835937 0-28.558593 1.242187-38.304687 2.488281-4.421875-3.5625-9.9375-5.539062-15.75-5.539062zm9.933594 27.285156-1.484376 6.910156c-1.738281 8.105469-9.015624 13.988282-17.304687 13.988282h-9.046875c-8.289062 0-15.566406-5.882813-17.304688-13.988282l-1.484374-6.910156c-.644532-3.015625.097656-6.117188 2.035156-8.515625 1.9375-2.394531 4.816406-3.769531 7.898437-3.769531h26.757813c2.671875 0 5.1875 1.035156 7.074218 2.871094.277344.382812.59375.734374.9375 1.054687 1.847657 2.375 2.550782 5.410156 1.921876 8.359375zm90.183593-8.382812c.324219-.308594.625-.644532.894531-1.011719 1.890626-1.847657 4.417969-2.890625 7.097657-2.890625h26.761719c3.082031 0 5.960937 1.375 7.898437 3.769531 1.9375 2.398437 2.679687 5.5 2.03125 8.515625l-1.480469 6.910156c-1.738281 8.105469-9.015625 13.988282-17.304687 13.988282h-9.046875c-8.289063 0-15.566406-5.882813-17.304688-13.988282l-1.484375-6.910156c-.632812-2.960938.074219-6.003906 1.9375-8.382812zm-202.925781 100.054687v-18.121094c0-13.175781 9.847656-24.417969 22.90625-26.148437l7.835938-1.042969c-2.410157 10.207031-4.09375 20.867187-4.976563 31.882813-1.144531 14.226562-1.207031 27.539062-.210937 39.933593l-2.648438-.351562c-13.058594-1.734375-22.90625-12.976563-22.90625-26.152344zm19.03125 81.152344c-7.140625 2.613281-14.742188 3.941406-22.59375 3.941406-16.261719 0-32.445312-5.726563-45.578125-16.121094-1.894531-1.496093-3.089844-3.644531-3.371094-6.042969-.277343-2.398437.394531-4.765624 1.894531-6.65625 3.09375-3.90625 8.792969-4.570312 12.699219-1.480468 14.890625 11.789062 34.328125 15.386718 50.734375 9.378906 6.179688-2.261719 11.847656-5.808594 16.964844-10.585938 1.578125 6.542969 3.535156 12.746094 5.875 18.605469-5.160156 3.789063-10.730469 6.800781-16.625 8.960938zm196.820312 126.792969c-.871093 4.167968-4.585937 7.195312-8.835937 7.195312-.621094 0-1.246094-.066406-1.867187-.195312-2.363282-.492188-4.390626-1.878907-5.714844-3.898438-1.320313-2.019531-1.777344-4.4375-1.285156-6.800781 3.929687-18.800781 2.179687-47.183594.289062-66.003907 6.179688-1.402343 12.054688-3.15625 17.632812-5.246093 2.140626 19.757812 4.472657 52.488281-.21875 74.949219zm56.574219-174.738282c-.113281.46875-.183593.953125-.203125 1.457032-.003906.015624 0 .03125 0 .046874-.003906.027344-.011718.058594-.011718.085938-.117188.488281-.1875.988281-.203126 1.488281-1.957031 13.5625-5.4375 25.671875-10.445312 36.289063-.199219.339844-.367188.695312-.507812 1.058594-4.035157 8.308593-9.015626 15.695312-14.941407 22.117187-19.476562 21.105469-49.507812 31.804687-89.25 31.804687-39.742187 0-69.769531-10.699218-89.25-31.804687-6.347656-6.878906-11.601562-14.859375-15.78125-23.898437-.128906-.347657-.277343-.6875-.464843-1.015626-4.597657-10.242187-7.824219-21.824218-9.667969-34.71875-.019531-.472656-.085938-.945312-.191407-1.40625-.003906-.015624 0-.03125 0-.046874-.023437-.496094-.09375-.976563-.207031-1.445313-1.71875-13.722656-1.917969-28.886719-.585937-45.445313 1.796875-22.359374 7.035156-43.101562 15.300781-60.976562 5.570313 10.460938 16.628906 17.429688 28.886719 17.429688h9.050781c15.3125 0 28.757813-10.867188 31.96875-25.84375l1.484375-6.910157c.777344-3.628906.738281-7.308593-.054688-10.816406 8.144532-.863281 17.96875-1.5625 29.511719-1.5625 11.539063 0 21.363281.699219 29.511719 1.5625-.792969 3.507813-.832031 7.1875-.054688 10.816406l1.480469 6.910157c3.210938 14.976562 16.65625 25.84375 31.972657 25.84375h9.046874c12.261719 0 23.316407-6.96875 28.886719-17.429688 8.269531 17.875 13.507813 38.617188 15.304688 60.976562 1.332031 16.550782 1.132812 31.710938-.585938 45.433594zm96.957031 49.722656c-.644531 2.328126-2.160156 4.265626-4.261718 5.453126-12.222656 6.910156-24.578125 10.414062-36.722656 10.414062-7.535157 0-14.980469-1.371094-22.128907-4.078125-10.335937-3.910156-20.179687-10.566406-29.320312-19.800781 2.632812-6.171875 4.832031-12.730469 6.59375-19.683594 7.648437 9.296875 17.429687 18.148438 29.125 22.574219 13.679687 5.175781 28.332031 3.433593 43.554687-5.164063 2.101563-1.191406 4.539063-1.492187 6.863282-.84375 2.328124.644532 4.265624 2.160156 5.453124 4.261719 1.191407 2.101563 1.488282 4.542969.84375 6.867187zm-132.894531-84.730468c-3.121093-2.726563-7.859375-2.398438-10.582031.722656-1.667969 1.914062-4.070312 3.007812-6.59375 3.007812s-4.925781-1.09375-6.59375-3.003906c-2.71875-3.125-7.457031-3.449218-10.578125-.730468-3.125 2.722656-3.449219 7.460937-.730469 10.582031 4.515625 5.183593 11.039063 8.152343 17.902344 8.152343 6.859375 0 13.382812-2.972656 17.898438-8.152343 2.722656-3.121094 2.398437-7.859375-.722657-10.578125zm-124.898437-.003906c-3.121094-2.71875-7.859375-2.394532-10.582032.730468-1.664062 1.910156-4.066406 3.003906-6.59375 3.003906-2.523437 0-4.925781-1.09375-6.589843-3.003906-2.722657-3.125-7.460938-3.449218-10.582031-.730468-3.125 2.722656-3.449219 7.460937-.726563 10.582031 4.515625 5.183593 11.039063 8.152343 17.898437 8.152343 6.863282 0 13.390626-2.972656 17.902344-8.152343 2.722656-3.121094 2.394532-7.859375-.726562-10.582031zm0 0"/></svg>