<svg height="511pt" viewBox="0 0 511 511.99975" width="511pt" xmlns="http://www.w3.org/2000/svg"><path d="m330.1875 504.5c-2.289062 0-4.613281-.476562-6.832031-1.480469-8.328125-3.777343-12.019531-13.59375-8.242188-21.921875 14.09375-31.085937 3.113281-66.757812-2.164062-83.902344-1.238281-4.015624-2.214844-7.1875-2.78125-9.886718-1.886719-8.949219 3.839843-17.734375 12.789062-19.617188 8.953125-1.890625 17.734375 3.839844 19.621094 12.789063.257813 1.21875 1.15625 4.144531 2.027344 6.96875 6.476562 21.039062 19.949219 64.8125.671875 107.324219-2.769532 6.113281-8.792969 9.726562-15.089844 9.726562zm0 0" fill="#efd176"/><path d="m175.425781 476.71875c-5.316406 0-10.863281-.496094-16.640625-1.488281-9.015625-1.542969-15.070312-10.105469-13.523437-19.121094 1.542969-9.011719 10.109375-15.066406 19.117187-13.523437 13.527344 2.320312 23.847656.679687 31.554688-5.007813 15.40625-11.378906 18.777344-37.40625 20.398437-49.914063.378907-2.921874.679688-5.230468 1.089844-7.183593 1.886719-8.949219 10.675781-14.679688 19.621094-12.789063 8.949219 1.882813 14.675781 10.667969 12.789062 19.617188-.144531.679687-.425781 2.859375-.652343 4.613281-2.039063 15.71875-6.808594 52.535156-33.570313 72.296875-11.261719 8.320312-24.730469 12.5-40.183594 12.5zm0 0" fill="#efd176"/><path d="m81.558594 411.457031c-7.835938 0-14.796875-5.582031-16.269532-13.5625-1.65625-8.992187 4.289063-17.628906 13.285157-19.289062 39.992187-7.371094 52.03125-32.21875 64.777343-58.523438 5.992188-12.367187 11.648438-24.046875 20.191407-33.785156 6.027343-6.878906 16.492187-7.566406 23.367187-1.535156 6.878906 6.027343 7.566406 16.492187 1.535156 23.367187-5.589843 6.378906-10.300781 16.101563-15.289062 26.394532-13.542969 27.957031-32.097656 66.242187-88.578125 76.65625-1.015625.1875-2.023437.277343-3.019531.277343zm0 0" fill="#efd176"/><path d="m402.6875 293.617188c-18.277344 0-37.257812-4.808594-54.183594-14.097657-8.019531-4.398437-10.953125-14.46875-6.550781-22.484375 4.398437-8.019531 14.464844-10.953125 22.484375-6.550781 6.84375 3.753906 31.15625 15.386719 56.753906 7.316406 16.738282-5.277343 30.253906-18.148437 40.171875-38.261719 4.046875-8.203124 13.972657-11.574218 22.179688-7.53125 8.199219 4.046876 11.570312 13.976563 7.527343 22.179688-13.875 28.128906-34.59375 47.21875-59.921874 55.203125-8.996094 2.835937-18.628907 4.226563-28.460938 4.226563zm0 0" fill="#efd176"/><path d="m185.875 81.304688c26.992188 18.902343 37.222656 53.933593 40.847656 72.195312 1.316406 6.636719-3.167968 13.046875-9.855468 14.078125-18.402344 2.839844-54.820313 5.207031-81.816407-13.691406-26.992187-18.902344-37.222656-53.933594-40.847656-72.195313-1.316406-6.636718 3.167969-13.046875 9.859375-14.078125 18.402344-2.84375 54.820312-5.210937 81.8125 13.691407zm0 0" fill="#8ee2cf"/><path d="m176.644531 136.429688c-1.484375 0-2.984375-.4375-4.296875-1.355469l-32.371094-22.667969c-3.394531-2.375-4.21875-7.050781-1.84375-10.445312 2.378907-3.390626 7.054688-4.21875 10.445313-1.84375l32.375 22.667968c3.394531 2.378906 4.21875 7.054688 1.839844 10.445313-1.457031 2.082031-3.785157 3.199219-6.148438 3.199219zm0 0" fill="#6fce91"/><path d="m275.550781 65.492188c-18.902343 26.992187-16.535156 63.410156-13.695312 81.8125 1.035156 6.6875 7.441406 11.175781 14.078125 9.859374 18.265625-3.625 53.296875-13.855468 72.195312-40.847656 18.902344-26.996094 16.535156-63.414062 13.691406-81.816406-1.03125-6.6875-7.4375-11.171875-14.074218-9.855469-18.265625 3.625-53.296875 13.855469-72.195313 40.847657zm0 0" fill="#8ee2cf"/><path d="m300.5 114.589844c-1.484375 0-2.984375-.4375-4.296875-1.355469-3.390625-2.375-4.21875-7.050781-1.839844-10.445313l22.667969-32.371093c2.375-3.394531 7.050781-4.21875 10.445312-1.84375 3.390626 2.375 4.214844 7.050781 1.839844 10.445312l-22.667968 32.371094c-1.457032 2.085937-3.785157 3.199219-6.148438 3.199219zm0 0" fill="#6fce91"/><path d="m276.394531 77.339844c5.71875 32.449218-11.816406 64.453125-22.167969 79.933594-3.761718 5.625-11.464843 6.984374-16.921874 2.984374-15.023438-11.003906-42.449219-35.082031-48.171876-67.535156-5.722656-32.449218 11.816407-64.457031 22.167969-79.933594 3.761719-5.625 11.464844-6.984374 16.921875-2.984374 15.023438 11.003906 42.449219 35.082031 48.171875 67.535156zm0 0" fill="#8ee2cf"/><path d="m236.1875 111.992188c-3.570312 0-6.734375-2.558594-7.378906-6.199219l-6.863282-38.917969c-.71875-4.078125 2.003907-7.96875 6.085938-8.6875 4.074219-.71875 7.96875 2.003906 8.6875 6.082031l6.863281 38.921875c.71875 4.078125-2.003906 7.96875-6.085937 8.6875-.4375.074219-.878906.113282-1.308594.113282zm0 0" fill="#6fce91"/><path d="m241.085938 132.242188c67.320312-11.867188 124.789062 32.664062 145.394531 111.8125 21.4375 82.328124 1.003906 150.164062-96.175781 167.300781-97.183594 17.136719-139.585938-39.621094-147.601563-124.316407-7.703125-81.425781 31.066406-142.925781 98.382813-154.796874zm0 0" fill="#f7ef87"/><g fill="#efd176"><path d="m202.078125 146.335938c-42.730469 24.933593-65.4375 76.652343-59.375 140.703124 7.996094 84.460938 50.1875 141.128907 146.796875 124.449219-129.832031-51.035156-121.214844-185.9375-87.421875-265.152343zm0 0"/><path d="m246.09375 237.382812c-1.484375 0-2.984375-.441406-4.292969-1.359374-3.394531-2.375-4.21875-7.050782-1.84375-10.445313l9.75-13.921875c2.375-3.390625 7.050781-4.214844 10.441407-1.839844l13.921874 9.746094c3.394532 2.378906 4.21875 7.054688 1.84375 10.445312-2.375 3.394532-7.050781 4.21875-10.445312 1.84375l-7.777344-5.445312-5.445312 7.777344c-1.460938 2.082031-3.789063 3.199218-6.152344 3.199218zm0 0"/><path d="m313.757812 225.449219c-1.484374 0-2.984374-.4375-4.296874-1.355469-3.390626-2.375-4.21875-7.054688-1.839844-10.445312l9.746094-13.921876c2.378906-3.394531 7.054687-4.21875 10.445312-1.839843l13.921875 9.746093c3.394531 2.375 4.21875 7.050782 1.84375 10.445313-2.375 3.390625-7.050781 4.21875-10.445313 1.839844l-7.777343-5.445313-5.449219 7.78125c-1.457031 2.082032-3.785156 3.195313-6.148438 3.195313zm0 0"/><path d="m178.433594 249.3125c-1.488282 0-2.988282-.441406-4.296875-1.359375-3.394531-2.375-4.21875-7.050781-1.839844-10.445313l9.746094-13.917968c2.375-3.394532 7.050781-4.21875 10.445312-1.84375l13.921875 9.75c3.394532 2.375 4.21875 7.050781 1.839844 10.441406-2.375 3.394531-7.050781 4.222656-10.441406 1.84375l-7.78125-5.445312-5.445313 7.777343c-1.457031 2.082031-3.785156 3.199219-6.148437 3.199219zm0 0"/><path d="m304.386719 370.128906c-1.488281 0-2.988281-.441406-4.296875-1.359375-3.394532-2.375-4.21875-7.050781-1.84375-10.445312l9.75-13.921875c2.375-3.390625 7.050781-4.21875 10.445312-1.839844l13.921875 9.746094c3.394531 2.375 4.21875 7.050781 1.839844 10.445312-2.375 3.394532-7.050781 4.21875-10.445313 1.84375l-7.777343-5.449218-5.445313 7.78125c-1.460937 2.082031-3.785156 3.199218-6.148437 3.199218zm0 0"/><path d="m236.722656 382.058594c-1.484375 0-2.984375-.441406-4.296875-1.359375-3.394531-2.375-4.21875-7.050781-1.839843-10.445313l9.746093-13.921875c2.378907-3.390625 7.054688-4.214843 10.445313-1.839843l13.921875 9.746093c3.394531 2.375 4.21875 7.054688 1.84375 10.445313-2.375 3.394531-7.050781 4.21875-10.445313 1.84375l-7.777344-5.445313-5.449218 7.777344c-1.457032 2.082031-3.785156 3.199219-6.148438 3.199219zm0 0"/></g><path d="m223.746094 323.429688c-2.246094-12.726563-17.023438-20.761719-33.007813-17.945313s-27.121093 15.421875-24.878906 28.148437c2.246094 12.730469 17.023437 20.765626 33.007813 17.949219 15.980468-2.820312 27.121093-15.421875 24.878906-28.152343zm0 0" fill="#eda1ab"/><path d="m322.773438 305.949219c2.246093 12.730469 17.019531 20.765625 33.003906 17.949219 15.984375-2.820313 27.125-15.421876 24.878906-28.152344-2.242188-12.726563-17.019531-20.761719-33.003906-17.945313-15.984375 2.816407-27.121094 15.421875-24.878906 28.148438zm0 0" fill="#eda1ab"/><path d="m210 318.476562c-1.898438 1.5-4.40625 1.941407-6.703125 1.179688-13.027344-4.332031-29.734375-15.90625-31.796875-27.605469-1.554688-8.816406 4.332031-17.222656 13.144531-18.777343 5.691407-1 11.210938 1.097656 14.824219 5.082031 2.035156-4.980469 6.503906-8.839844 12.195312-9.84375 8.8125-1.554688 17.21875 4.332031 18.773438 13.144531 2.0625 11.699219-9.679688 28.292969-20.4375 36.820312zm0 0" fill="#e26e7e"/><path d="m333.996094 296.609375c2.296875.765625 4.804687.324219 6.703125-1.179687 10.757812-8.527344 22.5-25.121094 20.4375-36.820313-1.554688-8.8125-9.960938-14.699219-18.773438-13.144531-5.691406 1.003906-10.160156 4.867187-12.195312 9.847656-3.617188-3.984375-9.132813-6.085938-14.824219-5.082031-8.816406 1.554687-14.699219 9.957031-13.144531 18.773437 2.0625 11.699219 18.769531 23.273438 31.796875 27.605469zm0 0" fill="#e26e7e"/><path d="m295.199219 294.242188c-2.765625-15.707032-14.175781-15.539063-27.859375-13.125-13.6875 2.410156-24.464844 6.15625-21.695313 21.863281 2.769531 15.703125 16.109375 26.480469 29.792969 24.066406s22.53125-17.101563 19.761719-32.804687zm0 0" fill="#4e5660"/><path d="m418.03125 441.84375c1.171875 3.917969 4.214844 6.964844 8.132812 8.132812 22.238282 6.632813 56.59375 6.800782 70.789063-7.394531 10.699219-10.699219 10.699219-28.042969 0-38.738281-6.90625-6.90625-16.582031-9.347656-25.449219-7.335938 2.011719-8.871093-.429687-18.546874-7.335937-25.453124-10.699219-10.699219-28.042969-10.699219-38.738281 0-14.199219 14.199218-14.027344 48.554687-7.398438 70.789062zm0 0" fill="#e26e7e"/><path d="m482.859375 450.714844c-40.046875-10.207032-42.460937-63.398438-34.1875-87.378906-8.238281-1.171876-16.90625 1.382812-23.242187 7.71875-14.199219 14.199218-14.027344 48.554687-7.394532 70.789062 1.167969 3.917969 4.210938 6.964844 8.132813 8.132812 16.617187 4.957032 40.007812 6.300782 56.691406.738282zm0 0" fill="#d9495d"/><path d="m95.285156 283.105469c-1.175781 3.933593-4.234375 6.992187-8.167968 8.167969-22.324219 6.660156-56.824219 6.828124-71.078126-7.425782-10.742187-10.742187-10.742187-28.15625 0-38.898437 6.933594-6.933594 16.648438-9.386719 25.554688-7.367188-2.019531-8.90625.433594-18.621093 7.367188-25.554687 10.742187-10.742188 28.15625-10.742188 38.898437 0 14.253906 14.253906 14.085937 48.75 7.425781 71.078125zm0 0" fill="#e26e7e"/><path d="m87.117188 291.273438c2.117187-.632813 3.964843-1.824219 5.417968-3.386719-33.855468-13.117188-45.296875-48.351563-42.964844-76.40625-.199218.1875-.414062.351562-.609374.546875-6.933594 6.933594-9.382813 16.648437-7.363282 25.558594-8.90625-2.023438-18.621094.429687-25.558594 7.363281-10.738281 10.742187-10.738281 28.15625 0 38.898437 14.253907 14.253906 48.753907 14.085938 71.078126 7.425782zm0 0" fill="#d9495d"/><path d="m102.472656 285.25c3.75-12.570312 5.359375-27.597656 4.425782-41.226562-.796876-11.542969-3.824219-27.386719-13.738282-37.300782-13.648437-13.648437-35.851562-13.644531-49.5 0-6.1875 6.183594-9.730468 14.253906-10.207031 22.71875-8.460937.476563-16.535156 4.019532-22.71875 10.203125-13.644531 13.648438-13.644531 35.855469 0 49.503907 9.917969 9.914062 25.757813 12.941406 37.304687 13.734374 2.542969.175782 5.132813.261719 7.746094.261719 11.402344 0 23.253906-1.636719 33.476563-4.6875 6.371093-1.898437 11.308593-6.835937 13.210937-13.207031zm-17.496094-1.164062c-26.765624 7.980468-54.511718 3.578124-63.632812-5.542969-7.800781-7.800781-7.800781-20.492188 0-28.289063 3.804688-3.804687 8.859375-5.863281 14.101562-5.863281 1.488282 0 2.996094.167969 4.492188.507813 2.507812.566406 5.140625-.191407 6.960938-2.011719 1.820312-1.820313 2.578124-4.449219 2.011718-6.960938-1.53125-6.757812.46875-13.710937 5.355469-18.597656 7.796875-7.796875 20.488281-7.796875 28.289063 0 9.121093 9.121094 13.523437 36.871094 5.542968 63.632813-.449218 1.507812-1.617187 2.675781-3.121094 3.125zm181.058594-10.355469c-7.304687 1.285156-14.824218 3.082031-20.359375 7.441406-6.691406 5.28125-9.1875 13.054687-7.417969 23.109375 1.65625 9.378906 6.441407 17.675781 13.476563 23.359375 5.890625 4.757813 12.769531 7.25 19.796875 7.25 1.730469 0 3.472656-.152344 5.207031-.457031 8.789063-1.550782 16.308594-6.855469 21.175781-14.9375 4.667969-7.746094 6.328126-17.179688 4.675782-26.558594-4.390625-24.878906-26.929688-20.90625-36.554688-19.207031zm19.03125 38.027343c-2.597656 4.3125-6.480468 7.117188-10.933594 7.902344-4.453124.785156-9.058593-.523437-12.972656-3.6875-4.21875-3.40625-7.105468-8.484375-8.128906-14.296875-1.117188-6.320312.941406-7.941406 1.933594-8.722656 2.933594-2.3125 8.558594-3.550781 13.675781-4.453125 4.148437-.730469 7.351563-1.085938 9.84375-1.085938 7.015625 0 8.398437 2.828126 9.332031 8.128907 1.023438 5.8125.046875 11.570312-2.75 16.214843zm-47.242187-31.402343c-1.101563-6.238281-4.5625-11.671875-9.75-15.304688-5.1875-3.632812-11.480469-5.027343-17.714844-3.925781-4.941406.871094-9.359375 3.226562-12.75 6.671875-4.367187-2.074219-9.328125-2.777344-14.265625-1.910156-12.875 2.269531-21.5 14.589843-19.230469 27.464843 2.890625 16.390626 24.117188 29.199219 36.816407 33.421876 1.519531.503906 3.085937.753906 4.636718.753906 3.253906 0 6.457032-1.089844 9.089844-3.175782 10.492188-8.3125 26.058594-27.605468 23.167969-43.996093zm-32.335938 32.125c-12.691406-4.277344-25.34375-14.601563-26.605469-21.734375-.832031-4.726563 2.335938-9.253906 7.066407-10.085938.507812-.089844 1.019531-.132812 1.523437-.132812 2.433594 0 4.765625 1.019531 6.441406 2.867187 1.730469 1.910157 4.320313 2.792969 6.859376 2.347657 2.535156-.445313 4.664062-2.164063 5.640624-4.550782 1.140626-2.792968 3.589844-4.773437 6.550782-5.296875 2.289062-.402343 4.601562.109375 6.507812 1.445313 1.902344 1.332031 3.175782 3.328125 3.578125 5.617187 1.257813 7.136719-7.101562 21.164063-17.5625 29.523438zm296.769531 86.058593c-6.15625-6.15625-14.191406-9.691406-22.617187-10.171874-.476563-8.425782-4.011719-16.457032-10.167969-22.617188-13.605468-13.601562-35.742187-13.605469-49.347656 0-9.878906 9.882812-12.894531 25.667969-13.6875 37.167969-.933594 13.578125.671875 28.546875 4.40625 41.070312h.003906c1.894532 6.355469 6.820313 11.28125 13.175782 13.175781 10.183593 3.039063 21.988281 4.667969 33.347656 4.667969 2.605468 0 5.1875-.085937 7.71875-.261719 11.503906-.789062 27.289062-3.804687 37.167968-13.6875 6.589844-6.589843 10.222657-15.351562 10.222657-24.671874-.003907-9.320313-3.632813-18.082032-10.222657-24.671876zm-10.605468 38.738282c-9.078125 9.078125-36.699219 13.460937-63.34375 5.511718-1.488282-.445312-2.644532-1.601562-3.089844-3.089843-7.945312-26.644531-3.566406-54.265625 5.515625-63.34375 7.753906-7.753907 20.375-7.753907 28.128906 0 4.859375 4.859375 6.851563 11.773437 5.324219 18.492187-.566406 2.511719.191406 5.140625 2.011719 6.960938 1.820312 1.824218 4.449219 2.582031 6.964843 2.011718 6.714844-1.523437 13.628907.464844 18.488282 5.324219 3.757812 3.757813 5.824218 8.753907 5.824218 14.066407s-2.066406 10.308593-5.824218 14.066406zm-150.59375-199.199219c-4.941406.871094-9.355469 3.230469-12.75 6.671875-4.367188-2.074219-9.320313-2.78125-14.265625-1.910156-12.875 2.273437-21.5 14.59375-19.230469 27.464844 2.890625 16.390624 24.117188 29.199218 36.816406 33.421874 1.519532.503907 3.085938.753907 4.640625.753907 3.253907 0 6.453125-1.089844 9.085938-3.175781 10.492187-8.3125 26.058593-27.609376 23.167969-44-2.269532-12.871094-14.578126-21.492188-27.464844-19.226563zm-4.871094 51.355469c-12.691406-4.277344-25.34375-14.597656-26.601562-21.734375-.835938-4.726563 2.332031-9.25 7.058593-10.082031.511719-.09375 1.023438-.136719 1.527344-.136719 2.433594 0 4.765625 1.019531 6.441406 2.871093 1.730469 1.910157 4.320313 2.792969 6.859375 2.347657 2.535156-.449219 4.664063-2.164063 5.640625-4.550781 1.140625-2.792969 3.589844-4.773438 6.550781-5.296876 4.738282-.832031 9.253907 2.335938 10.085938 7.0625 1.257812 7.132813-7.097656 21.160157-17.5625 29.519532zm161.609375-51.929688c5.867187-11.898437.960937-26.351562-10.9375-32.222656-11.898437-5.863281-26.351563-.957031-32.222656 10.9375-8.976563 18.207031-20.992188 29.789062-35.703125 34.429688-7.058594 2.222656-14.664063 2.90625-22.65625 2.082031-.769532-3.476563-1.609375-6.992188-2.539063-10.566407-10.546875-40.507812-30.554687-73.042968-57.859375-94.085937-1.929687-1.488281-3.890625-2.90625-5.875-4.265625 9.96875-6.625 18.105469-14.394531 24.269532-23.195312 6.597656-9.421876 11.339843-20.625 14.097656-33.296876.878906-4.046874-1.6875-8.039062-5.734375-8.921874-4.050781-.878907-8.042969 1.691406-8.925781 5.738281-2.328126 10.710937-6.273438 20.09375-11.726563 27.878906-6.300781 8.996094-15.25 16.78125-26.617187 23.175781-11.46875-5.71875-23.605469-9.476562-36.21875-11.222656 5.6875-16.9375 7.257812-33.023438 4.628906-47.933594-.417969-2.367187-.949219-4.6875-1.5625-6.96875 7.742187-10.707031 26.445312-29.019531 66.992187-37.066406 1.601563-.320312 2.800781.3125 3.378907.714844.574218.402344 1.574218 1.320312 1.824218 2.929687.773438 5.023438 1.3125 10.121094 1.59375 15.160157.234375 4.136718 3.78125 7.300781 7.910156 7.066406 4.132813-.230469 7.300782-3.773438 7.066407-7.90625-.308594-5.519532-.898438-11.109375-1.746094-16.609375-.816406-5.273438-3.671875-9.867188-8.046875-12.929688s-9.664062-4.179687-14.902344-3.136719c-17.972656 3.566407-49.320312 12.796876-70.207031 35.613282-11.304687-22.976563-30.871094-39.953125-43.421875-49.148438-4.304688-3.152344-9.574219-4.378906-14.832031-3.453125-5.261719.929688-9.792969 3.882813-12.757813 8.316407-8.652344 12.9375-21.226562 35.582031-23.992187 61.039062-27.429688-14.296875-60.046875-12.253906-78.15625-9.457031-5.273438.8125-9.867188 3.671875-12.929688 8.046875s-4.179687 9.667968-3.140625 14.902344c3.972656 20.011718 14.957032 56.609374 43.902344 76.878906 8.800781 6.164062 19.105469 10.679687 30.738281 13.5-1.398437 1.953125-2.753906 3.953125-4.0625 6.011718-18.460937 29.117188-26.132812 66.53125-22.1875 108.203126.816407 8.660156 1.976563 16.910156 3.460938 24.765624-.667969 1.371094-1.339844 2.738282-2.015625 4.128907l-.085938.175781c-12.40625 25.613281-23.125 47.734375-59.386718 54.417969-13.046876 2.40625-21.703126 14.976562-19.296876 28.023437 2.101563 11.417969 12.046876 19.703125 23.640626 19.703125 1.464843 0 2.9375-.136719 4.382812-.402343 40.011719-7.375 61.699219-28.160157 74.824219-46.679688 7.144531 11.210938 15.6875 20.621094 25.617187 28.183594 5.515625 4.203125 11.445313 7.777344 17.746094 10.769531-3.078125 9.816406-7.316406 16.777344-12.648438 20.714844-5.972656 4.414062-14.417968 5.609375-25.828124 3.652343-6.328126-1.085937-12.707032.359376-17.957032 4.070313-5.246094 3.710937-8.734375 9.246094-9.820312 15.578125-.914063 5.316406-.054688 10.636719 2.480468 15.386719 1.351563 2.527343 3.941407 3.96875 6.621094 3.96875 1.191406 0 2.402344-.285157 3.527344-.886719 3.652344-1.949219 5.035156-6.492188 3.082031-10.148438-.953125-1.78125-1.273437-3.78125-.929687-5.785156.40625-2.382812 1.722656-4.46875 3.699218-5.867187 1.976563-1.394531 4.378907-1.9375 6.761719-1.53125 15.644531 2.679687 27.839844.597656 37.273438-6.371094 7.714843-5.699219 13.65625-14.871094 17.730469-27.316406 5.640624 1.757812 11.546874 3.089843 17.703124 4.023437-5.300781 16.953125-13.574218 29.679688-24.664062 37.871094-9.367188 6.914062-20.625 10.613281-33.464844 10.996094-4.140625.121094-7.394531 3.578125-7.273437 7.71875.121093 4.0625 3.457031 7.277344 7.496093 7.277344.074219 0 .148438 0 .226563-.003907 15.949219-.472656 30.054687-5.15625 41.925781-13.921875 14.394532-10.632812 24.789063-26.941406 30.972656-48.5 2.148438.089844 4.316407.148438 6.523438.148438 10.71875 0 22.078125-1.050782 34.042969-3.160156 6.457031-1.140626 12.636719-2.511719 18.546875-4.109376 3.664062 14.441407 8.375 40.765626-1.871094 63.367188-5.476562 12.082031-.105469 26.371094 11.976562 31.847656 3.148438 1.429688 6.488282 2.152344 9.929688 2.152344 9.421875 0 18.027344-5.546875 21.921875-14.128906 18.40625-40.59375 8.5-82.53125 2.597656-102.890625 12.070313-8.179688 21.894531-18.117188 29.386719-29.789063 11.433594-17.804687 17.308594-39.246094 17.628906-64.085937.320313.003906.644532.011719.964844.011719 10.746094 0 21.082031-1.539063 30.714844-4.574219 27.324218-8.613281 49.59375-29.03125 64.394531-59.039063zm-280.261719-220.546875c.90625-1.351562 2.203125-1.761719 2.894532-1.882812.6875-.121094 2.046874-.183594 3.363281.78125 34.113281 24.988281 42.96875 50.0625 45.214843 62.785156 2.371094 13.441406.554688 28.292969-5.363281 44.199219-7.824219-.066406-15.792969.597656-23.859375 2.019531s-15.777344 3.523437-23.105468 6.261719c-11.003907-12.921875-17.789063-26.257813-20.160157-39.699219-2.242187-12.722656-2.496093-39.3125 21.015625-74.464844zm-78.179687 130.785157c-10.582031-7.410157-29.5625-26.03125-37.792969-67.511719-.320312-1.601563.308594-2.804688.710938-3.378907.402343-.574218 1.320312-1.578124 2.933593-1.828124 40.859375-6.308594 64.691407 4.507812 75.625 11.917968.203125 2.351563.5 4.714844.917969 7.085938 2.628906 14.90625 9.605469 29.488281 20.742188 43.457031-11.253907 5.953125-21.375 13.636719-30.191407 22.933594-12.875-2.121094-23.949219-6.375-32.945312-12.675781zm-56.136719 256.0625c-.546875.101562-1.109375.152343-1.660156.152343-4.359375 0-8.101563-3.121093-8.890625-7.421875-.90625-4.914062 2.351562-9.648437 7.265625-10.554687 37.304687-6.875 52.5625-28.078125 64.3125-50.8125 2.390625 7.800781 5.1875 15.09375 8.386718 21.878906-11.667968 18.589844-30.382812 39.5625-69.414062 46.757813zm255.230469 87.875c-1.46875 3.230468-4.710938 5.320312-8.265625 5.320312-1.285156 0-2.539063-.269531-3.730469-.8125-4.550781-2.0625-6.574219-7.441406-4.511719-11.992188 5.859375-12.925781 8.34375-27.871093 7.371094-44.425781-.65625-11.242187-2.78125-21.550781-4.847656-29.628906 5.945312-2.15625 11.5625-4.574219 16.839844-7.261719 6.941406 25.761719 11.320312 57.527344-2.855469 88.800782zm33.023437-134.589844c-15.535156 24.195312-43.28125 39.96875-82.472656 46.878906-39.183594 6.910156-70.65625 1.582031-93.53125-15.84375-11.023438-8.398438-20.128906-19.570312-27.285156-33.433594-.175782-.457031-.398438-.898437-.664063-1.316406-5.886719-11.742188-10.40625-25.371094-13.535156-40.839844-.039063-.300781-.105469-.59375-.179687-.882812-1.578126-7.960938-2.789063-16.402344-3.632813-25.320313-3.628906-38.332031 3.261719-72.480469 19.925781-98.757812 3.167969-4.996094 6.65625-9.640625 10.4375-13.929688.082032-.085937.160156-.175781.242188-.269531 15.828125-17.8125 36.828125-29.375 61.613281-33.746094 6.777344-1.195312 13.46875-1.789062 20.050781-1.789062 17.386719 0 33.96875 4.152344 49.128906 12.289062.011719.007813.019532.011719.03125.015625 5.214844 2.800781 10.265626 6.070313 15.121094 9.8125 24.644532 18.992188 42.800782 48.726563 52.5 85.984375 4.390625 16.863282 6.847656 32.496094 7.398438 46.871094-.03125.507812-.011719 1.003906.058594 1.488281.726562 24.855469-4.34375 45.871094-15.207032 62.789063zm31.214844-70.972656c-.464844 0-.941406-.007813-1.417969-.015626-.417969-5.863281-1.117187-11.902343-2.097656-18.101562 8.445313.390625 16.574219-.621094 24.269531-3.046875 18.765625-5.914063 33.789063-20.078125 44.648438-42.097656 2.207031-4.480469 7.648437-6.328125 12.132812-4.121094 4.480469 2.210937 6.328125 7.65625 4.121094 12.136719-12.949219 26.25-32.121094 44.011718-55.449219 51.367187-8.171875 2.574219-16.992187 3.878907-26.207031 3.878907zm0 0"/></svg>