<svg height="512pt" viewBox="-13 0 512 512.00001" width="512pt" xmlns="http://www.w3.org/2000/svg"><path d="m221.179688 504.5c-1.171876 0-2.359376-.117188-3.550782-.367188-9.339844-1.953124-15.324218-11.101562-13.375-20.4375 7.882813-37.714843 43.054688-75.910156 63.371094-91.125 7.632812-5.71875 18.460938-4.164062 24.175781 3.46875 5.71875 7.636719 4.164063 18.460938-3.46875 24.179688-14.6875 10.996094-44.503906 42.976562-50.265625 70.539062-1.699218 8.148438-8.882812 13.742188-16.886718 13.742188zm0 0" fill="#efd176"/><path d="m115.882812 485.421875c-3.035156 0-6.109374-.800781-8.898437-2.484375-8.167969-4.921875-10.800781-15.535156-5.875-23.707031 19.648437-32.59375 40.980469-46.820313 56.554687-57.210938 4.878907-3.253906 9.085938-6.058593 12.632813-8.972656 7.375-6.054687 18.257813-4.984375 24.308594 2.386719 6.054687 7.371094 4.984375 18.253906-2.386719 24.308594-4.875 4-9.980469 7.40625-15.386719 11.011718-14.285156 9.53125-30.480469 20.332032-46.140625 46.308594-3.242187 5.378906-8.953125 8.359375-14.808594 8.359375zm0 0" fill="#efd176"/><path d="m384.808594 436.535156c-1.765625 0-3.566406-.273437-5.339844-.851562-37.667969-12.238282-63.699219-50.972656-79.570312-118.417969-2.183594-9.285156 3.570312-18.582031 12.859374-20.769531 9.277344-2.183594 18.582032 3.574218 20.765626 12.859375 12.695312 53.945312 31.746093 85.394531 56.621093 93.476562 9.070313 2.949219 14.035157 12.691407 11.089844 21.765625-2.375 7.296875-9.144531 11.9375-16.425781 11.9375zm0 0" fill="#efd176"/><path d="m42.484375 420.664062c-8.265625 0-15.570313-5.953124-17.003906-14.375-1.601563-9.402343 4.722656-18.324218 14.125-19.925781 12.421875-2.117187 26.070312-16.335937 39.46875-41.117187 13.171875-24.371094 23.289062-53.546875 30.675781-74.851563 3.125-9.015625 12.960938-13.785156 21.976562-10.660156 9.011719 3.121094 13.785157 12.960937 10.660157 21.972656-16.839844 48.570313-45.023438 129.859375-96.980469 138.707031-.980469.167969-1.957031.25-2.921875.25zm0 0" fill="#efd176"/><path d="m212.765625 67.984375c19.710937 28.148437 17.242187 66.128906 14.28125 85.324219-1.078125 6.972656-7.757813 11.652344-14.679687 10.277344-19.050782-3.777344-55.582032-14.449219-75.296876-42.601563-19.710937-28.148437-17.242187-66.128906-14.277343-85.324219 1.074219-6.972656 7.757812-11.652344 14.679687-10.277344 19.046875 3.777344 55.582032 14.449219 75.292969 42.601563zm0 0" fill="#8ee2cf"/><path d="m186.746094 118.867188c-2.363282 0-4.691406-1.117188-6.152344-3.199219l-23.640625-33.761719c-2.375-3.394531-1.550781-8.070312 1.84375-10.445312s8.066406-1.550782 10.445313 1.839843l23.640624 33.761719c2.375 3.394531 1.550782 8.070312-1.84375 10.445312-1.308593.917969-2.808593 1.359376-4.292968 1.359376zm0 0" fill="#6fce91"/><path d="m306.285156 84.472656c-28.148437 19.710938-38.820312 56.246094-42.601562 75.292969-1.371094 6.921875 3.304687 13.605469 10.28125 14.683594 19.191406 2.960937 57.171875 5.429687 85.324218-14.28125 28.148438-19.710938 38.820313-56.246094 42.601563-75.292969 1.375-6.921875-3.304687-13.605469-10.28125-14.683594-19.191406-2.960937-57.171875-5.429687-85.324219 14.28125zm0 0" fill="#8ee2cf"/><path d="m315.914062 141.640625c-2.363281 0-4.691406-1.113281-6.152343-3.199219-2.375-3.390625-1.550781-8.070312 1.84375-10.445312l33.761719-23.640625c3.394531-2.375 8.070312-1.550781 10.445312 1.84375 2.375 3.390625 1.550781 8.070312-1.84375 10.445312l-33.761719 23.640625c-1.308593.914063-2.808593 1.355469-4.292969 1.355469zm0 0" fill="#6fce91"/><path d="m302.886719 96.382812c-5.964844 33.84375-34.566407 58.953126-50.234375 70.429688-5.691406 4.167969-13.726563 2.753906-17.648438-3.113281-10.796875-16.140625-29.085937-49.519531-23.117187-83.363281s34.566406-58.957032 50.234375-70.429688c5.691406-4.171875 13.726562-2.753906 17.648437 3.109375 10.796875 16.144531 29.085938 49.523437 23.117188 83.367187zm0 0" fill="#8ee2cf"/><path d="m253.816406 116.15625c-.429687 0-.867187-.039062-1.308594-.117188-4.082031-.71875-6.804687-4.609374-6.085937-8.6875l7.15625-40.589843c.722656-4.078125 4.605469-6.800781 8.691406-6.082031 4.078125.71875 6.800781 4.609374 6.082031 8.6875l-7.15625 40.589843c-.640624 3.636719-3.804687 6.199219-7.378906 6.199219zm0 0" fill="#6fce91"/><path d="m248.707031 137.597656c70.203125 12.378906 110.640625 76.519532 102.601563 161.433594-8.359375 88.332031-52.578125 147.523438-153.929688 129.652344-101.351562-17.871094-122.660156-88.617188-100.304687-174.480469 21.492187-82.542969 81.425781-128.984375 151.632812-116.605469zm0 0" fill="#f7ef87"/><g fill="#efd176"><path d="m205.449219 137.492188c-50.769531 9.195312-91.46875 51.777343-108.375 116.710937-22.292969 85.625-1.15625 156.210937 99.46875 174.324219-109.03125-96.324219-52.46875-225.457032 8.90625-291.035156zm0 0"/><path d="m243.488281 246.855469c-2.363281 0-4.691406-1.113281-6.148437-3.199219l-5.859375-8.363281-8.367188 5.855469c-3.394531 2.378906-8.066406 1.550781-10.445312-1.839844-2.375-3.394532-1.550781-8.070313 1.84375-10.445313l14.507812-10.160156c3.398438-2.378906 8.070313-1.550781 10.445313 1.84375l10.160156 14.507813c2.378906 3.394531 1.554688 8.070312-1.839844 10.445312-1.3125.917969-2.8125 1.355469-4.296875 1.355469zm0 0"/><path d="m314.007812 259.289062c-2.367187 0-4.691406-1.113281-6.152343-3.199218l-5.855469-8.363282-8.367188 5.855469c-3.394531 2.378907-8.070312 1.550781-10.445312-1.839843-2.375-3.394532-1.550781-8.070313 1.84375-10.445313l14.507812-10.160156c1.628907-1.140625 3.644532-1.585938 5.605469-1.242188 1.957031.34375 3.699219 1.453125 4.839844 3.085938l10.160156 14.507812c2.375 3.394531 1.550781 8.070313-1.84375 10.445313-1.308593.917968-2.808593 1.355468-4.292969 1.355468zm0 0"/><path d="m172.96875 234.421875c-2.367188 0-4.691406-1.113281-6.152344-3.199219l-5.855468-8.367187-8.367188 5.859375c-3.394531 2.378906-8.066406 1.550781-10.441406-1.84375-2.378906-3.390625-1.554688-8.066406 1.839844-10.441406l14.511718-10.160157c1.628906-1.140625 3.640625-1.589843 5.601563-1.246093 1.960937.347656 3.699219 1.457031 4.839843 3.085937l10.160157 14.507813c2.375 3.394531 1.550781 8.070312-1.839844 10.445312-1.3125.917969-2.8125 1.359375-4.296875 1.359375zm0 0"/><path d="m253.257812 397.804688c-2.363281 0-4.691406-1.113282-6.148437-3.195313l-5.863281-8.378906-8.375 5.867187c-3.394532 2.375-8.070313 1.550782-10.445313-1.84375-2.378906-3.390625-1.554687-8.066406 1.839844-10.445312l14.519531-10.164063c1.628906-1.140625 3.644532-1.589843 5.601563-1.246093 1.960937.347656 3.703125 1.457031 4.84375 3.085937l10.167969 14.519531c2.375 3.394532 1.550781 8.070313-1.84375 10.445313-1.3125.917969-2.8125 1.355469-4.296876 1.355469zm0 0"/><path d="m182.695312 385.363281c-2.367187 0-4.691406-1.113281-6.152343-3.199219l-5.863281-8.375-8.375 5.867188c-3.390626 2.375-8.070313 1.550781-10.445313-1.84375s-1.550781-8.070312 1.84375-10.445312l14.515625-10.167969c3.390625-2.375 8.070312-1.550781 10.445312 1.84375l10.167969 14.519531c2.375 3.390625 1.550781 8.066406-1.84375 10.445312-1.308593.914063-2.808593 1.355469-4.292969 1.355469zm0 0"/></g><path d="m164.148438 315.359375c2.339843-13.273437-9.277344-26.417969-25.949219-29.355469-16.667969-2.941406-32.078125 5.441406-34.417969 18.714844s9.273438 26.417969 25.945312 29.355469c16.671876 2.941406 32.082032-5.4375 34.421876-18.714844zm0 0" fill="#eda1ab"/><path d="m267.363281 333.59375c-2.339843 13.273438 9.273438 26.417969 25.945313 29.359375 16.671875 2.9375 32.082031-5.441406 34.421875-18.71875 2.339843-13.273437-9.277344-26.417969-25.949219-29.355469-16.667969-2.9375-32.078125 5.441406-34.417969 18.714844zm0 0" fill="#eda1ab"/><path d="m231.238281 315.675781c1.507813-8.550781-3.316406-16.550781-10.773437-17.867187-7.457032-1.3125-14.726563 4.554687-16.230469 13.105468-1.507813 8.554688 3.3125 16.554688 10.773437 17.867188 7.457032 1.316406 14.722657-4.550781 16.230469-13.105469zm0 0" fill="#4e5660"/><path d="m432.34375 271.648438c-10.582031-10.582032-14.417969-25.351563-11.519531-38.976563 1.15625-5.417969-4.441407-9.847656-9.425781-7.441406-17.597657 8.5-29.507813 26.917969-28.46875 48 1.265624 25.707031 22.128906 46.566406 47.832031 47.835937 21.085937 1.039063 39.5-10.871094 48-28.46875 2.410156-4.988281-2.023438-10.582031-7.4375-9.429687-13.625 2.902343-28.394531-.933594-38.980469-11.519531zm0 0" fill="#a3defe"/><path d="m44.390625 182.039062c0 4.140626 3.359375 7.5 7.5 7.5h19.351563l-24.261719 20.011719c-3.902344 3.214844-5.316407 8.367188-3.609375 13.125 1.710937 4.753907 6.078125 7.828125 11.132812 7.828125h28.183594c4.140625 0 7.5-3.355468 7.5-7.5 0-4.140625-3.359375-7.5-7.5-7.5h-19.351562l24.265624-20.011718c3.898438-3.214844 5.3125-8.367188 3.605469-13.121094-1.710937-4.757813-6.078125-7.832032-11.132812-7.832032h-28.183594c-4.140625 0-7.5 3.359376-7.5 7.5zm8.875-28.050781c0-4.140625-3.359375-7.5-7.5-7.5h-26.449219l31.386719-25.886719c4.152344-3.421874 5.660156-8.90625 3.839844-13.96875-1.816407-5.0625-6.46875-8.335937-11.851563-8.335937h-33.152344c-4.144531 0-7.5 3.359375-7.5 7.5 0 4.144531 3.355469 7.5 7.5 7.5h26.445313l-31.386719 25.886719c-4.148437 3.421875-5.65625 8.90625-3.835937 13.96875 1.816406 5.0625 6.46875 8.335937 11.847656 8.335937h33.15625c4.140625 0 7.5-3.359375 7.5-7.5zm339.195313 241.710938c-16.339844-5.308594-30.207032-23.09375-41.242188-52.867188 3.554688-13.097656 6.078125-27.46875 7.558594-43.09375 4.105468-43.390625-3.878906-82.339843-23.09375-112.640625-1.445313-2.277344-2.953125-4.488281-4.503906-6.640625 12.285156-2.921875 23.148437-7.660156 32.410156-14.144531 12.308594-8.617188 22.675781-20.933594 30.8125-36.601562 1.910156-3.675782.480468-8.207032-3.195313-10.113282-3.675781-1.910156-8.203125-.480468-10.113281 3.199219-7.015625 13.503906-15.796875 24.007813-26.105469 31.226563-9.464843 6.628906-21.113281 11.089843-34.65625 13.300781-9.289062-9.820313-19.96875-17.917969-31.863281-24.160157 11.722656-14.617187 19.054688-29.878906 21.804688-45.480468.445312-2.511719.753906-5.015625.964843-7.511719 11.386719-7.757813 36.351563-19.1875 79.230469-12.566406 1.332031.207031 2.492188.929687 3.269531 2.039062.777344 1.105469 1.058594 2.445313.796875 3.769531-.546875 2.753907-1.175781 5.542969-1.871094 8.289063-1.015624 4.015625 1.417969 8.09375 5.433594 9.109375.617188.15625 1.234375.230469 1.84375.230469 3.355469 0 6.40625-2.265625 7.265625-5.664063.757813-2.992187 1.445313-6.039062 2.042969-9.046875 1.0625-5.371093-.082031-10.804687-3.222656-15.292969-3.144532-4.488281-7.855469-7.421874-13.269532-8.257812-18.9375-2.925781-53.121093-5.066406-81.730468 10.042969-2.773438-26.671875-15.960938-50.4375-25.019532-63.976563-3.046874-4.554687-7.695312-7.585937-13.09375-8.535156-5.398437-.957031-10.804687.304688-15.222656 3.542969-13.140625 9.625-33.664062 27.445312-45.390625 51.558593-21.71875-23.980468-54.570312-33.660156-73.367187-37.390624-5.371094-1.066407-10.804688.078124-15.292969 3.222656-4.488281 3.144531-7.421875 7.855468-8.257813 13.269531-3.242187 20.980469-5.527343 60.671875 15.546876 90.769531 6.488281 9.265625 15.074218 17.429688 25.621093 24.375-2.199219 1.496094-4.367187 3.054688-6.503906 4.703125-28.421875 21.902344-49.246094 55.773438-60.230469 97.949219-6.714844 25.800781-9.359375 49.230469-7.96875 70.167969-3.171875 7.117187-6.246094 13.417969-9.371094 19.199219-11.910156 22.03125-24.351562 35.625-34.128906 37.289062-13.464844 2.292969-22.550781 15.113281-20.261718 28.578125 2.039062 11.945313 12.300781 20.617187 24.402343 20.617187 1.390625 0 2.796875-.121093 4.175781-.355468 20.714844-3.527344 39.796876-17.683594 56.839844-42.105469 7.445313 10.140625 16.738282 18.898437 27.816406 26.261719-10.765624 9.019531-24.035156 22.488281-36.636718 43.394531-7.050782 11.699219-3.269532 26.953125 8.429687 34.003906 3.863281 2.328125 8.277344 3.558594 12.769531 3.558594 3.417969 0 6.738282-.691406 9.875-2.046875 3.800782-1.644531 5.546876-6.0625 3.902344-9.863281-1.644531-3.800781-6.0625-5.550781-9.863281-3.902344-2.847656 1.230469-6.261719 1.023437-8.9375-.59375-4.617187-2.78125-6.105469-8.796875-3.324219-13.410156 13.253906-21.996094 27.277344-34.964844 37.703125-43.105469 6.582031 3.296875 13.660157 6.199219 21.222657 8.703125-9.078126 6.242187-18.929688 13.800781-28.851563 25.652344-2.660156 3.175781-2.238281 7.90625.9375 10.5625 1.402344 1.175781 3.109375 1.75 4.808594 1.75 2.144531 0 4.273437-.914063 5.757812-2.683594 10.847657-12.960937 21.539063-20.09375 31.882813-26.992187 1.640625-1.09375 3.109375-2.078126 4.527344-3.042969 3.441406.773437 6.953124 1.484375 10.554687 2.121093 6.785156 1.195313 13.375 2.054688 19.777344 2.597657-9.597657 14.992187-16.089844 29.839843-18.941407 43.492187-1.355468 6.476563-.105468 13.089844 3.519532 18.628906 3.621094 5.535157 9.183594 9.328126 15.660156 10.683594 1.675781.351563 3.386719.527344 5.085938.527344 11.652343 0 21.84375-8.289062 24.226562-19.707031 5.289062-25.292969 33.960938-55.992188 47.421875-66.074219 1.339844-1.003906 2.582031-2.164062 3.714844-3.457031 3.109375-1.886719 6.125-3.914063 9.023437-6.121094 6.664063-5.078125 12.726563-10.957031 18.191406-17.621094 14.378907 22.230469 32.300782 36.941407 53.394532 43.796875 2.484375.804688 5.058594 1.214844 7.65625 1.214844 10.761718 0 20.230468-6.878906 23.558594-17.117188 2.042968-6.292968 1.515624-13.007812-1.488282-18.902343-3.007812-5.894531-8.125-10.265625-14.417968-12.3125zm-173.1875-314.0625c.527343-3 1.257812-5.929688 2.152343-8.785157.039063-.113281.078125-.226562.113281-.339843 8.433594-26.488281 31.246094-46.46875 45.015626-56.554688 1.089843-.796875 2.421874-1.109375 3.753906-.875 1.332031.238281 2.480468.984375 3.230468 2.105469 24.582032 36.75 24.3125 64.578125 21.964844 77.890625-2.492187 14.136719-9.640625 28.152344-21.242187 41.730469-7.6875-2.890625-15.78125-5.105469-24.253907-6.597656-8.46875-1.492188-16.832031-2.179688-25.046874-2.09375-6.257813-16.730469-8.179688-32.34375-5.6875-46.480469zm-76.058594 35.046875c-7.753906-11.074219-19.757813-36.179688-13.011719-79.878906.207031-1.332032.929687-2.496094 2.039063-3.269532 1.105468-.777344 2.445312-1.0625 3.769531-.796875 42.554687 8.445313 62.101562 27.722657 70.152343 38.910157-.65625 2.414062-1.222656 4.875-1.664062 7.386718-2.753906 15.597656-1.078125 32.449219 4.9375 50.195313-13.3125 1.800781-26.117188 5.753906-38.207031 11.804687-11.96875-6.710937-21.386719-14.886718-28.015625-24.351562zm-99.066406 296.335937c-.550782.097657-1.109376.144531-1.660157.144531-4.769531 0-8.8125-3.421874-9.613281-8.132812-.90625-5.3125 2.679688-10.371094 7.992188-11.273438 14.988281-2.554687 30.0625-17.675781 44.804687-44.945312.089844-.167969.179687-.339844.273437-.511719 2.171876 8.304688 5.132813 16.105469 8.894532 23.390625-15.640625 24.359375-32.679688 38.261719-50.691406 41.328125zm209.792968 31.640625c-8.660156 11.085938-19.714844 27.8125-23.21875 44.566406-.9375 4.503907-4.953125 7.773438-9.542968 7.773438-.671876 0-1.351563-.070312-2.019532-.207031-2.554687-.535157-4.746094-2.03125-6.175781-4.214844-1.429687-2.1875-1.921875-4.796875-1.390625-7.351563 2.945312-14.082031 10.496094-29.890624 21.90625-45.898437 9.53125-.109375 18.578125-1.035156 27.121094-2.769531-2.21875 2.554687-4.457032 5.253906-6.679688 8.101562zm64.652344-63.921875c-.277344.34375-.523438.710938-.734375 1.09375-6.121094 9.042969-13.25 16.683594-21.382813 22.878907-23.933593 18.226562-56.839843 23.808593-97.792968 16.585937-40.964844-7.222656-69.972656-23.71875-86.226563-49.035156-8.742187-13.613281-13.890625-29.765625-15.460937-48.320313.015625-.558594-.03125-1.113281-.136719-1.65625-1.414063-19.496094 1.070313-41.605468 7.472656-66.195312 10.136719-38.925782 29.105469-69.996094 54.867188-89.847656 5.0625-3.902344 10.332031-7.3125 15.769531-10.238282.019531-.011718.042969-.019531.0625-.03125 15.863281-8.515625 33.210938-12.863281 51.402344-12.863281 6.878906 0 13.882812.621094 20.96875 1.871094 25.921875 4.570312 47.886718 16.664062 64.4375 35.296875.082031.089844.160156.183594.246094.273437 3.960937 4.488281 7.613281 9.347657 10.925781 14.578125 17.417969 27.464844 24.621093 63.148438 20.832031 103.195313-1.457031 15.390625-3.96875 29.414062-7.507812 42.0625-.167969.4375-.292969.886719-.378907 1.347656-4.316406 15-10.109375 28.015625-17.363281 39.003906zm75.507812 41.539063c-1.316406 4.042968-5.046874 6.757812-9.292968 6.757812-1.019532 0-2.035156-.160156-3.019532-.484375-19.527343-6.339843-35.453124-20.375-48.59375-42.8125 4.050782-6.5625 7.652344-13.703125 10.800782-21.410156 11.773437 24.675781 26.46875 39.996094 43.832031 45.636719 2.480469.808594 4.5 2.535156 5.6875 4.859375 1.183594 2.324219 1.390625 4.972656.585937 7.453125zm89.789063-141.308594c-3.378906-4.304688-8.792969-6.273438-14.128906-5.136719-11.683594 2.488281-23.6875-1.058593-32.113281-9.484375 0 0 0 0 0-.003906-8.429688-8.425781-11.976563-20.429688-9.488282-32.109375 1.136719-5.339844-.832031-10.753906-5.136718-14.132813-4.289063-3.367187-9.992188-3.988281-14.890626-1.625-21.011718 10.152344-33.847656 31.789063-32.695312 55.125 1.449219 29.367188 25.589844 53.503907 54.957031 54.953126.96875.046874 1.933594.070312 2.894531.070312 22.214844 0 42.496094-12.625 52.226563-32.765625 2.363281-4.894531 1.742187-10.597656-1.625-14.890625zm-52.757813 32.605469c-21.757812-1.074219-39.640624-18.957031-40.714843-40.710938-.824219-16.746093 8.058593-32.316406 22.75-40.125-2.890625 16.152344 2.230469 32.574219 13.871093 44.214844 11.644532 11.644531 28.066407 16.761719 44.214844 13.871094-7.808594 14.691406-23.375 23.566406-40.121094 22.75zm-140.039062-11.988281c-1.5 1.210937-3.441406 1.71875-5.339844 1.382812-1.890625-.332031-3.546875-1.472656-4.542968-3.125-2.136719-3.546875-6.75-4.691406-10.296876-2.550781-3.546874 2.136719-4.6875 6.746093-2.550781 10.292969 3.238281 5.367187 8.625 9.070312 14.785157 10.15625 1.25.21875 2.507812.328124 3.757812.328124 4.914062 0 9.726562-1.675781 13.613281-4.816406 3.222657-2.601562 3.722657-7.324218 1.121094-10.546875-2.601563-3.222656-7.324219-3.722656-10.546875-1.121093zm-69.339844-11.148438c-11.515625-2.027344-22.695312 6.578125-24.921875 19.1875-2.222656 12.613281 5.339844 24.527344 16.855469 26.554688 1.136719.203124 2.265625.296874 3.386719.296874 10.246093 0 19.53125-8.113281 21.535156-19.484374 2.226563-12.613282-5.335937-24.523438-16.855469-26.554688zm2.085938 23.953125c-.773438 4.390625-4.234375 7.605469-7.546875 7.019531-3.3125-.585937-5.460938-4.789062-4.6875-9.179687.710937-4.042969 3.699219-7.089844 6.757812-7.089844.261719 0 .523438.019531.785157.066406 3.316406.585938 5.464843 4.789063 4.691406 9.183594zm-61.171875-35.449219c-1.5 1.210938-3.449219 1.71875-5.339844 1.382813-1.890625-.335938-3.546875-1.472657-4.542969-3.125-2.136718-3.550781-6.746094-4.691407-10.292968-2.554688-3.546876 2.136719-4.691407 6.746094-2.554688 10.292969 3.234375 5.371094 8.621094 9.070312 14.785156 10.15625 1.25.222656 2.507813.332031 3.757813.332031 4.914062 0 9.726562-1.679687 13.613281-4.816406 3.21875-2.601563 3.722656-7.324219 1.121094-10.546875-2.601563-3.222656-7.324219-3.726562-10.546875-1.121094zm0 0"/></svg>