<svg height="512pt" viewBox="-85 0 512 512.001" width="512pt" xmlns="http://www.w3.org/2000/svg"><path d="m90.398438 491.246094c-3.300782 0-6.636719-.957032-9.574219-2.953125-7.785157-5.296875-9.808594-15.898438-4.511719-23.6875 32.769531-48.199219 52.078125-58.300781 67.59375-66.417969 4.179688-2.1875 7.792969-4.078125 11.21875-6.597656 7.582031-5.582032 18.257812-3.960938 23.839844 3.625 5.582031 7.585937 3.957031 18.257812-3.628906 23.839844-5.519532 4.066406-10.65625 6.75-15.617188 9.347656-12.769531 6.683594-27.246094 14.257812-55.203125 55.378906-3.300781 4.851562-8.660156 7.464844-14.117187 7.464844zm0 0" fill="#efd176"/><path d="m180.121094 504.5c-1.71875 0-3.464844-.261719-5.191406-.8125-8.96875-2.863281-13.921876-12.460938-11.054688-21.429688 11.675781-36.570312 50.90625-73.621093 67.234375-87.859374 7.097656-6.183594 17.867187-5.449219 24.058594 1.648437 6.191406 7.097656 5.453125 17.871094-1.644531 24.0625-22.78125 19.859375-49.757813 49.339844-57.160157 72.519531-2.316406 7.246094-9.019531 11.871094-16.242187 11.871094zm0 0" fill="#efd176"/><path d="m48.179688 375.714844c-1.855469 0-3.738282-.304688-5.589844-.945313-8.898438-3.085937-13.605469-12.800781-10.519532-21.699219 9.800782-28.25 16.945313-46.921874 39.417969-73.679687 6.058594-7.210937 16.8125-8.148437 24.023438-2.089844 7.214843 6.054688 8.152343 16.8125 2.09375 24.023438-18.699219 22.265625-24.285157 36.886719-33.316407 62.921875-2.445312 7.050781-9.046874 11.46875-16.109374 11.46875zm0 0" fill="#efd176"/><path d="m147.6875 76.203125c23.992188 23.992187 28.101562 61.347656 28.511719 80.515625.148437 6.964844-5.542969 12.660156-12.511719 12.511719-19.167969-.410157-56.519531-4.519531-80.511719-28.511719-23.992187-23.992188-28.105469-61.34375-28.515625-80.515625-.148437-6.964844 5.546875-12.660156 12.511719-12.511719 19.171875.410156 56.523437 4.523438 80.515625 28.511719zm0 0" fill="#8ee2cf"/><path d="m129.820312 130.347656c-1.917968 0-3.839843-.730468-5.304687-2.195312l-28.773437-28.773438c-2.929688-2.929687-2.929688-7.679687 0-10.605468 2.929687-2.929688 7.675781-2.929688 10.605468 0l28.773438 28.773437c2.929687 2.929687 2.929687 7.675781 0 10.605469-1.464844 1.464844-3.382813 2.195312-5.300782 2.195312zm0 0" fill="#6fce91"/><path d="m241.449219 76.203125c-23.992188 23.992187-28.105469 61.347656-28.515625 80.515625-.148438 6.964844 5.546875 12.660156 12.511718 12.511719 19.171876-.410157 56.523438-4.519531 80.515626-28.511719 23.992187-23.992188 28.101562-61.34375 28.511718-80.515625.148438-6.964844-5.546875-12.660156-12.511718-12.511719-19.167969.410156-56.519532 4.523438-80.511719 28.511719zm0 0" fill="#8ee2cf"/><path d="m259.316406 130.347656c-1.917968 0-3.839844-.730468-5.304687-2.195312-2.925781-2.929688-2.925781-7.675782 0-10.605469l28.777343-28.773437c2.929688-2.929688 7.675782-2.929688 10.605469 0 2.929688 2.929687 2.929688 7.675781 0 10.605468l-28.773437 28.773438c-1.464844 1.464844-3.382813 2.195312-5.304688 2.195312zm0 0" fill="#6fce91"/><path d="m240.183594 88.367188c0 33.929687-23.503906 63.25-36.769532 77.09375-4.820312 5.03125-12.871093 5.03125-17.691406 0-13.265625-13.84375-36.769531-43.164063-36.769531-77.09375 0-33.929688 23.503906-63.25 36.769531-77.09375 4.820313-5.03125 12.871094-5.03125 17.691406 0 13.265626 13.84375 36.769532 43.164062 36.769532 77.09375zm0 0" fill="#8ee2cf"/><path d="m194.570312 116.214844c-4.144531 0-7.5-3.359375-7.5-7.5v-40.695313c0-4.140625 3.355469-7.5 7.5-7.5 4.140626 0 7.5 3.359375 7.5 7.5v40.695313c0 4.140625-3.359374 7.5-7.5 7.5zm0 0" fill="#6fce91"/><path d="m194.566406 137.730469c70.386719 0 120.699219 55.433593 127.445313 139.378906 7.015625 87.320313-25.832031 152.453125-127.445313 152.453125-101.609375 0-134.457031-65.132812-127.441406-152.453125 6.746094-83.945313 57.058594-139.378906 127.441406-139.378906zm0 0" fill="#f7ef87"/><g fill="#efd176"><path d="m152.492188 145.046875c-47.789063 17.640625-80.0625 66.027344-85.367188 132.0625-6.996094 87.074219 25.65625 152.082031 126.605469 152.445313-122.527344-74.96875-89.671875-210.222657-41.238281-284.507813zm0 0"/><path d="m206.941406 245.136719c-1.917968 0-3.839844-.734375-5.304687-2.195313l-7.066407-7.074218-7.070312 7.074218c-2.929688 2.925782-7.679688 2.925782-10.609375 0-2.929687-2.929687-2.929687-7.679687 0-10.609375l12.375-12.371093c2.929687-2.929688 7.679687-2.929688 10.605469 0l12.375 12.371093c2.929687 2.929688 2.929687 7.679688 0 10.609375-1.464844 1.460938-3.382813 2.195313-5.304688 2.195313zm0 0"/><path d="m252.9375 245.136719c-1.917969 0-3.835938-.734375-5.300781-2.195313-2.929688-2.929687-2.929688-7.679687 0-10.609375l12.375-12.375c1.40625-1.40625 3.3125-2.195312 5.300781-2.195312 1.992188 0 3.898438.789062 5.304688 2.199219l12.375 12.375c2.929687 2.925781 2.929687 7.675781 0 10.605468-2.929688 2.925782-7.679688 2.929688-10.605469 0l-7.070313-7.074218-7.070312 7.074218c-1.46875 1.460938-3.386719 2.195313-5.308594 2.195313zm0 0"/><path d="m136.195312 245.136719c-1.917968 0-3.835937-.734375-5.304687-2.195313l-7.066406-7.074218-7.070313 7.074218c-2.929687 2.925782-7.679687 2.925782-10.609375 0-2.929687-2.929687-2.929687-7.679687 0-10.609375l12.375-12.371093c2.929688-2.929688 7.679688-2.929688 10.605469 0l12.375 12.371093c2.929688 2.929688 2.929688 7.679688 0 10.609375-1.464844 1.460938-3.382812 2.195313-5.304688 2.195313zm0 0"/><path d="m217.566406 390.167969c-1.917968 0-3.839844-.734375-5.304687-2.195313-2.929688-2.929687-2.929688-7.679687 0-10.609375l12.375-12.375c1.40625-1.402343 3.316406-2.195312 5.304687-2.195312 1.988282 0 3.898438.792969 5.304688 2.199219l12.375 12.375c2.925781 2.929687 2.925781 7.675781-.003906 10.605468-2.929688 2.929688-7.675782 2.929688-10.605469 0l-7.070313-7.070312-7.070312 7.070312c-1.464844 1.460938-3.386719 2.195313-5.304688 2.195313zm0 0"/><path d="m171.570312 390.167969c-1.921874 0-3.839843-.734375-5.304687-2.195313l-7.070313-7.070312-7.070312 7.070312c-2.929688 2.929688-7.679688 2.925782-10.605469 0-2.929687-2.929687-2.929687-7.679687 0-10.609375l12.371094-12.375c1.40625-1.40625 3.316406-2.195312 5.304687-2.195312 1.988282 0 3.898438.789062 5.304688 2.195312l12.375 12.375c2.929688 2.929688 2.929688 7.679688 0 10.609375-1.46875 1.460938-3.386719 2.195313-5.304688 2.195313zm0 0"/></g><path d="m132.390625 325.085938c0-13.308594-13.546875-24.101563-30.261719-24.101563-16.710937 0-30.261718 10.792969-30.261718 24.101563 0 13.308593 13.550781 24.097656 30.261718 24.097656 16.714844 0 30.261719-10.789063 30.261719-24.097656zm0 0" fill="#eda1ab"/><path d="m296.417969 325.085938c0-13.308594-13.546875-24.101563-30.261719-24.101563-16.710938 0-30.261719 10.792969-30.261719 24.101563 0 13.308593 13.550781 24.097656 30.261719 24.097656 16.714844 0 30.261719-10.789063 30.261719-24.097656zm0 0" fill="#eda1ab"/><path d="m187.328125 448.832031h-143.792969c-9.441406 0-17.097656-7.652343-17.097656-17.097656v-86.597656c0-9.441407 7.65625-17.097657 17.097656-17.097657h143.792969c9.441406 0 17.097656 7.65625 17.097656 17.097657v86.597656c0 9.445313-7.65625 17.097656-17.097656 17.097656zm0 0" fill="#8eafe2"/><path d="m43.535156 328.039062c-9.441406 0-17.097656 7.65625-17.097656 17.097657v86.597656c0 9.445313 7.65625 17.097656 17.097656 17.097656h76.324219c-34.367187-19.808593-39.734375-87.941406-37.398437-120.792969zm0 0" fill="#6a96d7"/><path d="m100.925781 328.039062h29.011719v120.796876h-29.011719zm0 0" fill="#a3defe"/><path d="m100.925781 448.832031h18.933594c-7.679687-4.425781-13.914063-11.261719-18.933594-19.585937zm0 0" fill="#7acefa"/><path d="m175.769531 360.15625h-17.175781c-4.144531 0-7.5-3.359375-7.5-7.5 0-4.144531 3.355469-7.5 7.5-7.5h17.175781c4.140625 0 7.5 3.355469 7.5 7.5s-3.359375 7.5-7.5 7.5zm0 0" fill="#fff"/><path d="m30.476562 401.003906c-2.132812 0-4.300781-.402344-6.398437-1.25-2.992187-1.214844-5.5-2.378906-7.667969-3.558594-8.273437-4.503906-11.324218-14.863281-6.820312-23.132812s14.859375-11.324219 23.132812-6.820312c.691406.378906 1.976563 1.015624 4.164063 1.902343 8.726562 3.539063 12.9375 13.480469 9.398437 22.207031-2.6875 6.632813-9.070312 10.652344-15.808594 10.652344zm0 0" fill="#efd176"/><path d="m193.710938 403.890625c-8.109376 0-15.296876-5.804687-16.769532-14.066406-1.652344-9.273438 4.527344-18.128907 13.796875-19.777344 27.125-4.832031 80.152344-20.816406 106.871094-50.089844 6.347656-6.957031 17.132813-7.449219 24.089844-1.101562 6.957031 6.347656 7.449219 17.132812 1.101562 24.089843-40.488281 44.363282-117.441406 59.140626-126.082031 60.675782-1.011719.179687-2.015625.269531-3.007812.269531zm0 0" fill="#efd176"/><path d="m119.765625 282.859375c-4.144531 0-7.5 3.355469-7.5 7.5v10.683594c0 4.144531 3.355469 7.5 7.5 7.5s7.5-3.355469 7.5-7.5v-10.683594c0-4.144531-3.359375-7.5-7.5-7.5zm209.722656-6.351563c-3.449219-42.914062-17.898437-79.4375-41.792969-105.621093-1.765624-1.933594-3.574218-3.792969-5.421874-5.59375 11.398437-4.941407 21.117187-11.394531 28.984374-19.265625.503907-.503906 1.003907-1.015625 1.492188-1.53125 2.851562-3.003906 2.730469-7.75-.273438-10.601563-3.003906-2.855469-7.75-2.734375-10.601562.269531-.398438.421876-.800781.835938-1.21875 1.25-8.042969 8.046876-18.578125 14.367188-31.332031 18.835938-10.683594-7.925781-22.414063-13.949219-35-17.976562 8.859375-16.207032 13.363281-32.28125 13.363281-47.90625 0-2.503907-.128906-4.980469-.347656-7.433594 9.746094-9.488282 32.039062-24.832032 74.785156-25.742188 1.304688-.039062 2.53125.464844 3.460938 1.394532.925781.925781 1.417968 2.152343 1.390624 3.460937-.253906 11.96875-1.949218 29.851563-8.585937 47.09375-1.488281 3.867187.4375 8.207031 4.304687 9.695313.886719.339843 1.796876.5 2.691407.5 3.015625 0 5.855469-1.828126 7.003906-4.808594 7.410156-19.261719 9.304687-39 9.582031-52.160156.117188-5.433594-1.933594-10.542969-5.78125-14.390626-3.84375-3.84375-8.945312-5.875-14.386718-5.78125-18.902344.402344-52.457032 4.175782-77.691407 23.710938-7.296875-25.414062-24.167969-46.222656-35.28125-57.820312-3.761719-3.925782-8.828125-6.085938-14.261719-6.085938-5.441406 0-10.507812 2.160156-14.265624 6.085938-11.113282 11.597656-27.984376 32.402343-35.277344 57.820312-25.242188-19.539062-58.792969-23.308594-77.691406-23.710938-5.398438-.105468-10.542969 1.9375-14.386719 5.78125-3.847657 3.84375-5.902344 8.953126-5.785157 14.386719.449219 20.972657 5.035157 59.984375 30.707032 85.65625 7.875 7.875 17.59375 14.328125 28.992187 19.273438-1.847656 1.800781-3.65625 3.660156-5.421875 5.59375-23.894531 26.183593-38.34375 62.707031-41.789062 105.621093-.167969 2.066407-.300782 4.113282-.425782 6.152344-9.921874 12.828125-17.078124 24.8125-23.324218 39.101563-9.839844 3.21875-16.964844 12.480469-16.964844 23.378906v12.195313c-6.558594 1.550781-12.460938 5.769531-15.933594 12.140624-3.136718 5.757813-3.84375 12.394532-1.988281 18.683594 1.851563 6.292969 6.046875 11.484375 11.804687 14.621094 1.828126.996094 3.84375 1.96875 6.117188 2.949219v26.007812c0 6.316407 2.394531 12.324219 6.734375 16.910157 1.476563 1.554687 3.460937 2.339843 5.449219 2.339843 1.851562 0 3.703125-.679687 5.15625-2.054687 3.007812-2.847656 3.136718-7.59375.285156-10.601563-1.691406-1.789062-2.625-4.132812-2.625-6.597656v-23.476563c8.601562-1.207031 15.964844-6.859374 19.296875-15.085937 2.464844-6.078125 2.414063-12.753906-.140625-18.792969-2.558594-6.039062-7.3125-10.722656-13.390625-13.1875-1.941406-.785156-2.964844-1.300781-3.394531-1.535156-.777344-.421875-1.570313-.796875-2.371094-1.128906v-13.390625c0-4.863281 3.640625-8.882813 8.339844-9.503907.082031-.011718.160156-.023437.238281-.035156.335937-.035156.671875-.058594 1.019531-.058594h24.578125c.007813 0 .015625.003907.023438.003907.003906 0 .007812-.003907.011719-.003907h25.273437v105.796876h-30.003906c-4.140625 0-7.5 3.355468-7.5 7.5 0 4.140624 3.359375 7.5 7.5 7.5h9.476562c-.925781 1.332031-1.855469 2.683593-2.785156 4.050781-7.613281 11.195312-4.695313 26.496093 6.5 34.109375 4.089844 2.78125 8.855469 4.25 13.789063 4.25 8.144531 0 15.738281-4.015625 20.316406-10.75 9.019531-13.261719 17.054687-23.648438 24.492187-31.660156h32.296875c-4.765625 8.203124-8.375 16.121093-10.777344 23.640624-1.992187 6.246094-1.4375 12.894532 1.570313 18.726563 3.007813 5.828125 8.105469 10.136719 14.351563 12.128906 2.425781.777344 4.941406 1.167969 7.472656 1.167969 10.722656 0 20.121094-6.867188 23.382812-17.089844 6.871094-21.519531 33.40625-50.257812 54.324219-68.601562 9.742187-3.867188 18.566406-8.757813 26.40625-14.6875 18.457031-13.957032 31.542969-33.582032 38.949219-58.320313 1.78125-1.742187 3.515625-3.503906 5.15625-5.296875 8.105468-8.886718 8.441406-22.15625 1.402344-31.410156.957031-12.496094.878906-25.957031-.253907-40.085938zm-295.417969 98.589844c2.363282.957032 4.214844 2.777344 5.210938 5.128906.992188 2.347657 1.011719 4.945313.054688 7.308594-1.46875 3.625-4.945313 5.96875-8.859376 5.96875-.691406 0-1.382812-.082031-2.058593-.238281-.171875-.042969-.339844-.089844-.511719-.125-.34375-.097656-.679688-.207031-1.011719-.34375-2.722656-1.101563-4.976562-2.144531-6.898437-3.191406-2.238282-1.21875-3.871094-3.238281-4.59375-5.6875-.722656-2.445313-.445313-5.027344.773437-7.265625 1.730469-3.179688 5.015625-4.984375 8.40625-4.984375 1.542969 0 3.109375.375 4.5625 1.167969 1.269531.6875 2.929688 1.449218 4.925781 2.261718zm18.929688-54.558594c1.863281-3.785156 3.835938-7.429687 5.964844-11.007812.167968 3.75.429687 7.414062.773437 11.007812zm104.035156-241.058593c.019532-.125.039063-.25.054688-.375 3.660156-27.167969 22.398437-50.484375 34.046875-62.644531.902343-.941407 2.121093-1.460938 3.433593-1.460938 1.308594 0 2.523438.519531 3.429688 1.460938 30.179688 31.5 34.6875 58.570312 34.6875 71.90625 0 14.136718-4.53125 28.953124-13.453125 44.109374-7.957031-1.484374-16.1875-2.246093-24.664063-2.246093-8.476562 0-16.710937.761719-24.667968 2.246093-8.917969-15.15625-13.453125-29.976562-13.453125-44.109374 0-3 .207031-5.964844.585937-8.886719zm-68.558594 55.933593c-21.964843-21.964843-25.917968-56.648437-26.316406-75.371093-.027344-1.304688.46875-2.535157 1.394532-3.460938.925781-.925781 2.167968-1.433593 3.457031-1.390625 18.558593.394532 52.789062 4.289063 74.785156 25.753906-.222656 2.445313-.347656 4.917969-.347656 7.421876 0 15.625 4.5 31.699218 13.363281 47.902343-12.589844 4.03125-24.320312 10.054688-35.003906 17.980469-12.75-4.464844-23.285156-10.789062-31.332032-18.835938zm9.835938 344.148438c-1.78125 2.621094-4.738281 4.183594-7.914062 4.183594-1.910157 0-3.761719-.570313-5.355469-1.652344-4.355469-2.960938-5.488281-8.914062-2.527344-13.273438 2.957031-4.347656 5.914063-8.527343 8.816406-12.484374h24.070313c-5.382813 6.640624-11.042969 14.335937-17.089844 23.226562zm24.125-38.226562h-14.011719v-105.796876h14.011719zm-47.636719-120.796876c-1.355469-13.140624-1.429687-27.511718-.199219-42.832031 3.179688-39.5625 16.292969-73.007812 37.921876-96.710937 4.109374-4.507813 8.484374-8.601563 13.097656-12.277344.023437-.019531.050781-.042969.078125-.0625 12.539062-9.984375 26.835937-16.878906 42.457031-20.484375.046875-.011719.089844-.023437.132812-.035156 8.402344-1.925781 17.183594-2.90625 26.28125-2.90625 26.054688 0 49.539063 8.042969 68.851563 23.414062.035156.023438.066406.050781.101563.078125 4.609374 3.675782 8.980468 7.765625 13.089843 12.273438 21.628907 23.703125 34.742188 57.144531 37.921875 96.710937.832032 10.363281 1.0625 20.308594.710938 29.726563-8.222656-1.710938-17.117188.828125-23.175782 7.464844-10.949218 12-28.449218 23.179687-50.609374 32.335937-9.25 3.824219-19.472657 7.328125-29.535157 10.171875v-12.269531c0-13.5625-11.035156-24.597657-24.597656-24.597657zm62.636719 120.796876v-105.796876h49.890625c5.292969 0 9.597656 4.308594 9.597656 9.597657v16.03125c-2.558593.554687-5.070312 1.0625-7.5 1.492187-13.328125 2.375-22.238281 15.148438-19.867187 28.480469 2.089844 11.730469 12.246094 20.25 24.152344 20.25 1.070312 0 2.148437-.097656 3.214843-.238281v20.582031c0 5.292969-4.304687 9.597656-9.597656 9.597656h-49.890625zm51.78125 49.011718c-1.273438 3.980469-4.925781 6.652344-9.097656 6.652344-.980469 0-1.957032-.152344-2.910156-.457031-2.429688-.777344-4.410157-2.453125-5.582032-4.71875-1.167968-2.269531-1.386718-4.855469-.609375-7.285157 2.78125-8.710937 7.542969-18.1875 14.140625-28.203124h2.167969c11.957031 0 21.945313-8.582032 24.140625-19.910157 5.484375-.414062 10.792969-1.042969 15.925781-1.882812-27.867187 28.910156-36.121093 49.367187-38.175781 55.804687zm22.707031-69.011718v-13.285157c9.730469-2.324219 23.457031-6.082031 38.503907-11.675781 18.441406-6.855469 34.585937-14.800781 48.359374-23.757812-16.648437 28.898437-45.746093 45.238281-86.863281 48.71875zm105.335938-83.445313c-16.171875 17.71875-40.414063 32.664063-72.054688 44.421875-17.597656 6.539062-33.234375 10.441406-42.28125 12.414062-.011719.003907-.023437.007813-.039062.007813-3.722657.8125-6.332031 1.300781-7.488281 1.503906-.558594.101563-1.128907.152344-1.691407.152344-4.621093 0-8.570312-3.316406-9.382812-7.878906-.921875-5.1875 2.542969-10.15625 7.726562-11.082031 4.085938-.726563 8.753907-1.710938 13.8125-2.9375.152344-.03125.300781-.070313.453125-.109376 29.679688-7.269531 72.96875-23.222656 96.828125-49.371093 1.882813-2.0625 4.46875-3.109375 7.0625-3.109375 2.289063 0 4.585938.820312 6.410157 2.472656.078124.082031.160156.164062.246093.242188 3.671875 3.578124 3.875 9.460937.398438 13.273437zm-110.492188-31.445313c2.722657-3.125 2.398438-7.859374-.726562-10.582031-3.125-2.71875-7.863281-2.394531-10.582031.730469-2.855469 3.277344-6.980469 5.15625-11.316407 5.15625-4.335937 0-8.460937-1.878906-11.320312-5.15625-2.71875-3.125-7.457031-3.449219-10.578125-.730469-3.125 2.722657-3.449219 7.457031-.730469 10.582031 5.707031 6.550782 13.953125 10.304688 22.628906 10.304688 8.671875 0 16.917969-3.753906 22.625-10.304688zm41.75 2.101563c4.144531 0 7.5-3.359375 7.5-7.5v-10.6875c0-4.144531-3.355469-7.5-7.5-7.5-4.140625 0-7.5 3.355469-7.5 7.5v10.6875c0 4.140625 3.359375 7.5 7.5 7.5zm0 0"/></svg>